<?xml version="1.0" standalone="no"?>
<!DOCTYPE svg PUBLIC "-//W3C//DTD SVG 1.1//EN" "http://www.w3.org/Graphics/SVG/1.1/DTD/svg11.dtd" >
<svg>
<metadata>
Created by FontForge 20090622 at Thu Dec 31 07:00:11 2015
 By deploy user
Copyright (c) 2009 by Fontsmith Ltd. All rights reserved.
</metadata>
<defs>
<font id="FSAlbert" horiz-adv-x="550" >
  <font-face 
    font-family="FS Albert"
    font-weight="400"
    font-stretch="normal"
    units-per-em="1000"
    panose-1="2 0 0 0 4 0 0 2 0 4"
    ascent="770"
    descent="-230"
    x-height="483"
    cap-height="689"
    bbox="-196 -220 1000 1005"
    underline-thickness="50"
    underline-position="-50"
    unicode-range="U+0020-U+FB02"
  />
<missing-glyph horiz-adv-x="535" 
d="M20 693h495v-693h-495v693zM436 644h-337l169 -253zM466 94v505l-169 -252zM436 50l-168 252l-169 -252h337zM70 94l168 253l-168 252v-505z" />
    <glyph glyph-name="fi" unicode="fi" horiz-adv-x="525" 
d="M454 21q0 -21 -19 -21h-46q-19 0 -19 21v402h-191v-401q0 -22 -20 -22h-47q-19 0 -19 21v402h-58q-8 0 -11 2.5t-3 12.5v31q0 14 14 14h58v19q0 41 9 78.5t29 67.5q23 34 61 53.5t94 19.5q30 0 64 -4.5t54 -12.5q11 -4 11.5 -9.5t-1.5 -13.5l-5 -33q-2 -10 -9 -10
q-2 0 -10 2q-18 5 -43.5 9.5t-54.5 4.5t-49 -9t-33 -24q-19 -22 -25 -53t-6 -62v-23h256q19 0 19 -20v-442z" />
    <glyph glyph-name="fl" unicode="fl" horiz-adv-x="531" 
d="M462 21q0 -21 -19 -21h-48q-18 0 -18 20v622q-8 2 -20 4.5t-25.5 4t-27 2.5t-23.5 1q-27 0 -46.5 -8.5t-30.5 -22.5q-17 -22 -21 -52.5t-4 -62.5v-25h115q8 0 11.5 -2t3.5 -10v-34q0 -14 -14 -14h-116v-401q0 -22 -20 -22h-47q-19 0 -19 21v402h-58q-8 0 -11 2.5t-3 12.5
v31q0 14 14 14h58v19q0 60 9.5 99t37.5 70q21 23 54.5 36.5t78.5 13.5q30 0 65.5 -6t57.5 -13q18 3 28 5l15 3t6.5 1h1.5q15 0 15 -18v-672z" />
    <glyph glyph-name=".notdef" horiz-adv-x="535" 
d="M20 693h495v-693h-495v693zM436 644h-337l169 -253zM466 94v505l-169 -252zM436 50l-168 252l-169 -252h337zM70 94l168 253l-168 252v-505z" />
    <glyph glyph-name=".null" horiz-adv-x="0" 
 />
    <glyph glyph-name="nonmarkingreturn" horiz-adv-x="232" 
 />
    <glyph glyph-name="space" unicode=" " horiz-adv-x="232" 
 />
    <glyph glyph-name="exclam" unicode="!" horiz-adv-x="247" 
d="M174 160q0 -15 -17 -15h-35q-10 0 -14 3t-4 12l-9 510v1q0 11 4.5 14.5t12.5 3.5h55q11 0 14 -5t3 -13v-2zM195 43q0 -26 -18.5 -41t-38.5 -15q-21 0 -39.5 14.5t-18.5 40.5q0 27 17.5 41t40.5 14q22 0 39.5 -14t17.5 -40z" />
    <glyph glyph-name="quotedbl" unicode="&#x22;" horiz-adv-x="315" 
d="M258 541q0 -18 -17 -18h-39q-16 0 -16 18l-3 143v1q0 8 3 12t13 4h46q10 0 13 -4t3 -12v-2zM128 541q0 -18 -17 -18h-39q-16 0 -16 18l-3 143v1q0 8 3 12t13 4h46q10 0 13 -4t3 -12v-2z" />
    <glyph glyph-name="numbersign" unicode="#" horiz-adv-x="557" 
d="M567 421q-2 -9 -6 -12t-13 -3h-106l-21 -139h104q9 0 11.5 -3t2.5 -9v-6l-3 -34q-1 -11 -6 -13.5t-15 -2.5h-106l-28 -181q-2 -10 -7 -14t-18 -4h-41q-16 0 -16 11q0 5 1 9l30 179h-140l-30 -179q-2 -11 -6.5 -15.5t-19.5 -4.5h-38q-11 0 -14.5 3t-3.5 10q0 5 1 9l28 177
h-99q-9 0 -12 3.5t-3 8.5q0 2 0.5 3.5t0.5 3.5l5 33q2 9 6 12.5t18 3.5h98l21 139h-104q-14 0 -14 12q0 2 0.5 3t0.5 3l5 34q2 8 5 11t13 3h107l30 202q2 8 4.5 11.5t10.5 3.5h50q10 0 13 -2.5t3 -8.5t-1 -10l-30 -196h136l31 201q2 10 5.5 13t12.5 3h48q16 0 16 -12
q0 -2 -0.5 -3.5t-0.5 -3.5l-29 -198h105q13 0 13 -10v-2zM362 406h-138l-22 -139h138z" />
    <glyph glyph-name="dollar" unicode="$" 
d="M496 185q0 -42 -14 -75t-38 -56.5t-56.5 -38.5t-69.5 -21v-74q0 -11 -2.5 -16t-16.5 -5h-16q-13 0 -15.5 5t-2.5 16v70h-9q-39 0 -79.5 7.5t-79.5 20.5q-15 5 -15 16q0 2 2 10l13 44q3 11 13 11q7 0 12 -2q32 -11 68.5 -20t70.5 -9h4v256l-75 40q-50 26 -80 66.5
t-30 94.5q0 39 15.5 70t41.5 53.5t59 35.5t69 16v80q0 16 15 16h21q11 0 14 -3.5t3 -13.5v-78q36 -2 67.5 -9t64.5 -21q15 -5 15 -17v-2q0 -5 -1 -7l-15 -40q-5 -11 -13 -11q-4 0 -7 1q-4 2 -7.5 2.5t-7.5 2.5q-23 9 -47.5 16t-48.5 9v-234l39 -20q30 -15 55 -33t44 -40.5
t29.5 -50t10.5 -62.5zM408 180q0 41 -27 71.5t-63 44.5v-222q38 10 64 35.5t26 70.5zM265 624q-17 -3 -32 -8.5t-27 -15.5q-15 -12 -24.5 -28.5t-9.5 -37.5q0 -23 7.5 -40.5t20.5 -30.5t30 -23.5t35 -19.5v204z" />
    <glyph glyph-name="percent" unicode="%" horiz-adv-x="1000" 
d="M469 545q0 -30 -7.5 -58t-23 -49.5t-40 -34.5t-57.5 -13q-34 0 -58.5 12.5t-40.5 33.5t-23.5 49t-7.5 59q0 30 8 58.5t24.5 50.5t41 35t58.5 13t58 -13t39 -34.5t22 -50t7 -58.5zM771 666q0 -5 -4 -12l-472 -659q-6 -8 -11 -8q-6 0 -17 8l-27 20q-7 4 -7 12t5 14l468 655
q6 8 13 8q4 0 16 -7l27 -17q9 -6 9 -14zM792 145q0 -30 -7.5 -58t-23 -49.5t-40 -34.5t-57.5 -13q-34 0 -58.5 12.5t-40.5 33.5t-23.5 49t-7.5 59q0 30 8 58.5t24.5 50.5t41 35t58.5 13t58 -13t39 -34.5t22 -50t7 -58.5zM403 544q0 15 -2 33.5t-9 35t-19 27.5t-32 11
t-32.5 -10.5t-19 -26.5t-9 -34.5t-2.5 -33.5q0 -17 1.5 -36t8 -35t19 -26.5t35.5 -10.5q19 0 31 11t18.5 27.5t9 34.5t2.5 33zM726 144q0 15 -2 33.5t-9 35t-19 27.5t-32 11t-32.5 -10.5t-19 -26.5t-9 -34.5t-2.5 -33.5q0 -17 1.5 -36t8 -35t19 -26.5t35.5 -10.5q19 0 31 11
t18.5 27.5t9 34.5t2.5 33z" />
    <glyph glyph-name="ampersand" unicode="&#x26;" horiz-adv-x="670" 
d="M670 51q0 -2 -2 -10l-12 -35q-4 -12 -16 -12q-3 0 -6 0.5t-7 1.5q-37 8 -79 30t-75 55q-46 -42 -102 -66.5t-127 -24.5q-43 0 -81 14t-66 39.5t-44.5 61t-16.5 78.5q0 37 14.5 68t37.5 56.5t53 47.5l60 42l-31 37q-26 30 -41 59t-15 67q0 29 12 55t33.5 45t50.5 30t62 11
t61.5 -10t49.5 -28.5t33 -44t12 -56.5q0 -27 -10 -50t-27 -43.5t-38.5 -39t-44.5 -35.5l173 -204q30 42 51.5 98.5t26.5 122.5q1 10 3.5 13t10.5 3h44q13 0 13 -13q0 -34 -7.5 -71.5t-21 -74.5t-32 -71t-40.5 -59q30 -29 65 -47.5t64 -27.5q12 -4 12 -12zM242 348l-44 -34
t-36.5 -36.5t-25 -40.5t-9.5 -45q0 -29 10.5 -52.5t29 -40.5t42.5 -26.5t51 -9.5q51 0 92.5 18.5t73.5 48.5zM350 560q0 32 -20.5 54t-55.5 22q-32 0 -53.5 -21t-21.5 -53q0 -20 12 -43.5t31 -45.5l26 -30q32 24 57 53t25 64z" />
    <glyph glyph-name="quotesingle" unicode="'" horiz-adv-x="315" 
d="M191 541q0 -18 -17 -18h-39q-16 0 -16 18l-3 143v1q0 8 3 12t13 4h46q10 0 13 -4t3 -12v-2z" />
    <glyph glyph-name="parenleft" unicode="(" horiz-adv-x="325" 
d="M274 689q0 -5 -5 -13q-29 -45 -51.5 -86t-37.5 -83q-35 -98 -35 -220q0 -114 34 -207q15 -42 36.5 -80.5t49.5 -77.5q5 -8 5 -12q0 -6 -8 -12l-25 -17q-7 -5 -12 -5t-13 10q-72 97 -111.5 198t-39.5 216q0 113 42.5 214t114.5 195q6 8 12 8q4 0 10 -3l28 -16q6 -4 6 -9z
" />
    <glyph glyph-name="parenright" unicode=")" horiz-adv-x="324" 
d="M263 295q0 -113 -42 -214t-114 -195q-6 -8 -13 -8q-5 0 -9 3l-28 16q-6 3 -6 10q0 4 4 11q29 45 51.5 86t37.5 83q36 100 36 220q0 114 -34 207q-15 42 -36.5 80.5t-49.5 77.5q-5 8 -5 12q0 8 8 13l26 17q5 4 11 4t14 -10q72 -97 110.5 -197.5t38.5 -215.5z" />
    <glyph glyph-name="asterisk" unicode="*" horiz-adv-x="333" 
d="M301 585q0 -9 -14 -11l-91 -11l66 -67q6 -6 6 -12q0 -7 -9 -14l-28 -22q-9 -6 -13 -6q-6 0 -10 10l-41 96l-40 -98q-3 -9 -9 -9q-3 0 -10 5l-36 26q-6 4 -6 10q0 4 2.5 7.5t5.5 6.5l68 68l-98 10q-10 1 -10 8q0 4 1 7l16 50q3 9 11 9q4 0 9 -3l83 -51l-20 99q-1 4 -1 9
q0 9 13 9h41q16 0 16 -9v-4.5t-1 -4.5l-20 -99l84 51q4 3 10 3t10 -12l13 -41q2 -8 2 -10z" />
    <glyph glyph-name="plus" unicode="+" horiz-adv-x="510" 
d="M468 247q0 -12 -4 -17t-16 -5h-152v-162q0 -14 -4.5 -17.5t-14.5 -3.5h-42q-11 0 -14.5 4t-3.5 15v164h-152q-14 0 -17.5 4.5t-3.5 14.5v37q0 11 4 14.5t15 3.5h154v162q0 14 4 18t16 4h37q12 0 17 -4t5 -16v-164h150q14 0 18 -4t4 -16v-32z" />
    <glyph glyph-name="comma" unicode="," horiz-adv-x="201" 
d="M164 31q0 -45 -23.5 -86.5t-58.5 -65.5q-9 -6 -14 -6q-6 0 -12 8l-7 8q-4 6 -4 9t6 9q14 14 24.5 31t10.5 35q0 10 -5.5 18.5l-11.5 17t-11.5 17.5t-5.5 20q0 23 15.5 38t38.5 15q26 0 42 -21.5t16 -46.5z" />
    <glyph glyph-name="hyphen" unicode="-" horiz-adv-x="277" 
d="M236 245q0 -12 -4 -17t-16 -5h-153q-14 0 -18 4.5t-4 14.5v41q0 11 4.5 14.5t15.5 3.5h153q14 0 18 -4t4 -16v-36z" />
    <glyph glyph-name="period" unicode="." horiz-adv-x="204" 
d="M167 44q0 -25 -18 -41t-41 -16t-41.5 15t-18.5 41t18 41t42 15q23 0 41 -14.5t18 -40.5z" />
    <glyph glyph-name="slash" unicode="/" horiz-adv-x="327" 
d="M312 692q0 -6 -3 -13l-198 -669q-4 -13 -9.5 -16.5t-17.5 -3.5h-39q-15 0 -15 9q0 2 2 12l201 670q3 11 7.5 15.5t16.5 4.5h41q14 0 14 -9z" />
    <glyph glyph-name="zero" unicode="0" 
d="M512 347q0 -60 -11.5 -123t-39.5 -115t-73.5 -85.5t-113.5 -33.5t-113.5 33t-72.5 84.5t-38.5 114t-11.5 122.5q0 59 12 122.5t40 115.5t74 85.5t113 33.5q68 0 113 -33t72 -84.5t38.5 -114t11.5 -122.5zM415 346q0 45 -6 93.5t-22 89.5t-42.5 67.5t-68.5 26.5
q-43 0 -70.5 -27t-43 -68t-21.5 -89.5t-6 -92.5t6 -93t21.5 -90t42.5 -67.5t70 -26.5t70 27t42.5 68t21.5 89.5t6 92.5z" />
    <glyph glyph-name="one" unicode="1" 
d="M354 24q0 -24 -22 -24h-44q-14 0 -19 5.5t-5 18.5v566l-145 -89q-8 -5 -14 -5q-9 0 -13 8l-20 33q-4 8 -4 11q0 10 13 17l184 115q9 6 16.5 7.5t20.5 1.5h32q20 0 20 -23v-642z" />
    <glyph glyph-name="two" unicode="2" 
d="M490 22q0 -11 -5 -16.5t-19 -5.5h-377q-13 0 -17.5 5t-4.5 17v33q0 11 2 16.5t10 13.5q40 42 83 83t81 83q72 77 111.5 139t39.5 119q0 54 -33.5 83.5t-86.5 29.5q-36 0 -72.5 -11t-70.5 -31q-6 -3 -10 -3q-8 0 -14 12l-15 32q-3 6 -3 11q0 8 11 16q41 26 89 39.5
t98 13.5q42 0 78.5 -12t64.5 -35t44 -57t16 -79q0 -39 -12 -75.5t-35 -75t-58 -79.5t-81 -89l-61 -62.5l-60 -59.5h283q24 0 24 -20v-35z" />
    <glyph glyph-name="three" unicode="3" 
d="M484 201q0 -48 -19 -87t-51 -66.5t-74 -42.5t-89 -15q-46 0 -89.5 7.5t-80.5 27.5q-12 6 -12 14q0 1 2 7l16 42q3 8 12 8q3 0 9 -2q32 -14 66 -22t70 -8q65 0 105 37t40 100q0 35 -13.5 60.5t-36 42t-52 24.5t-62.5 8h-29q-17 0 -17 18v34q0 8 3 12.5t13 4.5h29
q63 0 101 28.5t38 90.5q0 53 -34 79t-87 26q-29 0 -61 -9t-61 -25q-7 -4 -11 -4q-6 0 -10 10l-16 36q-2 6 -2 7q0 6 9 12q75 45 168 45q38 0 74 -11.5t64 -33t45 -53.5t17 -73q0 -27 -8.5 -51.5t-24 -45t-36 -36t-44.5 -22.5q30 -7 55.5 -23t44 -39t29 -51.5t10.5 -60.5z
" />
    <glyph glyph-name="four" unicode="4" 
d="M328 689q11 0 11 -9q0 -8 -4 -16l-191 -427h246v160q0 12 5.5 15.5t15.5 3.5h49q11 0 15.5 -4t4.5 -15v-378q0 -19 -18 -19h-52q-20 0 -20 20v140h-324q-14 0 -18 6.5t-4 17.5v24q0 11 2 19t9 23l191 419q4 8 9 14t16 6h57z" />
    <glyph glyph-name="five" unicode="5" 
d="M494 210q0 -53 -19 -93.5t-52 -69t-78 -43t-97 -14.5q-41 0 -82 10.5t-79 30.5q-15 8 -15 16q0 5 3 11l16 37q4 11 12 11q5 0 15 -5q36 -18 68 -26t68 -8q29 0 55.5 9t46.5 26t31.5 43t11.5 61q0 37 -11.5 64t-31.5 45q-27 24 -66.5 33.5t-87.5 9.5h-63q-30 0 -30 30v278
q0 23 22 23h305q11 0 17 -4.5t6 -16.5v-35q0 -11 -4 -15.5t-17 -4.5h-239v-186h30q53 0 101 -12t84.5 -38.5t58 -67.5t21.5 -99z" />
    <glyph glyph-name="six" unicode="6" 
d="M500 227q0 -49 -14.5 -92t-42.5 -75.5t-67.5 -51t-89.5 -18.5q-64 0 -107.5 24.5t-70 66t-38 96.5t-11.5 116q0 49 6.5 98.5t21 94.5t36.5 84t53 68t74 46t94 17q42 0 89 -12q10 -2 11.5 -9t-0.5 -15l-7 -33q-2 -10 -7.5 -12.5t-13.5 -0.5q-17 4 -36.5 5.5t-34.5 1.5
q-66 0 -109 -43q-32 -33 -50.5 -86.5t-25.5 -121.5q32 31 70 44.5t73 13.5q42 0 78 -14t62.5 -40t41.5 -64.5t15 -87.5zM404 219q0 27 -6 52t-19.5 44.5t-35 31t-52.5 11.5q-30 0 -67.5 -15t-67.5 -49q0 -6 -0.5 -11.5t-0.5 -11.5q0 -46 7.5 -84t23.5 -65t41 -42t60 -15
q33 0 55.5 15t36 37.5t19.5 49.5t6 52z" />
    <glyph glyph-name="seven" unicode="7" 
d="M499 636q0 -9 -2.5 -18t-6.5 -18l-269 -580q-10 -20 -31 -20h-56q-8 0 -12 4.5t-4 10.5q0 5 3 11l276 585h-319q-12 0 -16.5 4.5t-4.5 15.5v38q0 10 4 15t16 5h401q12 0 16.5 -4.5t4.5 -15.5v-33z" />
    <glyph glyph-name="eight" unicode="8" 
d="M503 196q0 -47 -18.5 -85t-50 -65t-73 -41.5t-88.5 -14.5t-88.5 12.5t-72.5 37t-48.5 61.5t-17.5 85q0 47 30 91q20 29 50.5 52.5t68.5 37.5q-52 23 -86 65.5t-34 96.5q0 38 16 70t43 54.5t64 35t79 12.5q41 0 76.5 -11.5t62 -33.5t41.5 -53.5t15 -70.5q0 -24 -9.5 -47.5
t-26 -44t-38.5 -37.5t-46 -29q76 -32 113.5 -77t37.5 -101zM377 531q0 45 -27 73t-77 28q-45 0 -74 -28t-29 -71q0 -24 8.5 -43t23.5 -34.5t34.5 -28t40.5 -22.5q16 8 34 20t32.5 28t24 35.5t9.5 42.5zM408 188q0 26 -9 46t-26 37q-20 20 -47 35.5t-59 28.5
q-25 -11 -48 -24.5t-40 -31.5t-27.5 -40t-10.5 -49q0 -31 11.5 -55.5t30.5 -41t43 -25.5t50 -9q25 0 49 8t42.5 24.5t29.5 40.5t11 56z" />
    <glyph glyph-name="nine" unicode="9" 
d="M494 398q0 -50 -7 -100.5t-22 -96.5t-38 -86t-55 -68q-31 -27 -74.5 -42t-91.5 -15q-20 0 -45 3.5t-42 8.5q-9 2 -11 7.5t0 13.5l8 36q2 11 6 13t12 0q16 -3 33.5 -5t32.5 -2q35 0 66 11t52 33q32 33 49.5 86.5t24.5 120.5q-32 -32 -70 -45t-73 -13q-42 0 -77.5 14
t-62 40t-41.5 64.5t-15 87.5t14.5 92t42 75.5t67 51t89.5 18.5q64 0 107.5 -24.5t70.5 -66t38.5 -96.5t11.5 -116zM398 421q0 46 -7.5 84t-24 65t-41.5 41.5t-60 14.5q-32 0 -54.5 -14.5t-36 -37t-19.5 -49.5t-6 -53q0 -27 6 -52t19.5 -44.5t35 -31t51.5 -11.5q33 0 70 15.5
t66 48.5q0 5 0.5 11.5t0.5 12.5z" />
    <glyph glyph-name="colon" unicode=":" horiz-adv-x="214" 
d="M172 437q0 -26 -19 -41t-40 -15t-40.5 14.5t-19.5 41.5t18.5 42t41.5 15t41 -15t18 -42zM172 47q0 -26 -19 -41.5t-40 -15.5t-40.5 14.5t-19.5 41.5t18.5 41.5t41.5 14.5t41 -14t18 -41z" />
    <glyph glyph-name="semicolon" unicode=";" horiz-adv-x="214" 
d="M172 437q0 -26 -19 -41t-40 -15t-40.5 14.5t-19.5 41.5t18.5 42t41.5 15t41 -15t18 -42zM169 18q0 -45 -23.5 -80.5t-58.5 -59.5q-9 -6 -14 -6t-11 7l-9 11q-3 4 -3 9q0 4 5 9q11 11 21 25.5t10 27.5q0 9 -5 17l-10.5 16.5t-10.5 17.5t-5 20q0 24 16.5 38.5t39.5 14.5
q26 0 42 -21.5t16 -45.5z" />
    <glyph glyph-name="less" unicode="&#x3c;" horiz-adv-x="510" 
d="M418 184q0 -2 -4 -10l-27 -43q-6 -10 -14 -10q-6 0 -15 6l-266 179q-12 8 -12 21v19q0 13 13 22l269 178q7 6 14 6t13 -9l26 -42q3 -5 3 -9q0 -8 -8 -13l-217 -142l216 -140q9 -6 9 -13z" />
    <glyph glyph-name="equal" unicode="=" horiz-adv-x="510" 
d="M421 347q0 -12 -4 -17t-16 -5h-291q-14 0 -17.5 4.5t-3.5 14.5v34q0 11 4 15t15 4h291q14 0 18 -4t4 -16v-30zM421 173q0 -12 -4 -17t-16 -5h-291q-14 0 -17.5 4.5t-3.5 14.5v34q0 11 4 15t15 4h291q14 0 18 -4t4 -16v-30z" />
    <glyph glyph-name="greater" unicode="&#x3e;" horiz-adv-x="510" 
d="M417 327q0 -13 -14 -22l-268 -178q-9 -6 -15 -6q-7 0 -13 9l-25 42q-3 6 -3 10q0 7 8 12l217 142l-217 141q-8 5 -8 13q0 4 3 9l27 43q7 11 14 11q5 0 13 -5l268 -181q7 -5 10 -9t3 -12v-19z" />
    <glyph glyph-name="question" unicode="?" horiz-adv-x="421" 
d="M379 542q0 -38 -16.5 -74.5t-44.5 -66.5l-73 -79q-17 -19 -29.5 -38.5t-16.5 -54.5q-1 -7 -1 -14.5v-15.5v-5q0 -18 -12 -18h-41q-12 0 -14 11q-2 8 -2.5 18t-1.5 21v12q0 18 3 36q5 23 15 41t24 32l73 76l16.5 19.5t18 25t14 29.5t5.5 33q0 30 -10 49.5t-25.5 31.5
t-35.5 17t-40 5q-21 0 -47 -7t-51 -18q-5 -2 -11 -1t-8 8l-12 31q-2 6 -2 8q0 8 7 12q35 18 71 26.5t71 8.5t67 -11t56 -31.5t38.5 -50t14.5 -66.5zM228 43q0 -26 -19 -41t-39 -15q-21 0 -39.5 14.5t-18.5 40.5q0 27 17.5 41t40.5 14q22 0 40 -14t18 -40z" />
    <glyph glyph-name="at" unicode="@" horiz-adv-x="820" 
d="M769 389q0 -40 -12.5 -83t-36 -78.5t-58 -58.5t-78.5 -23q-18 0 -36 4.5t-32.5 14.5t-24 26t-10.5 40h-1q-21 -34 -49.5 -50.5t-60.5 -16.5q-29 0 -49.5 11.5t-34 31t-19.5 44t-6 51.5q0 37 11.5 76t34 70.5t54.5 52t73 20.5q26 0 52.5 -14.5t35.5 -49.5l10 40q2 7 5 8.5
t10 1.5h28q14 0 14 -10q0 -2 -0.5 -2.5t-0.5 -2.5l-46 -198q-3 -14 -5 -29.5t-2 -29.5q0 -23 12.5 -36t38.5 -13q23 0 41 10.5t32 27t24 38t16 42.5q7 23 9.5 46t2.5 41q0 58 -20 104t-55 78.5t-83.5 50t-106.5 17.5q-32 0 -67 -8t-64 -22q-42 -21 -73.5 -52t-53.5 -69
t-33 -82t-11 -91q0 -63 20 -113.5t57 -85.5t88.5 -54t113.5 -19q40 0 84 10t82 28q6 2 8 2q6 0 9 -7l9 -24q2 -6 2 -8q0 -6 -8 -10q-46 -23 -95.5 -34.5t-100.5 -11.5q-77 0 -142.5 22.5t-113.5 64.5t-75.5 102t-27.5 135q0 82 31 153t84.5 123t125 81.5t153.5 29.5
q70 0 128.5 -22t101.5 -63t67 -98.5t24 -128.5zM502 401q-1 10 -4 22.5t-10 22.5t-17.5 17t-26.5 7q-29 0 -49.5 -18.5t-33 -45t-18 -55.5t-5.5 -50q0 -14 2.5 -28t8.5 -25.5t16.5 -18.5t26.5 -7q31 0 51.5 21.5t34.5 50.5z" />
    <glyph glyph-name="A" unicode="A" horiz-adv-x="608" 
d="M522 0q-13 0 -18 3.5t-9 14.5l-66 186h-259l-69 -187q-4 -10 -8 -13.5t-15 -3.5h-59q-11 0 -11 6.5t2 13.5l251 655q5 14 18 14h53q13 0 18 -12l247 -656q3 -8 1.5 -14.5t-14.5 -6.5h-62zM405 273l-80 229l-14.5 43t-8.5 28h-1l-9.5 -28.5l-15.5 -44.5l-82 -227h211z" />
    <glyph glyph-name="B" unicode="B" horiz-adv-x="569" 
d="M524 198q0 -59 -21 -97t-56.5 -60.5t-83 -31.5t-99.5 -9h-168q-12 0 -16.5 4.5t-4.5 17.5v645q0 13 5.5 17.5t19.5 4.5h137q52 0 95.5 -9t74 -29t47.5 -52t17 -78q0 -55 -30.5 -97t-89.5 -54v-1q37 -2 68.5 -14t54.5 -34t36.5 -53t13.5 -70zM380 515q0 32 -12 52
t-32 31.5t-47 15.5t-57 4h-64v-223h68q26 0 52 4.5t46.5 17.5t33 36.5t12.5 61.5zM430 199q0 40 -16.5 65.5t-42.5 39.5q-25 13 -54.5 18t-64.5 5h-84v-256h87q32 0 59.5 3.5t49.5 13.5q30 14 48 40.5t18 70.5z" />
    <glyph glyph-name="C" unicode="C" horiz-adv-x="587" 
d="M370 64q37 0 79 9.5t77 27.5q15 8 22 -9l13 -31q10 -19 -11 -28q-92 -43 -193 -43q-78 0 -136 28t-96 76t-56.5 112.5t-18.5 137.5q0 72 21 136.5t61 113.5t98.5 78t133.5 29q50 0 95.5 -11t87.5 -34q6 -4 9 -6.5t3 -7.5t-3 -12l-16 -37q-4 -10 -12 -10q-5 0 -9 3
q-70 40 -149 40q-48 0 -89 -20t-70 -56q-33 -41 -47.5 -93t-14.5 -108t13 -107.5t40 -91t69 -63t99 -23.5z" />
    <glyph glyph-name="D" unicode="D" horiz-adv-x="669" 
d="M623 341q0 -86 -26.5 -154.5t-76.5 -113.5q-43 -39 -107 -56t-139 -17h-174q-14 0 -19.5 5t-5.5 19v637q0 15 6 21.5t23 6.5h126q48 0 85 -2.5t67 -8t55 -15t49 -24.5q64 -40 100.5 -116t36.5 -182zM524 342q0 72 -21.5 131t-63.5 93q-35 29 -80 38.5t-96 9.5h-95v-540
h86q66 0 114 10.5t83 45.5q73 75 73 212z" />
    <glyph glyph-name="E" unicode="E" horiz-adv-x="510" 
d="M466 18q0 -18 -20 -18h-349q-13 0 -17 4t-4 17v648q0 20 19 20h352q11 0 14 -5t2 -14l-4 -38q-1 -11 -7.5 -13.5t-19.5 -2.5h-263v-219h235q20 0 20 -18v-36q0 -11 -4 -14.5t-15 -3.5h-236v-252h276q21 0 21 -17v-38z" />
    <glyph glyph-name="F" unicode="F" horiz-adv-x="501" 
d="M459 632q-1 -11 -7.5 -13.5t-19.5 -2.5h-263v-219h235q20 0 20 -18v-36q0 -11 -4 -14.5t-15 -3.5h-236v-304q0 -13 -4.5 -17t-15.5 -4h-52q-12 0 -16.5 4t-4.5 18v647q0 20 19 20h352q18 0 16 -18l-4 -39v0z" />
    <glyph glyph-name="G" unicode="G" horiz-adv-x="658" 
d="M589 73q0 -16 -4 -23t-18 -15q-18 -10 -42 -18.5t-50 -14.5t-52.5 -9t-51.5 -3q-81 0 -141.5 26t-100.5 73t-60 112t-20 143q0 76 23 141.5t66 113.5t105 75t141 27q39 0 83.5 -8t82.5 -25q12 -6 12 -14q0 -2 -2 -10l-14 -39q-6 -16 -23 -9q-28 11 -66.5 19.5t-69.5 8.5
q-51 0 -91.5 -16.5t-69.5 -45.5q-39 -38 -58.5 -94t-19.5 -122q0 -56 12.5 -107.5t39.5 -90.5t69 -62t100 -23q33 0 67 6t60 19v237h-105q-10 0 -14 3t-4 15v38q0 10 4 13t14 3h179q11 0 15 -4t4 -15v-305z" />
    <glyph glyph-name="H" unicode="H" horiz-adv-x="659" 
d="M583 21q0 -21 -19 -21h-54q-20 0 -20 21v304h-322v-304q0 -21 -20 -21h-53q-20 0 -20 21v648q0 20 20 20h53q20 0 20 -20v-272h322v272q0 20 20 20h54q19 0 19 -20v-648z" />
    <glyph glyph-name="I" unicode="I" horiz-adv-x="371" 
d="M307 643q0 -11 -3.5 -13.5t-13.5 -2.5h-61v-564h60q17 0 17 -15v-32q0 -16 -14 -16h-213q-15 0 -15 15v34q0 8 3 11t12 3h60v564h-64q-15 0 -15 14v33q0 15 14 15h216q17 0 17 -14v-32z" />
    <glyph glyph-name="J" unicode="J" horiz-adv-x="386" 
d="M308 231q0 -67 -11 -119t-48 -83q-22 -18 -54 -28t-78 -10q-10 0 -29 2t-32 5q-11 2 -12 6.5t1 12.5l8 41q2 9 6.5 10.5t11.5 -0.5q28 -5 49 -5q24 0 45.5 8t32.5 25t15.5 45.5t4.5 66.5v419h-112q-11 0 -15 4.5t-4 12.5v30q0 8 4 11.5t15 3.5h183q19 0 19 -19v-439z" />
    <glyph glyph-name="K" unicode="K" horiz-adv-x="549" 
d="M539 8q0 -8 -13 -8h-68q-14 0 -21.5 4t-16.5 15l-250 300h-1v-298q0 -21 -19 -21h-55q-19 0 -19 21v648q0 20 19 20h55q19 0 19 -20v-290h1l241 297q12 13 28 13h56q12 0 12 -10q0 -4 -3 -8l-256 -313l283 -334q8 -10 8 -16z" />
    <glyph glyph-name="L" unicode="L" horiz-adv-x="454" 
d="M439 17q0 -17 -17 -17h-326q-20 0 -20 22v646q0 21 19 21h54q20 0 20 -21v-594h251q19 0 19 -16v-41z" />
    <glyph glyph-name="M" unicode="M" horiz-adv-x="838" 
d="M763 18q0 -11 -4 -14.5t-14 -3.5h-57q-11 0 -14.5 5t-4.5 18l-17 484h-2l-193 -495q-3 -8 -7.5 -10t-10.5 -2h-34q-8 0 -12 2.5t-8 11.5l-209 493h-1l-12 -489q0 -11 -4.5 -14.5t-15.5 -3.5h-49q-18 0 -18 17v2l23 649q1 13 4.5 17t11.5 4h43q12 0 17 -3.5t9 -11.5
l243 -545h1l224 544q4 9 8.5 12.5t13.5 3.5h46q9 0 12 -4t4 -14l27 -650v-3v0z" />
    <glyph glyph-name="N" unicode="N" horiz-adv-x="695" 
d="M619 21q0 -13 -4 -17t-13 -4h-46q-16 0 -30 19l-361 506h-2v-504q0 -21 -20 -21h-46q-20 0 -20 21v647q0 21 20 21h40q9 0 14.5 -3t11.5 -12l368 -517h2v511q0 12 4.5 16.5t14.5 4.5h48q11 0 15 -5t4 -16v-647z" />
    <glyph glyph-name="O" unicode="O" horiz-adv-x="676" 
d="M632 349q0 -85 -22.5 -152t-62 -113t-93 -70t-116.5 -24q-67 0 -120 24.5t-89.5 70t-55.5 110.5t-19 147q0 81 21.5 147.5t60 113.5t92.5 72.5t119 25.5q69 0 122 -26t89.5 -72.5t55 -111t18.5 -142.5zM533 346q0 133 -48 205.5t-140 72.5q-43 0 -78.5 -20.5t-61 -57
t-39.5 -88t-14 -113.5q0 -132 49.5 -205.5t140.5 -73.5q42 0 77.5 19.5t60.5 56t39 88t14 116.5z" />
    <glyph glyph-name="P" unicode="P" horiz-adv-x="519" 
d="M488 479q0 -56 -20 -97t-54.5 -68t-80 -40.5t-97.5 -13.5h-11.5t-22.5 0.5t-22 0.5h-11v-241q0 -20 -20 -20h-54q-19 0 -19 21v647q0 21 19 21h131q71 0 127 -17t91 -59q21 -25 32.5 -58.5t11.5 -75.5zM394 477q0 41 -13 68t-35.5 43.5t-53.5 23t-68 6.5h-55v-286h11
t21.5 -0.5t21 -0.5h10.5q73 0 117 34.5t44 111.5z" />
    <glyph glyph-name="Q" unicode="Q" horiz-adv-x="670" 
d="M638 -110q-3 -11 -12 -12t-17 1q-42 10 -73 27.5t-61 39.5q-26 19 -49 32.5t-58 13.5q-11 0 -22 -0.5t-22 -0.5q-72 0 -124 29t-85.5 78t-49.5 112t-16 131q0 69 18 133.5t54.5 115t91.5 81t130 30.5q76 0 130 -29.5t88.5 -79t50.5 -113t16 -131.5q0 -49 -9 -96.5
t-27.5 -90t-48 -77.5t-71.5 -58q28 -11 52.5 -26t53.5 -28q17 -8 31 -13.5t30 -10.5q15 -5 11 -18zM529 345q0 51 -9 101t-31 89.5t-58.5 64t-90.5 24.5q-51 0 -87.5 -25.5t-59.5 -65.5t-34 -89.5t-11 -98.5q0 -51 9.5 -101t31 -90t58 -64.5t90.5 -24.5q52 0 88.5 25
t59.5 65t33.5 90t10.5 100z" />
    <glyph glyph-name="R" unicode="R" horiz-adv-x="555" 
d="M265 280h-96v-259q0 -21 -19 -21h-55q-19 0 -19 21v646q0 22 20 22h144q68 0 123 -15.5t88 -56.5q41 -50 41 -130q0 -36 -11 -66.5t-29.5 -55t-44 -42t-55.5 -27.5l1 -2l163 -273q5 -7 3 -14t-13 -7h-60q-21 0 -31 18zM398 486q0 73 -44 102.5t-121 29.5h-64v-268h77
q66 0 109 34.5t43 101.5z" />
    <glyph glyph-name="S" unicode="S" horiz-adv-x="508" 
d="M235 69q25 0 50.5 6t45 19.5t32 34.5t12.5 51q0 42 -25.5 68t-62.5 46l-127 68q-50 27 -80 67.5t-30 94.5q0 43 18.5 76t48.5 55.5t68 34t77 11.5q45 0 82.5 -6.5t76.5 -23.5q16 -6 16 -17q0 -3 -2 -9l-15 -41q-4 -11 -14 -11q-6 0 -12 3q-30 13 -63.5 21t-63.5 8
q-21 0 -42.5 -5t-39 -16.5t-28.5 -29t-11 -42.5q0 -39 23 -62.5t55 -40.5l107 -57q29 -16 54 -33.5t43 -39.5t28.5 -49.5t10.5 -62.5q0 -49 -19 -86t-51 -61.5t-74 -37t-88 -12.5q-41 0 -83.5 7t-84.5 21q-18 6 -13 25l13 45q6 18 26 10q34 -13 70.5 -21t71.5 -8z" />
    <glyph glyph-name="T" unicode="T" 
d="M319 20q0 -20 -18 -20h-57q-18 0 -18 20v596h-193q-16 0 -16 16v42q0 9 3.5 12t11.5 3h489q18 0 16 -16l-6 -41q-2 -11 -8 -13.5t-17 -2.5h-187v-596z" />
    <glyph glyph-name="U" unicode="U" horiz-adv-x="697" 
d="M624 301q0 -69 -15 -126t-48 -98t-85 -64t-126 -23q-81 0 -134.5 22t-84.5 63.5t-43.5 100t-12.5 131.5v362q0 20 19 20h55q19 0 19 -20v-353q0 -50 5 -95t24 -79t55.5 -54t98.5 -20q60 0 95.5 21t54.5 55.5t24.5 79.5t5.5 93v352q0 20 20 20h54q19 0 19 -20v-368z" />
    <glyph glyph-name="V" unicode="V" horiz-adv-x="610" 
d="M576 689q14 0 15.5 -6t-1.5 -15l-231 -649q-7 -19 -26 -19h-47q-11 0 -16.5 4.5t-10.5 16.5l-238 644q-3 9 -0.5 16.5t14.5 7.5h58q14 0 20.5 -4t10.5 -15l190 -539h2l183 537q5 13 10.5 17t19.5 4h47z" />
    <glyph glyph-name="W" unicode="W" horiz-adv-x="894" 
d="M876 677q0 -3 -2 -9l-192 -647q-6 -21 -26 -21h-47q-10 0 -16 4.5t-10 17.5l-136 518h-1l-137 -518q-4 -13 -10 -17.5t-17 -4.5h-46q-11 0 -16 4t-10 19l-189 641q-2 8 -2 12q0 13 15 13h62q14 0 20.5 -4.5t9.5 -16.5l140 -526h1l135 527q3 13 9.5 16.5t18.5 3.5h43
q19 0 24 -19l138 -528h2l142 526q4 13 10.5 17t17.5 4h54q15 0 15 -12z" />
    <glyph glyph-name="X" unicode="X" horiz-adv-x="563" 
d="M544 11q0 -11 -15 -11h-61q-24 0 -35 20l-154 264h-1l-154 -263q-7 -12 -14 -16.5t-21 -4.5h-53q-15 0 -15 11q0 7 4 12l207 334l-189 311q-3 6 -3 10q0 11 13 11h64q10 0 16.5 -3.5t11.5 -13.5l139 -236h1l138 237q9 16 27 16h62q12 0 12 -9q0 -3 -4 -11l-190 -304
l210 -341q4 -7 4 -13z" />
    <glyph glyph-name="Y" unicode="Y" 
d="M533 679q0 -6 -4 -13l-202 -394v-254q0 -18 -17 -18h-59q-17 0 -17 19v251l-214 399q-3 6 -3 10q0 10 15 10h56q25 0 33 -17l164 -324h1l158 321q6 12 11.5 16t19.5 4h42q16 0 16 -10z" />
    <glyph glyph-name="Z" unicode="Z" horiz-adv-x="541" 
d="M515 17q0 -17 -17 -17h-460q-14 0 -14 15v22q0 7 1.5 12.5t6.5 13.5l355 552v1h-310q-14 0 -18 3t-4 13v42q0 8 3 11.5t13 3.5h416q19 0 19 -16v-17q0 -8 -1 -15.5t-7 -16.5l-356 -550v-1h355q18 0 18 -16v-40z" />
    <glyph glyph-name="bracketleft" unicode="[" horiz-adv-x="312" 
d="M292 -125q0 -10 -4 -14.5t-16 -4.5h-167q-20 0 -20 22v800q0 23 21 23h165q12 0 16.5 -4t4.5 -15v-33q0 -18 -20 -18h-101v-705h101q12 0 16 -4t4 -14v-33z" />
    <glyph glyph-name="backslash" unicode="\" horiz-adv-x="349" 
d="M317 -4q0 -9 -14 -9h-41q-12 0 -17 4.5t-8 15.5l-200 677q-2 8 -2 11q0 10 15 10h39q12 0 17.5 -3.5t9.5 -16.5l198 -676q3 -8 3 -13z" />
    <glyph glyph-name="bracketright" unicode="]" horiz-adv-x="312" 
d="M228 -121q0 -23 -21 -23h-164q-22 0 -22 19v33q0 18 21 18h101v706h-101q-12 0 -16.5 4t-4.5 14v32q0 10 4.5 14.5t16.5 4.5h166q20 0 20 -22v-800z" />
    <glyph glyph-name="asciicircum" unicode="^" horiz-adv-x="537" 
d="M480 395q0 -6 -8 -11l-39 -20q-7 -4 -13 -4q-8 0 -14 10l-139 214l-140 -210q-8 -11 -15 -11q-2 0 -10 4l-36 25q-9 6 -9 13q0 6 5 14l178 254q7 9 11 12.5t11 3.5h17q8 0 13 -4t9 -10l175 -270q4 -8 4 -10z" />
    <glyph glyph-name="underscore" unicode="_" horiz-adv-x="510" 
d="M505 -120q0 -11 -3 -15t-14 -4h-463q-13 0 -16.5 3.5t-3.5 11.5v26q0 9 3.5 12t13.5 3h463q14 0 17 -3t3 -14v-20z" />
    <glyph glyph-name="grave" unicode="`" horiz-adv-x="325" 
d="M60 649q0 7 4 12l21 33q7 10 15 10q5 0 14 -6l140 -90q9 -5 9 -13q0 -5 -4 -10l-12 -18q-6 -9 -14 -9q-5 0 -12 3l-151 75q-10 4 -10 13z" />
    <glyph glyph-name="a" unicode="a" horiz-adv-x="538" 
d="M509 13q0 -13 -15 -13h-42q-33 0 -49 22t-16 52h-2q-9 -17 -25 -32t-36 -26.5t-43 -18.5t-46 -7q-52 0 -89.5 20t-62 54t-36 78t-11.5 91q0 63 17 111.5t46.5 81.5t68 50.5t81.5 17.5q38 0 74.5 -15.5t59.5 -45.5l1 33q0 17 19 17h45q18 0 18 -19v-350q0 -17 1 -28.5
t4 -16.5q5 -9 17 -9h7q7 0 10.5 -2.5t3.5 -10.5v-34zM381 354q-18 34 -51.5 53t-69.5 19q-58 0 -96.5 -48.5t-38.5 -138.5q0 -83 34.5 -130.5t88.5 -47.5q24 0 45 8.5t38.5 23t30 32.5t19.5 37v192z" />
    <glyph glyph-name="b" unicode="b" horiz-adv-x="538" 
d="M499 243q0 -51 -13.5 -97t-40.5 -80.5t-68 -55t-97 -20.5q-38 0 -75 18t-59 44l-2 -36q-1 -16 -20 -16h-38q-19 0 -19 19v664q0 10 2.5 14.5t12.5 6.5q19 3 29.5 4t16 2t6.5 1h2q16 0 16 -17v-257q23 23 60.5 40t83.5 17q41 0 72 -12t55 -33q39 -35 57.5 -89t18.5 -117z
M410 239q0 40 -7.5 73.5t-23 58.5t-40.5 39t-60 14t-69.5 -17.5t-57.5 -42.5v-239q20 -29 51.5 -47.5t67.5 -18.5q37 0 63.5 14.5t43.5 39.5t24.5 57.5t7.5 68.5z" />
    <glyph glyph-name="c" unicode="c" horiz-adv-x="433" 
d="M418 32q0 -8 -12 -13q-32 -15 -66 -22t-69 -7q-59 0 -102.5 18.5t-72.5 51.5t-43.5 79t-14.5 102q0 55 16 101.5t47 80t75.5 52.5t100.5 19q32 0 67 -7.5t61 -21.5q10 -4 10 -13q0 -2 -2 -8l-8 -32q-3 -12 -11 -12q-5 0 -9 3q-23 11 -49 18t-55 7q-72 0 -113.5 -49
t-41.5 -134q0 -38 8.5 -72.5t27 -60.5t47 -41.5t68.5 -15.5q32 0 60 6.5t52 17.5q6 2 8 2q7 0 10 -10l9 -28q2 -8 2 -11z" />
    <glyph glyph-name="d" unicode="d" horiz-adv-x="539" 
d="M473 21q0 -21 -15 -21h-43q-21 0 -21 19l-1 36q-24 -29 -64 -47t-83 -18q-54 0 -93 20.5t-64 55t-37 79.5t-12 94q0 55 15.5 102t44 81t68.5 53.5t90 19.5q35 0 71.5 -15t58.5 -41v244q0 10 3 14.5t13 6.5q19 3 29.5 4t16 2t6.5 1h2q15 0 15 -17v-673zM388 357
q-16 29 -48.5 49.5t-69.5 20.5q-68 0 -105 -50.5t-37 -133.5q0 -40 8.5 -74t25.5 -58.5t42 -38.5t58 -14q18 0 36 5t35 14t31.5 21t23.5 26v233z" />
    <glyph glyph-name="e" unicode="e" horiz-adv-x="499" 
d="M466 257q0 -17 -5 -22.5t-25 -5.5h-307q1 -36 11.5 -66.5t30.5 -53.5t49 -36t67 -13q31 0 62.5 5.5t57.5 15.5q7 2 13.5 2t8.5 -9l11 -37q2 -7 -1 -10.5t-10 -7.5q-16 -8 -35.5 -13t-40 -9t-40.5 -5.5t-37 -1.5q-58 0 -102 18t-74 51t-45 79.5t-15 103.5q0 54 16 100
t46.5 79.5t73.5 53t97 19.5q43 0 77 -14.5t59 -40.5q30 -31 43.5 -73.5t13.5 -91.5v-17zM382 287v14q0 25 -7 48.5t-21 40.5t-35.5 27.5t-49.5 10.5q-31 0 -55.5 -11.5t-41.5 -31t-27.5 -45t-13.5 -53.5h251z" />
    <glyph glyph-name="f" unicode="f" horiz-adv-x="351" 
d="M254 721q23 0 47.5 -4.5t43.5 -12.5q11 -4 12 -10.5t-1 -14.5l-7 -31q-3 -10 -10 -10q-3 0 -9 2q-12 5 -30.5 9t-35.5 4q-51 0 -69 -32t-18 -91v-47h123q8 0 11.5 -2t3.5 -10v-34q0 -14 -14 -14h-124v-401q0 -22 -19 -22h-47q-19 0 -19 21v402h-59q-8 0 -10.5 2.5
t-2.5 12.5v31q0 14 14 14h58v19q0 27 1 46.5t3 33.5q9 66 48.5 102.5t109.5 36.5z" />
    <glyph glyph-name="g" unicode="g" horiz-adv-x="540" 
d="M474 26q0 -58 -12.5 -104t-39.5 -77.5t-70 -48t-103 -16.5q-35 0 -72.5 9.5t-69.5 24.5q-12 6 -12 16q0 3 2 9l11 30q5 14 14 14q4 0 10 -3q27 -12 58 -21t57 -9q42 0 69 11t43.5 31.5t23 51t6.5 69.5v46q-24 -27 -64.5 -43t-78.5 -16q-53 0 -92 19t-64.5 52t-37.5 77
t-12 93q0 50 14 96t42 81t68.5 55.5t94.5 20.5q35 0 72.5 -15t59.5 -44l1 31q0 17 20 17h44q18 0 18 -20v-437zM389 357q-17 29 -50 49t-70 20q-38 0 -65 -15.5t-43.5 -40.5t-24 -57.5t-7.5 -66.5q0 -32 6.5 -63.5t22 -57t40.5 -41t62 -15.5q36 0 73 18t56 45v225z" />
    <glyph glyph-name="h" unicode="h" horiz-adv-x="540" 
d="M473 19q0 -19 -16 -19h-52q-17 0 -17 19v282q0 26 -4 48.5t-15 39t-29.5 25.5t-48.5 9q-17 0 -36 -4.5t-37.5 -12.5t-35.5 -18.5t-30 -22.5v-346q0 -19 -17 -19h-52q-16 0 -16 18v665q0 11 5 15t14 6q29 4 39 5.5t12 1.5q15 0 15 -17v-259q33 29 77.5 44t86.5 15
q86 0 121.5 -48.5t35.5 -130.5v-296z" />
    <glyph glyph-name="i" unicode="i" horiz-adv-x="237" 
d="M170 601q0 -22 -16 -35t-36 -13t-35.5 13t-15.5 35t15.5 35t35.5 13t36 -13t16 -35zM161 21q0 -21 -19 -21h-46q-20 0 -20 21v442q0 20 20 20h46q19 0 19 -20v-442z" />
    <glyph glyph-name="j" unicode="j" horiz-adv-x="262" 
d="M196 601q0 -22 -15.5 -35.5t-35.5 -13.5t-35.5 13t-15.5 35t15.5 35.5t35.5 13.5t35.5 -13t15.5 -35zM186 25q0 -66 -11.5 -115t-41.5 -81q-23 -23 -53 -35.5t-80 -12.5q-26 0 -56 6q-8 2 -10 7.5t-1 11.5l6 36q1 7 5.5 9t9.5 1q14 -2 26 -3.5t23 -1.5q46 0 70 30
q17 20 22.5 54t5.5 81v452q0 19 19 19h48q18 0 18 -19v-439z" />
    <glyph glyph-name="k" unicode="k" horiz-adv-x="443" 
d="M355 0q-21 0 -32 17l-149 224l-22 -22v-197q0 -22 -20 -22h-47q-18 0 -18 20v664q0 17 16 20q18 3 28 4.5t15 2t6.5 1t2.5 0.5q17 0 17 -19v-403h2l155 182q10 11 21 11h65q8 0 9 -5t-4 -10l-158 -180l179 -263q7 -10 5.5 -17.5t-16.5 -7.5h-55v0z" />
    <glyph glyph-name="l" unicode="l" horiz-adv-x="219" 
d="M152 21q0 -21 -18 -21h-49q-18 0 -18 20v664q0 11 3 14.5t12 5.5q19 3 30 4t16 2t6.5 1h2.5q15 0 15 -17v-673z" />
    <glyph glyph-name="m" unicode="m" horiz-adv-x="829" 
d="M762 21q0 -21 -19 -21h-46q-20 0 -20 21v281q0 27 -4 49.5t-15 38.5t-30.5 25t-49.5 9q-31 0 -65 -13.5t-60 -33.5q2 -7 3.5 -21t2.5 -29.5t1.5 -31.5t0.5 -28v-246q0 -21 -19 -21h-46q-20 0 -20 21v281q0 26 -3.5 48t-14 38.5t-28.5 26t-48 9.5q-35 0 -69 -17t-61 -42
v-344q0 -21 -19 -21h-47q-19 0 -19 21v442q0 20 19 20h43q20 0 20 -18l1 -31q32 29 71.5 44.5t80.5 15.5q42 0 76 -15t54 -47q35 31 79 46.5t88 15.5q51 0 83 -17t50 -45q16 -25 23 -58t7 -75v-278z" />
    <glyph glyph-name="n" unicode="n" horiz-adv-x="539" 
d="M473 21q0 -21 -19 -21h-47q-19 0 -19 21v280q0 27 -4 49t-15 38.5t-30 25.5t-49 9q-17 0 -36 -4.5t-37 -12.5t-35 -18.5t-30 -22.5v-344q0 -21 -19 -21h-47q-19 0 -19 20v443q0 20 19 20h44q19 0 19 -18l1 -31q35 29 77.5 44.5t86.5 15.5q86 0 122.5 -48.5t36.5 -130.5
v-294z" />
    <glyph glyph-name="o" unicode="o" horiz-adv-x="534" 
d="M495 242q0 -53 -15 -99t-44.5 -80t-72.5 -53.5t-99 -19.5q-58 0 -100.5 19.5t-70 53.5t-40.5 80t-13 100q0 53 15 99t44 79.5t72 53t99 19.5q58 0 100.5 -19t70 -52.5t41 -80t13.5 -100.5zM407 241q0 35 -7 68.5t-23 60t-42.5 42.5t-65.5 16q-41 0 -68 -16t-43 -42.5
t-23 -59t-7 -65.5q0 -35 6.5 -68.5t22 -60.5t42 -43.5t66.5 -16.5q39 0 66.5 16t44 42t24 59t7.5 68z" />
    <glyph glyph-name="p" unicode="p" horiz-adv-x="539" 
d="M500 246q0 -50 -13.5 -96t-40.5 -81.5t-68 -57t-95 -21.5q-37 0 -73 14t-59 42v-242q0 -11 -6 -15t-16 -4h-44q-19 0 -19 21v659q0 11 4.5 14.5t14.5 3.5h38q11 0 17 -3.5t6 -14.5v-35q24 29 65 46.5t84 17.5q53 0 92 -20.5t64 -55t37 -79.5t12 -93zM411 244
q0 33 -6 65.5t-21.5 58.5t-41 42t-64.5 16q-18 0 -36.5 -5t-35.5 -13.5t-31.5 -20.5t-23.5 -25v-235q16 -29 50 -49.5t71 -20.5q39 0 65.5 16.5t43 43.5t23.5 60.5t7 66.5z" />
    <glyph glyph-name="q" unicode="q" horiz-adv-x="539" 
d="M472 -194q0 -11 -3 -16t-13 -5h-50q-10 0 -14.5 3.5t-4.5 14.5v249q-26 -29 -64 -45.5t-80 -16.5q-54 0 -92.5 20.5t-63 55t-36 80t-11.5 95.5q0 51 13.5 96.5t40.5 80.5t68 55.5t95 20.5q36 0 73.5 -14.5t60.5 -43.5l1 31q0 16 20 16h41q19 0 19 -20v-657zM387 354
q-9 15 -22 28t-29 22.5t-34 15.5t-36 6q-39 0 -65.5 -16t-42.5 -41.5t-23 -58.5t-7 -67q0 -32 6 -64.5t21 -58.5t40 -43t63 -17q18 0 37 5.5t36 14.5t31.5 21t24.5 26v227z" />
    <glyph glyph-name="r" unicode="r" horiz-adv-x="314" 
d="M129 483q20 0 20 -18l1 -34q18 25 46.5 44t68.5 19q5 0 13 -0.5t16 -2.5q7 -2 8 -7t0 -10l-7 -45q-1 -10 -11 -10q-6 0 -12 1.5t-20 1.5q-26 0 -53 -16t-47 -44v-341q0 -21 -19 -21h-47q-19 0 -19 21v442q0 20 19 20h43v0z" />
    <glyph glyph-name="s" unicode="s" horiz-adv-x="391" 
d="M362 139q0 -35 -13.5 -62.5t-38 -46.5t-58 -29.5t-73.5 -10.5q-38 0 -75 10.5t-62 21.5q-14 6 -9 19l13 36q5 14 17 9q29 -12 61 -21t58 -9q44 0 70.5 20t26.5 55q0 29 -20 46.5t-55 31.5l-67 26q-45 17 -74 47.5t-29 78.5q0 33 14 58t37 41.5t53.5 25t63.5 8.5
q32 0 64 -6t66 -22q9 -5 9 -10q0 -2 -2 -8l-11 -35q-3 -10 -11 -10q-2 0 -8 2q-20 9 -50.5 16.5t-54.5 7.5q-40 0 -61 -18t-21 -44t15 -40t47 -28l78 -33q42 -17 71 -48t29 -79z" />
    <glyph glyph-name="t" unicode="t" horiz-adv-x="349" 
d="M190 77q18 -20 55 -20q17 0 34 4t29 8q5 2 10.5 0t7.5 -9l8 -32q3 -13 -13 -20q-17 -7 -42 -12.5t-51 -5.5q-32 0 -62 9t-47 28q-22 24 -26.5 55.5t-4.5 78.5v262h-55q-10 0 -12.5 2.5t-2.5 12.5v31q0 14 13 14h57v114q0 11 3.5 14.5t13.5 5.5l49 7h4q15 0 15 -18v-123
h118q7 0 10.5 -2.5t3.5 -10.5v-34q0 -13 -15 -13h-117v-270q0 -25 3 -44t14 -32z" />
    <glyph glyph-name="u" unicode="u" horiz-adv-x="531" 
d="M465 22q0 -22 -20 -22h-43q-19 0 -19 19l-1 31q-71 -60 -158 -60q-43 0 -73 13t-48.5 37t-27 57.5t-8.5 73.5v292q0 20 20 20h45q20 0 20 -20v-279q0 -27 3.5 -49t14 -38t29.5 -25t49 -9q16 0 34.5 5t36 13t33.5 19t28 22v341q0 20 19 20h47q19 0 19 -20v-441z" />
    <glyph glyph-name="v" unicode="v" horiz-adv-x="454" 
d="M423 483q12 0 14.5 -5t-0.5 -13l-166 -449q-7 -16 -23 -16h-44q-18 0 -24 16l-164 449q-3 8 1 13t13 5h55q20 0 24 -14l90 -271l18.5 -56t13.5 -43h1l13 42.5t17 53.5l90 272q5 16 25 16h46v0z" />
    <glyph glyph-name="w" unicode="w" horiz-adv-x="691" 
d="M662 483q8 0 10.5 -6.5t0.5 -13.5l-134 -445q-6 -18 -24 -18h-51q-20 0 -24 18l-96 334h-1l-94 -335q-5 -17 -25 -17h-50q-19 0 -24 18l-133 445q-2 8 0.5 14t13.5 6h53q21 0 24 -14l95 -365h2l104 364q4 15 20 15h41q7 0 11.5 -2t6.5 -10l106 -368h2l94 363q5 17 24 17
h48z" />
    <glyph glyph-name="x" unicode="x" horiz-adv-x="465" 
d="M448 9q0 -9 -11 -9h-72q-11 0 -15.5 3t-9.5 10l-112 177h-1l-116 -177q-9 -13 -26 -13h-59q-9 0 -9 8q0 6 4 11l166 230l-145 216q-3 4 -3 8q0 10 12 10h69q15 0 21 -11l98 -153h1l102 151q8 13 22 13h62q9 0 9 -7q0 -4 -3 -8l-152 -208l164 -240q4 -5 4 -11z" />
    <glyph glyph-name="y" unicode="y" horiz-adv-x="485" 
d="M109 483q15 0 19 -13l130 -374l126 372q5 15 21 15h55q13 0 13 -10q0 -3 -2 -9l-195 -523q-17 -44 -35 -74.5t-42 -49.5t-54.5 -27.5t-70.5 -8.5q-25 0 -45 4q-11 2 -11 15v5l5 38q1 14 15 14h4q8 -1 17.5 -2t17.5 -1q42 0 67.5 17.5t41.5 56.5l26 64l-179 474
q-2 6 0 11.5t10 5.5h66v0z" />
    <glyph glyph-name="z" unicode="z" horiz-adv-x="402" 
d="M380 15q0 -15 -13 -15h-326q-9 0 -13.5 5.5t-4.5 12.5v19q0 9 2 15t8 14l236 356v1h-210q-9 0 -13 3t-4 14v28q0 15 15 15h296q11 0 14.5 -4.5t3.5 -11.5v-20q0 -13 -9 -26l-239 -359v-1h242q15 0 15 -14v-32z" />
    <glyph glyph-name="braceleft" unicode="{" horiz-adv-x="336" 
d="M317 699q0 -4 -1 -6l-7 -29q-3 -13 -14 -13h-48q-21 0 -34.5 -10t-21 -24.5t-10.5 -30t-3 -25.5l-3 -133q-2 -68 -21.5 -103.5t-51.5 -37.5v-1q31 -2 51 -35.5t22 -113.5l3 -127q0 -11 3 -26t10.5 -29t21 -24t34.5 -10h44q14 0 17 -11l7 -29q0 -1 0.5 -2t0.5 -2
q0 -12 -19 -12h-58q-61 0 -99.5 36.5t-40.5 105.5l-3 147q-1 48 -11.5 74.5t-40.5 30.5q-13 2 -15.5 4.5t-2.5 10.5v22q0 9 3 12.5t13 4.5q32 3 42.5 30.5t11.5 67.5l3 154q1 34 12 60.5t30 44.5t44 27.5t54 9.5h64q14 0 14 -8z" />
    <glyph glyph-name="bar" unicode="|" horiz-adv-x="206" 
d="M143 0q0 -20 -19 -20h-40q-21 0 -21 20v691q0 20 16 20h45q10 0 14.5 -3.5t4.5 -14.5v-693z" />
    <glyph glyph-name="braceright" unicode="}" horiz-adv-x="336" 
d="M310 276q0 -9 -2.5 -12.5t-12.5 -4.5q-32 -3 -42.5 -30.5t-11.5 -67.5l-3 -154q-1 -35 -12 -61.5t-30 -44.5t-44.5 -27t-53.5 -9h-65q-13 0 -13 8q0 2 0.5 2.5t0.5 2.5l6 30q3 13 14 13h49q21 0 34 10t20.5 24t10.5 29t3 26l3 134q2 68 22 103.5t52 37.5v1
q-32 2 -52 35.5t-22 113.5l-3 126q0 10 -3 25.5t-10.5 30t-20.5 24.5t-34 10h-45q-13 0 -16 11l-8 30q0 2 -0.5 3t-0.5 2q0 7 6 8.5t13 1.5h59q61 0 99.5 -36.5t40.5 -105.5l3 -147q1 -48 11.5 -74.5t40.5 -30.5q12 -2 14.5 -5.5t2.5 -8.5v-23z" />
    <glyph glyph-name="asciitilde" unicode="~" horiz-adv-x="537" 
d="M473 304q0 -8 -8 -14q-15 -11 -28.5 -22t-28.5 -19.5t-31.5 -14t-35.5 -5.5q-20 0 -37.5 6.5t-34.5 15.5q-19 10 -37.5 18t-39.5 8q-16 0 -39.5 -10.5t-43.5 -21.5q-11 -6 -16 -6q-7 0 -10 7l-17 28q-4 7 -4 11q0 7 14 16q25 16 52.5 31.5t58.5 15.5q20 0 40 -6t41 -16
l38 -17.5t39 -9.5q8 0 18.5 4t21.5 10l21 12t18 10q9 5 15 5t13 -8l16 -17q5 -7 5 -11z" />
    <glyph glyph-name="nonbreakingspace" unicode="&#xa0;" horiz-adv-x="232" 
 />
    <glyph glyph-name="exclamdown" unicode="&#xa1;" horiz-adv-x="257" 
d="M200 439q0 -27 -17.5 -41t-40.5 -14q-22 0 -39.5 14t-17.5 40t18.5 41t38.5 15q21 0 39.5 -14.5t18.5 -40.5zM185 -190q0 -11 -4.5 -14.5t-12.5 -3.5h-55q-11 0 -14 5t-3 13v2l10 509q0 15 17 15h35q10 0 14 -3t4 -12l9 -510v-1z" />
    <glyph glyph-name="cent" unicode="&#xa2;" 
d="M457 33q0 -9 -12 -14q-28 -14 -58.5 -20t-59.5 -8v-68q0 -11 -3 -15.5t-17 -4.5h-14q-13 0 -16 5t-3 16v68q-50 6 -87 26t-62 52.5t-37.5 75.5t-12.5 95q0 50 13.5 92.5t39 75.5t62.5 54t84 28v80q0 17 16 17h20q11 0 14 -3.5t3 -14.5v-76q29 -1 61.5 -9t55.5 -20
q12 -7 12 -14q0 -2 -0.5 -4t-1.5 -5l-10 -30q-2 -5 -4 -8.5t-7 -3.5t-9 3q-21 10 -45.5 16.5t-51.5 7.5v-371q28 1 53.5 7.5t46.5 15.5q6 2 9 2q5 0 6.5 -3l3.5 -7l9 -28q2 -8 2 -10zM274 423q-51 -14 -81 -59.5t-30 -118.5q0 -33 6.5 -63.5t20 -55t34.5 -42t50 -24.5v363z
" />
    <glyph glyph-name="sterling" unicode="&#xa3;" 
d="M501 18q0 -18 -20 -18h-397q-21 0 -21 19v27q0 9 3.5 14.5t14.5 10.5q38 19 54 54.5t16 82.5v35h-51q-11 0 -14 3.5t-3 14.5v20q0 11 3.5 14.5t14.5 3.5h50v47h-52q-11 0 -13.5 3t-2.5 14v22q0 11 3.5 14t14.5 3h50v80q0 48 11.5 88.5t35.5 69.5t61 45t88 16q29 0 62 -5
t64 -19q13 -7 13 -15q0 -1 -0.5 -2t-0.5 -2l-11 -40q-3 -11 -13 -11h-2q-23 8 -51.5 14t-49.5 6q-64 0 -90.5 -39t-26.5 -99v-87h157q17 0 17 -16v-25q0 -11 -3.5 -13t-14.5 -2h-157v-47h159q10 0 13 -3.5t3 -13.5v-23q0 -11 -3.5 -13.5t-14.5 -2.5h-157v-46
q0 -40 -13.5 -71t-39.5 -50v-3h293q21 0 21 -17v-38z" />
    <glyph glyph-name="currency" unicode="&#xa4;" 
d="M195 346q0 -37 19 -62t61 -25t61 25t19 62t-19 62t-61 25t-61 -25t-19 -62zM427 346q0 -40 -17 -72l47 -48q8 -8 8 -14t-8 -14l-22 -22q-8 -8 -14 -7.5t-14 8.5l-44 44q-39 -28 -88 -28t-88 28l-44 -44q-15 -15 -28 -1l-22 22q-8 8 -8 14t8 14l47 48q-17 32 -17 72t17 72
l-47 48q-8 8 -8 14t8 14l22 22q8 8 14 7.5t14 -8.5l44 -44q39 28 88 28t88 -28l44 44q8 8 14 8.5t14 -7.5l22 -22q8 -8 8 -14t-8 -14l-47 -48q17 -32 17 -72z" />
    <glyph glyph-name="yen" unicode="&#xa5;" 
d="M529 678q0 -3 -1 -5.5t-3 -6.5l-181 -347h89q10 0 13 -3.5t3 -12.5v-25q0 -11 -3.5 -13.5t-14.5 -2.5h-104v-46h107q10 0 13 -3.5t3 -13.5v-23q0 -11 -3.5 -14t-14.5 -3h-105v-141q0 -10 -3 -14t-12 -4h-60q-16 0 -16 19v140h-101q-11 0 -14 4t-3 15v20q0 11 3.5 14.5
t14.5 3.5h100v46h-102q-11 0 -13.5 3.5t-2.5 14.5v22q0 11 3.5 14t14.5 3h81l-187 350q-3 6 -3 9q0 11 16 11h58q25 0 33 -17l154 -306h1l149 304q6 12 11 15.5t19 3.5h46q15 0 15 -11z" />
    <glyph glyph-name="brokenbar" unicode="&#xa6;" horiz-adv-x="206" 
d="M143 459q0 -21 -19 -21h-41q-20 0 -20 21v229q0 20 18 20h43q11 0 15 -3.5t4 -14.5v-231zM143 3q0 -20 -19 -20h-41q-20 0 -20 20v230q0 20 18 20h43q11 0 15 -3.5t4 -14.5v-232z" />
    <glyph glyph-name="section" unicode="&#xa7;" horiz-adv-x="465" 
d="M406 344q0 -34 -13.5 -62t-38.5 -48q21 -18 34 -41t13 -54q0 -34 -13.5 -61.5t-37.5 -47t-57.5 -30t-73.5 -10.5q-33 0 -71 8t-67 20q-10 4 -10 12q0 2 0.5 4t1.5 5l11 33q3 11 11 11q4 0 6 -1q26 -11 60 -19t60 -8q42 0 70 20t28 55q0 29 -20 47t-55 32l-68 28
q-45 18 -74 48t-29 78q0 35 17 61.5t44 43.5q-26 18 -41 42.5t-15 57.5t14 58t38 41.5t54.5 25t63.5 8.5q38 0 69.5 -6.5t57.5 -17.5q10 -3 10 -10q0 -4 -1 -6l-12 -38q-3 -10 -10 -10q-2 0 -4.5 1t-5.5 2q-24 9 -51 15t-49 6q-40 0 -63 -18t-23 -44q0 -24 15.5 -40.5
t47.5 -30.5l77 -33q41 -18 70.5 -49t29.5 -78zM326 334q0 29 -21 47.5t-56 32.5l-41 17q-23 -8 -36 -23.5t-13 -35.5q0 -26 16 -42t48 -30l61 -27l4 -2q17 10 27.5 26.5t10.5 36.5z" />
    <glyph glyph-name="dieresis" unicode="&#xa8;" horiz-adv-x="325" 
d="M302 652q0 -23 -16 -35.5t-34 -12.5t-35.5 12.5t-17.5 35.5q0 24 16.5 36.5t36.5 12.5t35 -13t15 -36zM126 652q0 -23 -16.5 -35.5t-34.5 -12.5t-35 12.5t-17 35.5q0 24 16 36.5t36 12.5t35.5 -13t15.5 -36z" />
    <glyph glyph-name="copyright" unicode="&#xa9;" horiz-adv-x="833" 
d="M778 347q0 -75 -28.5 -140t-77 -114t-114.5 -77t-141 -28q-76 0 -142 28t-114.5 77t-76.5 114.5t-28 139.5q0 75 28 140t76.5 113t114.5 76t142 28q75 0 141 -28t115 -76t77 -113t28 -140zM712 346q0 61 -23 115t-62.5 94.5t-93.5 63.5t-116 23t-116 -23t-94 -63.5
t-62.5 -94.5t-22.5 -115q0 -62 22.5 -115.5t62.5 -94t94 -63.5t116 -23t116 23t93.5 63.5t62.5 94t23 115.5zM534 196q0 -5 -10 -10q-45 -22 -98 -22q-41 0 -70.5 14.5t-48.5 39t-28.5 57.5t-9.5 70q0 36 10.5 69t31 58t50.5 40t69 15q53 0 93 -23q8 -5 8 -10q0 -2 -2 -8
l-7 -18q-3 -8 -11 -8q-2 0 -6 2q-35 20 -72 20q-23 0 -43 -10t-34 -27q-16 -20 -23 -45.5t-7 -52.5q0 -28 6.5 -53t19.5 -44t33.5 -30t47.5 -11q18 0 38.5 5t37.5 13q3 2 8 2q3 0 6 -5l10 -22q1 -2 1 -6z" />
    <glyph glyph-name="ordfeminine" unicode="&#xaa;" horiz-adv-x="319" 
d="M274 416q0 -8 -2 -10t-9 -2h-32q-9 0 -10.5 1.5t-2.5 8.5q-1 5 -2 9t-1 6.5v3.5q-22 -17 -43 -26.5t-44 -9.5q-40 0 -65 23q-23 21 -23 61q0 32 16.5 53t42.5 32q26 12 56 16t58 4v12q0 26 -12 41t-44 15q-36 0 -78 -22q-8 -3 -9 -3q-5 0 -8 8l-8 19q-1 2 -1 7
q0 4 2.5 5.5l7.5 4.5q23 14 50.5 21t47.5 7q113 0 113 -112v-173zM212 545q-17 0 -33.5 -1.5t-33.5 -6.5t-29 -17t-12 -34q0 -40 43 -40q17 0 34.5 9t30.5 21v69z" />
    <glyph glyph-name="guillemotleft" unicode="&#xab;" horiz-adv-x="463" 
d="M396 84q0 -6 -9 -12l-23 -14q-6 -3 -9 -3q-6 0 -14 10l-111 149q-6 7 -6 14t6 15l112 145q5 8 13 8q5 0 8 -2l27 -15q6 -3 6 -11q0 -3 -2 -7l-83 -132l82 -136q3 -5 3 -9zM222 367q0 -2 -1 -3t-2 -3l-83 -132l82 -136q2 -3 2 -9t-9 -12l-23 -14q-6 -3 -9 -3q-5 0 -13 10
l-112 149q-5 6 -5 14q0 7 6 15l111 145q5 8 13 8q5 0 8 -2l27 -15q8 -4 8 -12z" />
    <glyph glyph-name="logicalnot" unicode="&#xac;" horiz-adv-x="518" 
d="M467 220q0 -14 -4.5 -19t-16.5 -5h-34q-13 0 -17.5 4.5t-4.5 16.5v125h-318q-14 0 -18 4t-4 14v36q0 17 20 17h373q16 0 20 -4t4 -16v-173z" />
    <glyph glyph-name="uni00AD" unicode="&#xad;" horiz-adv-x="277" 
d="M236 245q0 -12 -4 -17t-16 -5h-153q-14 0 -18 4.5t-4 14.5v41q0 11 4.5 14.5t15.5 3.5h153q14 0 18 -4t4 -16v-36z" />
    <glyph glyph-name="registered" unicode="&#xae;" horiz-adv-x="833" 
d="M778 347q0 -75 -28.5 -140t-77 -114t-114.5 -77t-141 -28q-76 0 -142 28t-114.5 77t-76.5 114.5t-28 139.5q0 75 28 140t76.5 113t114.5 76t142 28q75 0 141 -28t115 -76t77 -113t28 -140zM712 346q0 61 -23 115t-62.5 94.5t-93.5 63.5t-116 23t-116 -23t-94 -63.5
t-62.5 -94.5t-22.5 -115q0 -62 22.5 -115.5t62.5 -94t94 -63.5t116 -23t116 23t93.5 63.5t62.5 94t23 115.5zM546 174q0 -6 -8 -6h-38q-7 0 -9.5 3t-5.5 8l-74 129h-42v-127q0 -6 -1.5 -9.5t-8.5 -3.5h-34q-7 0 -8.5 3t-1.5 10v327q0 8 2 10.5t10 2.5h74q27 0 51 -5
t41.5 -17.5t27.5 -32.5t10 -50q0 -36 -20 -61.5t-49 -36.5l80 -133q4 -6 4 -11zM476 415q0 35 -20.5 48.5t-58.5 13.5h-28v-126h35q32 0 52 16t20 48z" />
    <glyph glyph-name="macron" unicode="&#xaf;" horiz-adv-x="325" 
d="M296 662q0 -13 -5.5 -18.5t-23.5 -5.5h-210q-16 0 -21 6t-5 18v17q0 11 4.5 16.5t21.5 5.5h210q18 0 23.5 -4.5t5.5 -17.5v-17z" />
    <glyph glyph-name="macron" unicode="&#x2c9;" horiz-adv-x="325" 
d="M296 662q0 -13 -5.5 -18.5t-23.5 -5.5h-210q-16 0 -21 6t-5 18v17q0 11 4.5 16.5t21.5 5.5h210q18 0 23.5 -4.5t5.5 -17.5v-17z" />
    <glyph glyph-name="degree" unicode="&#xb0;" horiz-adv-x="286" 
d="M237 608q0 -20 -7.5 -37t-20 -29.5t-30 -20t-36.5 -7.5q-39 0 -66 27.5t-27 66.5t27 66t66 27t66.5 -27t27.5 -66zM184 608q0 17 -12 28.5t-29 11.5t-29 -11.5t-12 -28.5t12 -29t29 -12t29 12t12 29z" />
    <glyph glyph-name="plusminus" unicode="&#xb1;" horiz-adv-x="510" 
d="M468 351q0 -12 -4 -17t-16 -5h-152v-144q0 -14 -4.5 -17.5t-14.5 -3.5h-42q-11 0 -14.5 4t-3.5 15v146h-152q-14 0 -17.5 4.5t-3.5 14.5v37q0 11 4 15t15 4h154v144q0 14 4 18t16 4h37q12 0 17 -4t5 -16v-146h150q14 0 18 -4t4 -16v-33zM431 36q0 -12 -4 -17t-16 -5h-306
q-14 0 -17.5 4.5t-3.5 14.5v41q0 11 4 15t15 4h305q14 0 18.5 -4t4.5 -16v-37z" />
    <glyph glyph-name="twosuperior" unicode="&#xb2;" horiz-adv-x="343" 
d="M303 602q0 -19 -4.5 -36.5t-14.5 -35.5t-25.5 -38t-37.5 -44q-16 -17 -33 -33l-34 -32h130q11 0 14.5 -3.5t3.5 -12.5v-25q0 -16 -17 -16h-205q-17 0 -17 17v21q0 8 2 11.5t7 8.5q24 26 57 57.5t60 64.5q20 25 33 48t13 43q0 24 -15.5 37.5t-39.5 13.5q-17 0 -35.5 -6
t-35.5 -16q-3 -2 -9 -2h-1q-8 0 -12 9l-11 23q-2 4 -2 6q0 6 10 13q23 14 49 22t54 8q23 0 44 -6.5t37 -19.5t25.5 -32.5t9.5 -44.5z" />
    <glyph glyph-name="threesuperior" unicode="&#xb3;" horiz-adv-x="343" 
d="M293 440q0 -27 -10.5 -48.5t-28.5 -37t-41.5 -23.5t-49.5 -8q-8 0 -19 1t-24 3t-25.5 5t-21.5 8q-14 7 -14 15q0 2 2 8l8 23q4 8 12 8q3 0 9 -2q16 -7 33 -11t35 -4q31 0 50 16.5t19 45.5q0 32 -23.5 47t-55.5 15h-14q-9 0 -13.5 5.5t-4.5 12.5v18q0 16 17 16h16
q64 0 64 53q0 23 -14.5 34.5t-40.5 11.5q-14 0 -30.5 -4.5t-30.5 -12.5q-3 -2 -8 -2h-1q-9 0 -12 7l-10 22q-1 2 -1 7q0 7 8 12q41 25 94 25q21 0 41.5 -6t36 -18t25.5 -30t10 -42q0 -25 -13 -46.5t-33 -33.5q26 -12 42.5 -35.5t16.5 -54.5z" />
    <glyph glyph-name="acute" unicode="&#xb4;" horiz-adv-x="325" 
d="M265 646q0 -9 -10 -13l-151 -75q-8 -3 -12 -3q-8 0 -14 9l-12 18q-4 5 -4 10q0 8 9 13l140 90q9 6 14 6q8 0 15 -10l21 -33q4 -5 4 -12z" />
    <glyph glyph-name="mu" unicode="&#xb5;" horiz-adv-x="532" 
d="M466 22q0 -22 -20 -22h-44q-16 0 -18 19l-2 28q-60 -57 -136 -57q-67 0 -95 30v-169q0 -11 -4.5 -15.5t-16.5 -4.5h-42q-21 0 -21 20v612q0 20 19 20h47q19 0 19 -20v-282q0 -33 5.5 -57t19.5 -40q23 -26 73 -26q35 0 69.5 16.5t60.5 40.5v348q0 20 20 20h46q20 0 20 -20
v-441z" />
    <glyph glyph-name="mu" unicode="&#x3bc;" horiz-adv-x="532" 
d="M466 22q0 -22 -20 -22h-44q-16 0 -18 19l-2 28q-60 -57 -136 -57q-67 0 -95 30v-169q0 -11 -4.5 -15.5t-16.5 -4.5h-42q-21 0 -21 20v612q0 20 19 20h47q19 0 19 -20v-282q0 -33 5.5 -57t19.5 -40q23 -26 73 -26q35 0 69.5 16.5t60.5 40.5v348q0 20 20 20h46q20 0 20 -20
v-441z" />
    <glyph glyph-name="paragraph" unicode="&#xb6;" horiz-adv-x="521" 
d="M440 -122q0 -19 -17 -19h-32q-17 0 -17 20v742h-86v-741q0 -21 -19 -21h-45q-19 0 -19 21v486q-34 2 -63 15t-50.5 34.5t-33.5 50t-12 61.5q0 34 13 63.5t35 51.5t51.5 34.5t63.5 12.5h212q11 0 15 -4t4 -15v-792z" />
    <glyph glyph-name="periodcentered" unicode="&#xb7;" horiz-adv-x="216" 
d="M172 288q0 -26 -19 -40.5t-40 -14.5t-40.5 14t-19.5 41t18.5 42t41.5 15t41 -15t18 -42z" />
    <glyph glyph-name="periodcentered" unicode="&#x2219;" horiz-adv-x="216" 
d="M172 288q0 -26 -19 -40.5t-40 -14.5t-40.5 14t-19.5 41t18.5 42t41.5 15t41 -15t18 -42z" />
    <glyph glyph-name="cedilla" unicode="&#xb8;" horiz-adv-x="325" 
d="M267 -122q0 -33 -24.5 -56t-75.5 -23q-20 0 -34.5 3t-30.5 9q-14 6 -14 13q0 3 1 5l5 16q3 9 9 9q4 0 10 -3q12 -5 27 -7t25 -2q17 0 30 8.5t13 27.5q0 33 -52 33h-18q-15 0 -20 6t-5 17v7t1 8l6 51h50l-3 -48h8q36 0 64 -17t28 -57z" />
    <glyph glyph-name="onesuperior" unicode="&#xb9;" horiz-adv-x="343" 
d="M221 352q0 -9 -3 -13.5t-14 -4.5h-30q-11 0 -14 4t-3 14v280l-61 -36q-7 -4 -11 -4q-8 0 -11 7l-13 22q-3 4 -3 8q0 5 3 8.5t7 5.5l93 57q10 6 24 6h20q10 0 13 -4.5t3 -12.5v-337z" />
    <glyph glyph-name="ordmasculine" unicode="&#xba;" horiz-adv-x="350" 
d="M313 547q0 -32 -9 -59.5t-27 -48t-44 -32.5t-60 -12q-35 0 -60.5 12t-42 32.5t-24.5 48.5t-8 60q0 31 9 59t26.5 49t43.5 33t60 12q35 0 61 -12t42.5 -33t24.5 -49t8 -60zM254 547q0 20 -4 39.5t-13 35t-24 25t-37 9.5q-23 0 -38 -9.5t-24 -25t-13 -34.5t-4 -38
q0 -20 3.5 -40t12.5 -35.5t24 -25t37 -9.5t37.5 9t25 24t13.5 34.5t4 40.5z" />
    <glyph glyph-name="guillemotright" unicode="&#xbb;" horiz-adv-x="463" 
d="M414 225q0 -9 -6 -16l-111 -144q-6 -9 -13 -9q-5 0 -8 2l-27 16q-7 3 -7 11q0 3 2 7l84 133l-82 135q-2 2 -2 8q0 8 8 13l22 13q5 4 11 4t14 -11l110 -149q5 -6 5 -13zM239 225q0 -10 -5 -16l-112 -144q-6 -9 -13 -9q-4 0 -7 2l-28 16q-7 3 -7 11q0 5 2 7l84 133l-82 135
q-3 4 -3 9q0 7 9 12l22 13q7 4 11 4q5 0 13 -11l111 -149q5 -6 5 -13z" />
    <glyph glyph-name="onequarter" unicode="&#xbc;" horiz-adv-x="787" 
d="M718 11q0 -16 -14 -16h-35q-8 0 -11.5 3t-3.5 13v66h-165q-11 0 -13.5 5t-2.5 13v13q0 8 1 14t5 14l100 216q2 5 6.5 10t14.5 5h28q18 0 18 -11q0 -3 -4 -11l-96 -212h108v76q0 11 3.5 14.5t11.5 3.5h33q8 0 12 -3t4 -14v-199zM646 709q0 -7 -7 -17l-429 -703
q-6 -9 -10.5 -13t-15.5 -4h-50q-13 0 -13 12q0 2 1 4t3 5l431 705q8 12 14.5 16.5t20.5 4.5h40q15 0 15 -10zM221 352q0 -9 -3 -13.5t-14 -4.5h-30q-11 0 -14 4t-3 14v280l-60 -36q-7 -4 -11 -4q-6 0 -11 7l-14 22q-3 4 -3 8q0 5 3 8.5t7 5.5l93 57q10 6 24 6h20
q10 0 13 -4.5t3 -12.5v-337z" />
    <glyph glyph-name="onehalf" unicode="&#xbd;" horiz-adv-x="787" 
d="M719 11q0 -16 -18 -16h-205q-17 0 -17 17v20q0 8 2.5 12t7.5 9q24 26 57 57.5t60 64.5q20 25 32.5 48t12.5 43q0 24 -15 37t-39 13q-17 0 -35.5 -5.5t-35.5 -15.5q-6 -3 -11 -3q-8 0 -12 9l-2 3.5t-3.5 7.5t-3.5 8t-2 5q-1 2 -1 6q0 5 2.5 7.5t7.5 5.5q23 14 49 21.5
t54 7.5q23 0 44 -6.5t36.5 -19.5t25 -32t9.5 -44q0 -38 -18.5 -72.5t-63.5 -82.5q-16 -17 -33 -33l-34 -32h131q11 0 14.5 -3t3.5 -12v-25zM626 709q0 -8 -6 -17l-429 -703q-6 -9 -10.5 -13t-15.5 -4h-50q-13 0 -13 12q0 3 3 9l432 705q8 12 14.5 16.5t20.5 4.5h39
q15 0 15 -10zM202 352q0 -9 -3 -13.5t-14 -4.5h-30q-11 0 -14 4t-3 14v280l-60 -36q-7 -4 -11 -4q-6 0 -11 7l-14 22q-3 4 -3 8q0 5 3 8.5t7 5.5l93 57q10 6 24 6h20q10 0 13 -4.5t3 -12.5v-337z" />
    <glyph glyph-name="threequarters" unicode="&#xbe;" horiz-adv-x="787" 
d="M727 11q0 -16 -15 -16h-34q-8 0 -11.5 3t-3.5 13v66h-165q-11 0 -14 5t-3 13v13q0 8 1 14t5 14l101 216q2 5 6.5 10t14.5 5h28q17 0 17 -11q0 -5 -3 -11l-96 -212h108v76q0 11 3.5 14.5t11.5 3.5h33q8 0 12 -3t4 -14v-199zM655 709q0 -7 -7 -17l-429 -703
q-6 -9 -10.5 -13t-15.5 -4h-50q-13 0 -13 12q0 2 1 4t3 5l431 705q8 12 14.5 16.5t20.5 4.5h40q15 0 15 -10zM290 440q0 -27 -10.5 -48.5t-28.5 -37t-41.5 -23.5t-49.5 -8q-8 0 -19 1t-24 3t-25.5 5t-21.5 8q-14 7 -14 15q0 2 2 8l8 23q4 8 12 8q3 0 9 -2q16 -7 33 -11
t35 -4q31 0 49.5 16.5t18.5 45.5q0 32 -23 47t-55 15h-15q-9 0 -13 5.5t-4 12.5v18q0 16 17 16h16q63 0 63 53q0 23 -14 34.5t-40 11.5q-14 0 -30.5 -4.5t-30.5 -12.5q-3 -2 -9 -2h-1q-8 0 -11 7l-10 22q-1 2 -1 7q0 7 8 12q41 25 94 25q21 0 41 -6t36 -18t25.5 -30t9.5 -42
q0 -25 -13 -46.5t-33 -33.5q26 -12 43 -35.5t17 -54.5z" />
    <glyph glyph-name="questiondown" unicode="&#xbf;" horiz-adv-x="421" 
d="M379 -173q0 -8 -7 -12q-35 -18 -71 -26.5t-71 -8.5t-67 11t-56 31.5t-38.5 50t-14.5 66.5q0 38 16.5 74.5t44.5 66.5l73 79q17 19 29.5 38.5t16.5 54.5q1 7 1 14.5v15.5v5q0 18 12 18h41q12 0 14 -11q2 -8 2.5 -18t1.5 -21v-12q0 -18 -3 -36q-5 -23 -15 -41t-24 -32
l-73 -76q-8 -8 -17 -19.5t-17.5 -25t-14 -29.5t-5.5 -33q0 -30 10 -49.5t25.5 -31.5t35.5 -17t40 -5q21 0 47 6.5t51 18.5q5 3 11 1.5t8 -8.5l12 -31q2 -6 2 -8zM321 439q0 -27 -17.5 -41t-40.5 -14q-22 0 -40 14t-18 40t19 41t39 15q21 0 39.5 -14.5t18.5 -40.5z" />
    <glyph glyph-name="Agrave" unicode="&#xc0;" horiz-adv-x="608" 
d="M522 0q-13 0 -18 3.5t-9 14.5l-66 186h-259l-69 -187q-4 -10 -8 -13.5t-15 -3.5h-59q-11 0 -11 6.5t2 13.5l251 655q5 14 18 14h53q13 0 18 -12l247 -656q3 -8 1.5 -14.5t-14.5 -6.5h-62zM405 273l-80 229l-14.5 43t-8.5 28h-1l-9.5 -28.5l-15.5 -44.5l-82 -227h211z
M201 849q0 7 4 12l21 33q7 10 15 10q5 0 14 -6l140 -90q9 -5 9 -13q0 -5 -4 -10l-12 -18q-6 -9 -14 -9q-5 0 -12 3l-151 75q-10 4 -10 13z" />
    <glyph glyph-name="Aacute" unicode="&#xc1;" horiz-adv-x="608" 
d="M522 0q-13 0 -18 3.5t-9 14.5l-66 186h-259l-69 -187q-4 -10 -8 -13.5t-15 -3.5h-59q-11 0 -11 6.5t2 13.5l251 655q5 14 18 14h53q13 0 18 -12l247 -656q3 -8 1.5 -14.5t-14.5 -6.5h-62zM405 273l-80 229l-14.5 43t-8.5 28h-1l-9.5 -28.5l-15.5 -44.5l-82 -227h211z
M404 849q0 -9 -10 -13l-151 -75q-8 -3 -12 -3q-8 0 -14 9l-12 18q-4 5 -4 10q0 8 9 13l140 90q9 6 14 6q8 0 15 -10l21 -33q4 -5 4 -12z" />
    <glyph glyph-name="Acircumflex" unicode="&#xc2;" horiz-adv-x="608" 
d="M522 0q-13 0 -18 3.5t-9 14.5l-66 186h-259l-69 -187q-4 -10 -8 -13.5t-15 -3.5h-59q-11 0 -11 6.5t2 13.5l251 655q5 14 18 14h53q13 0 18 -12l247 -656q3 -8 1.5 -14.5t-14.5 -6.5h-62zM405 273l-80 229l-14.5 43t-8.5 28h-1l-9.5 -28.5l-15.5 -44.5l-82 -227h211z
M446 782q0 -7 -5 -12l-13 -13q-6 -6 -11 -6t-12 5l-102 79l-94 -73q-10 -8 -17 -8q-6 0 -13 7l-12 13q-5 7 -5 10q0 5 6 11l108 98q10 8 20 8h14q11 0 19 -7l111 -100q6 -6 6 -12z" />
    <glyph glyph-name="Atilde" unicode="&#xc3;" horiz-adv-x="608" 
d="M522 0q-13 0 -18 3.5t-9 14.5l-66 186h-259l-69 -187q-4 -10 -8 -13.5t-15 -3.5h-59q-11 0 -11 6.5t2 13.5l251 655q5 14 18 14h53q13 0 18 -12l247 -656q3 -8 1.5 -14.5t-14.5 -6.5h-62zM405 273l-80 229l-14.5 43t-8.5 28h-1l-9.5 -28.5l-15.5 -44.5l-82 -227h211z
M464 827q0 -8 -8 -14q-23 -17 -49 -30.5t-55 -13.5q-15 0 -28 6t-26 13.5t-25.5 14t-25.5 6.5t-29.5 -6.5t-35.5 -17.5q-11 -6 -16 -6q-8 0 -12 10l-9 23q-2 4 -3 6.5t-1 4.5q0 7 14 16q20 13 44 22.5t47 9.5q15 0 30.5 -6t29.5 -13l27 -13t24 -6t28.5 8.5t33.5 18.5
q9 5 15 5q8 0 14 -9l11 -17q5 -8 5 -12z" />
    <glyph glyph-name="Adieresis" unicode="&#xc4;" horiz-adv-x="608" 
d="M522 0q-13 0 -18 3.5t-9 14.5l-66 186h-259l-69 -187q-4 -10 -8 -13.5t-15 -3.5h-59q-11 0 -11 6.5t2 13.5l251 655q5 14 18 14h53q13 0 18 -12l247 -656q3 -8 1.5 -14.5t-14.5 -6.5h-62zM405 273l-80 229l-14.5 43t-8.5 28h-1l-9.5 -28.5l-15.5 -44.5l-82 -227h211z
M443 817q0 -23 -16 -35.5t-34 -12.5t-35.5 12.5t-17.5 35.5q0 24 16.5 36.5t36.5 12.5t35 -13t15 -36zM267 817q0 -23 -16.5 -35.5t-34.5 -12.5t-35 12.5t-17 35.5q0 24 16 36.5t36 12.5t35.5 -13t15.5 -36z" />
    <glyph glyph-name="Aring" unicode="&#xc5;" horiz-adv-x="608" 
d="M522 0q-13 0 -18 3.5t-9 14.5l-66 186h-259l-69 -187q-4 -10 -8 -13.5t-15 -3.5h-59q-11 0 -11 6.5t2 13.5l251 655q5 14 18 14h53q13 0 18 -12l247 -656q3 -8 1.5 -14.5t-14.5 -6.5h-62zM405 273l-80 229l-14.5 43t-8.5 28h-1l-9.5 -28.5l-15.5 -44.5l-82 -227h211z
M384 821q0 -33 -23.5 -56.5t-56.5 -23.5t-57 23.5t-24 56.5t24 56.5t57 23.5t56.5 -23.5t23.5 -56.5zM334 821q0 13 -8.5 21.5t-21.5 8.5t-22 -8.5t-9 -21.5t9 -21.5t22 -8.5t21.5 8.5t8.5 21.5z" />
    <glyph glyph-name="AE" unicode="&#xc6;" horiz-adv-x="880" 
d="M836 18q0 -18 -20 -18h-330q-13 0 -25.5 3t-12.5 18v184h-224l-121 -188q-5 -8 -8.5 -12.5t-14.5 -4.5h-60q-10 0 -10 9q0 6 3 11l419 652q11 17 30 17h356q17 0 17 -14v-3l-5 -40q-2 -11 -8 -13.5t-19 -2.5h-264v-219h236q21 0 21 -18v-36q0 -11 -4.5 -14.5t-15.5 -3.5
h-237v-252h277q20 0 20 -17v-38zM448 274v292l-185 -292h185z" />
    <glyph glyph-name="Ccedilla" unicode="&#xc7;" horiz-adv-x="587" 
d="M443 -122q0 -33 -24.5 -56t-75.5 -23q-20 0 -34.5 3t-30.5 9q-14 6 -14 13q0 3 1 5l5 16q3 9 9 9q4 0 10 -3q12 -5 27 -7t25 -2q17 0 30 8.5t13 27.5q0 33 -52 33h-18q-15 0 -20 6t-5 17v7t1 8l5 46q-63 10 -109 41.5t-76 78t-45 105t-15 124.5q0 72 21 136.5t61 113.5
t98.5 78t133.5 29q50 0 95.5 -11t87.5 -34q6 -4 9 -6.5t3 -7.5t-3 -12l-16 -37q-4 -10 -12 -10q-5 0 -9 3q-70 40 -149 40q-48 0 -89 -20t-70 -56q-33 -41 -47.5 -93t-14.5 -108t13 -107.5t40 -91t69 -63t99 -23.5q37 0 79 9.5t77 27.5q15 8 22 -9l13 -31q10 -19 -11 -28
q-92 -43 -193 -43q-3 0 -6 0.5t-6 0.5l-2 -39h8q36 0 64 -17t28 -57z" />
    <glyph glyph-name="Egrave" unicode="&#xc8;" horiz-adv-x="510" 
d="M466 18q0 -18 -20 -18h-349q-13 0 -17 4t-4 17v648q0 20 19 20h352q11 0 14 -5t2 -14l-4 -38q-1 -11 -7.5 -13.5t-19.5 -2.5h-263v-219h235q20 0 20 -18v-36q0 -11 -4 -14.5t-15 -3.5h-236v-252h276q21 0 21 -17v-38zM152 849q0 7 4 12l21 33q7 10 15 10q5 0 14 -6
l140 -90q9 -5 9 -13q0 -5 -4 -10l-12 -18q-6 -9 -14 -9q-5 0 -12 3l-151 75q-10 4 -10 13z" />
    <glyph glyph-name="Eacute" unicode="&#xc9;" horiz-adv-x="510" 
d="M466 18q0 -18 -20 -18h-349q-13 0 -17 4t-4 17v648q0 20 19 20h352q11 0 14 -5t2 -14l-4 -38q-1 -11 -7.5 -13.5t-19.5 -2.5h-263v-219h235q20 0 20 -18v-36q0 -11 -4 -14.5t-15 -3.5h-236v-252h276q21 0 21 -17v-38zM378 847q0 -9 -10 -13l-151 -75q-8 -3 -12 -3
q-8 0 -14 9l-12 18q-4 5 -4 10q0 8 9 13l140 90q9 6 14 6q8 0 15 -10l21 -33q4 -5 4 -12z" />
    <glyph glyph-name="Ecircumflex" unicode="&#xca;" horiz-adv-x="510" 
d="M466 18q0 -18 -20 -18h-349q-13 0 -17 4t-4 17v648q0 20 19 20h352q11 0 14 -5t2 -14l-4 -38q-1 -11 -7.5 -13.5t-19.5 -2.5h-263v-219h235q20 0 20 -18v-36q0 -11 -4 -14.5t-15 -3.5h-236v-252h276q21 0 21 -17v-38zM407 782q0 -7 -5 -12l-13 -13q-6 -6 -11 -6t-12 5
l-102 79l-94 -73q-10 -8 -17 -8q-6 0 -13 7l-12 13q-5 7 -5 10q0 5 6 11l108 98q10 8 20 8h14q11 0 19 -7l111 -100q6 -6 6 -12z" />
    <glyph glyph-name="Edieresis" unicode="&#xcb;" horiz-adv-x="510" 
d="M466 18q0 -18 -20 -18h-349q-13 0 -17 4t-4 17v648q0 20 19 20h352q11 0 14 -5t2 -14l-4 -38q-1 -11 -7.5 -13.5t-19.5 -2.5h-263v-219h235q20 0 20 -18v-36q0 -11 -4 -14.5t-15 -3.5h-236v-252h276q21 0 21 -17v-38zM404 816q0 -23 -16 -35.5t-34 -12.5t-35.5 12.5
t-17.5 35.5q0 24 16.5 36.5t36.5 12.5t35 -13t15 -36zM228 816q0 -23 -16.5 -35.5t-34.5 -12.5t-35 12.5t-17 35.5q0 24 16 36.5t36 12.5t35.5 -13t15.5 -36z" />
    <glyph glyph-name="Igrave" unicode="&#xcc;" horiz-adv-x="371" 
d="M307 643q0 -11 -3.5 -13.5t-13.5 -2.5h-61v-564h60q17 0 17 -15v-32q0 -16 -14 -16h-213q-15 0 -15 15v34q0 8 3 11t12 3h60v564h-64q-15 0 -15 14v33q0 15 14 15h216q17 0 17 -14v-32zM83 849q0 7 4 12l21 33q7 10 15 10q5 0 14 -6l140 -90q9 -5 9 -13q0 -5 -4 -10
l-12 -18q-6 -9 -14 -9q-5 0 -12 3l-151 75q-10 4 -10 13z" />
    <glyph glyph-name="Iacute" unicode="&#xcd;" horiz-adv-x="371" 
d="M307 643q0 -11 -3.5 -13.5t-13.5 -2.5h-61v-564h60q17 0 17 -15v-32q0 -16 -14 -16h-213q-15 0 -15 15v34q0 8 3 11t12 3h60v564h-64q-15 0 -15 14v33q0 15 14 15h216q17 0 17 -14v-32zM288 846q0 -9 -10 -13l-151 -75q-8 -3 -12 -3q-8 0 -14 9l-12 18q-4 5 -4 10
q0 8 9 13l140 90q9 6 14 6q8 0 15 -10l21 -33q4 -5 4 -12z" />
    <glyph glyph-name="Icircumflex" unicode="&#xce;" horiz-adv-x="371" 
d="M307 643q0 -11 -3.5 -13.5t-13.5 -2.5h-61v-564h60q17 0 17 -15v-32q0 -16 -14 -16h-213q-15 0 -15 15v34q0 8 3 11t12 3h60v564h-64q-15 0 -15 14v33q0 15 14 15h216q17 0 17 -14v-32zM327 782q0 -7 -5 -12l-13 -13q-6 -6 -11 -6t-12 5l-102 79l-94 -73q-10 -8 -17 -8
q-6 0 -13 7l-12 13q-5 7 -5 10q0 5 6 11l108 98q10 8 20 8h14q11 0 19 -7l111 -100q6 -6 6 -12z" />
    <glyph glyph-name="Idieresis" unicode="&#xcf;" horiz-adv-x="371" 
d="M307 643q0 -11 -3.5 -13.5t-13.5 -2.5h-61v-564h60q17 0 17 -15v-32q0 -16 -14 -16h-213q-15 0 -15 15v34q0 8 3 11t12 3h60v564h-64q-15 0 -15 14v33q0 15 14 15h216q17 0 17 -14v-32zM321 817q0 -23 -16 -35.5t-34 -12.5t-35.5 12.5t-17.5 35.5q0 24 16.5 36.5
t36.5 12.5t35 -13t15 -36zM145 817q0 -23 -16.5 -35.5t-34.5 -12.5t-35 12.5t-17 35.5q0 24 16 36.5t36 12.5t35.5 -13t15.5 -36z" />
    <glyph glyph-name="Eth" unicode="&#xd0;" horiz-adv-x="683" 
d="M637 341q0 -86 -26.5 -154.5t-76.5 -113.5q-43 -39 -107 -56t-139 -17h-174q-14 0 -19.5 5t-5.5 19v278h-67q-14 0 -18 4.5t-4 14.5v37q0 11 4.5 14.5t15.5 3.5h69v285q0 15 6 21.5t23 6.5h126q48 0 85 -2.5t67 -8t55 -15t49 -24.5q64 -40 100.5 -116t36.5 -182zM538 342
q0 72 -21.5 131t-63.5 93q-35 29 -80 38.5t-96 9.5h-95v-238h123q14 0 18 -4t4 -16v-32q0 -12 -4 -17t-16 -5h-125v-228h86q66 0 114 10.5t83 45.5q73 75 73 212z" />
    <glyph glyph-name="Ntilde" unicode="&#xd1;" horiz-adv-x="695" 
d="M619 21q0 -13 -4 -17t-13 -4h-46q-16 0 -30 19l-361 506h-2v-504q0 -21 -20 -21h-46q-20 0 -20 21v647q0 21 20 21h40q9 0 14.5 -3t11.5 -12l368 -517h2v511q0 12 4.5 16.5t14.5 4.5h48q11 0 15 -5t4 -16v-647zM508 826q0 -8 -8 -14q-23 -17 -49 -30.5t-55 -13.5
q-15 0 -28 6t-26 13.5t-25.5 14t-25.5 6.5t-29.5 -6.5t-35.5 -17.5q-11 -6 -16 -6q-8 0 -12 10l-9 23q-2 4 -3 6.5t-1 4.5q0 7 14 16q20 13 44 22.5t47 9.5q15 0 30.5 -6t29.5 -13l27 -13t24 -6t28.5 8.5t33.5 18.5q9 5 15 5q8 0 14 -9l11 -17q5 -8 5 -12z" />
    <glyph glyph-name="Ograve" unicode="&#xd2;" horiz-adv-x="676" 
d="M632 349q0 -85 -22.5 -152t-62 -113t-93 -70t-116.5 -24q-67 0 -120 24.5t-89.5 70t-55.5 110.5t-19 147q0 81 21.5 147.5t60 113.5t92.5 72.5t119 25.5q69 0 122 -26t89.5 -72.5t55 -111t18.5 -142.5zM533 346q0 133 -48 205.5t-140 72.5q-43 0 -78.5 -20.5t-61 -57
t-39.5 -88t-14 -113.5q0 -132 49.5 -205.5t140.5 -73.5q42 0 77.5 19.5t60.5 56t39 88t14 116.5zM235 849q0 7 4 12l21 33q7 10 15 10q5 0 14 -6l140 -90q9 -5 9 -13q0 -5 -4 -10l-12 -18q-6 -9 -14 -9q-5 0 -12 3l-151 75q-10 4 -10 13z" />
    <glyph glyph-name="Oacute" unicode="&#xd3;" horiz-adv-x="676" 
d="M632 349q0 -85 -22.5 -152t-62 -113t-93 -70t-116.5 -24q-67 0 -120 24.5t-89.5 70t-55.5 110.5t-19 147q0 81 21.5 147.5t60 113.5t92.5 72.5t119 25.5q69 0 122 -26t89.5 -72.5t55 -111t18.5 -142.5zM533 346q0 133 -48 205.5t-140 72.5q-43 0 -78.5 -20.5t-61 -57
t-39.5 -88t-14 -113.5q0 -132 49.5 -205.5t140.5 -73.5q42 0 77.5 19.5t60.5 56t39 88t14 116.5zM440 846q0 -9 -10 -13l-151 -75q-8 -3 -12 -3q-8 0 -14 9l-12 18q-4 5 -4 10q0 8 9 13l140 90q9 6 14 6q8 0 15 -10l21 -33q4 -5 4 -12z" />
    <glyph glyph-name="Ocircumflex" unicode="&#xd4;" horiz-adv-x="676" 
d="M632 349q0 -85 -22.5 -152t-62 -113t-93 -70t-116.5 -24q-67 0 -120 24.5t-89.5 70t-55.5 110.5t-19 147q0 81 21.5 147.5t60 113.5t92.5 72.5t119 25.5q69 0 122 -26t89.5 -72.5t55 -111t18.5 -142.5zM533 346q0 133 -48 205.5t-140 72.5q-43 0 -78.5 -20.5t-61 -57
t-39.5 -88t-14 -113.5q0 -132 49.5 -205.5t140.5 -73.5q42 0 77.5 19.5t60.5 56t39 88t14 116.5zM480 782q0 -7 -5 -12l-13 -13q-6 -6 -11 -6t-12 5l-102 79l-94 -73q-10 -8 -17 -8q-6 0 -13 7l-12 13q-5 7 -5 10q0 5 6 11l108 98q10 8 20 8h14q11 0 19 -7l111 -100
q6 -6 6 -12z" />
    <glyph glyph-name="Otilde" unicode="&#xd5;" horiz-adv-x="676" 
d="M632 349q0 -85 -22.5 -152t-62 -113t-93 -70t-116.5 -24q-67 0 -120 24.5t-89.5 70t-55.5 110.5t-19 147q0 81 21.5 147.5t60 113.5t92.5 72.5t119 25.5q69 0 122 -26t89.5 -72.5t55 -111t18.5 -142.5zM533 346q0 133 -48 205.5t-140 72.5q-43 0 -78.5 -20.5t-61 -57
t-39.5 -88t-14 -113.5q0 -132 49.5 -205.5t140.5 -73.5q42 0 77.5 19.5t60.5 56t39 88t14 116.5zM498 826q0 -8 -8 -14q-23 -17 -49 -30.5t-55 -13.5q-15 0 -28 6t-26 13.5t-25.5 14t-25.5 6.5t-29.5 -6.5t-35.5 -17.5q-11 -6 -16 -6q-8 0 -12 10l-9 23q-2 4 -3 6.5t-1 4.5
q0 7 14 16q20 13 44 22.5t47 9.5q15 0 30.5 -6t29.5 -13l27 -13t24 -6t28.5 8.5t33.5 18.5q9 5 15 5q8 0 14 -9l11 -17q5 -8 5 -12z" />
    <glyph glyph-name="Odieresis" unicode="&#xd6;" horiz-adv-x="676" 
d="M632 349q0 -85 -22.5 -152t-62 -113t-93 -70t-116.5 -24q-67 0 -120 24.5t-89.5 70t-55.5 110.5t-19 147q0 81 21.5 147.5t60 113.5t92.5 72.5t119 25.5q69 0 122 -26t89.5 -72.5t55 -111t18.5 -142.5zM533 346q0 133 -48 205.5t-140 72.5q-43 0 -78.5 -20.5t-61 -57
t-39.5 -88t-14 -113.5q0 -132 49.5 -205.5t140.5 -73.5q42 0 77.5 19.5t60.5 56t39 88t14 116.5zM482 817q0 -23 -16 -35.5t-34 -12.5t-35.5 12.5t-17.5 35.5q0 24 16.5 36.5t36.5 12.5t35 -13t15 -36zM306 817q0 -23 -16.5 -35.5t-34.5 -12.5t-35 12.5t-17 35.5
q0 24 16 36.5t36 12.5t35.5 -13t15.5 -36z" />
    <glyph glyph-name="multiply" unicode="&#xd7;" horiz-adv-x="510" 
d="M428 140q0 -4 -2 -6.5l-5 -6.5l-29 -30q-7 -7 -14 -7q-5 0 -13 8l-110 110l-108 -107q-9 -9 -15 -9q-7 0 -14 7l-26 26q-7 7 -7 13t8 14l109 109l-109 109q-10 10 -10 16q0 5 8 13l26 27q9 9 16 9q6 0 14 -8l111 -110l106 106q10 10 15 10q6 0 15 -9l23 -23q6 -6 6 -14
q0 -11 -4 -15l-109 -109l109 -108q9 -9 9 -15z" />
    <glyph glyph-name="Oslash" unicode="&#xd8;" horiz-adv-x="680" 
d="M631 349q0 -85 -22.5 -152t-61.5 -113t-92.5 -70t-116.5 -24q-94 0 -158 45l-40 -61q-11 -17 -18 -17q-2 0 -5 2t-7 4l-21 13q-12 7 -12 14q0 5 4 10l52 79q-80 92 -80 263q0 81 21.5 147.5t60.5 113t93 72t119 25.5q94 0 160 -49l45 67l9 12t7 4q5 0 8 -2l25 -17
q12 -8 12 -14q0 -5 -3 -9l-56 -86q77 -94 77 -257zM460 580q-47 47 -116 47q-43 0 -78.5 -21t-60.5 -58.5t-39 -89t-14 -113.5q0 -56 9.5 -101.5t29.5 -79.5zM533 346q0 108 -35 178l-270 -418q46 -43 113 -43q42 0 77.5 20t61 57t39.5 89t14 117z" />
    <glyph glyph-name="Ugrave" unicode="&#xd9;" horiz-adv-x="697" 
d="M624 301q0 -69 -15 -126t-48 -98t-85 -64t-126 -23q-81 0 -134.5 22t-84.5 63.5t-43.5 100t-12.5 131.5v362q0 20 19 20h55q19 0 19 -20v-353q0 -50 5 -95t24 -79t55.5 -54t98.5 -20q60 0 95.5 21t54.5 55.5t24.5 79.5t5.5 93v352q0 20 20 20h54q19 0 19 -20v-368z
M246 849q0 7 4 12l21 33q7 10 15 10q5 0 14 -6l140 -90q9 -5 9 -13q0 -5 -4 -10l-12 -18q-6 -9 -14 -9q-5 0 -12 3l-151 75q-10 4 -10 13z" />
    <glyph glyph-name="Uacute" unicode="&#xda;" horiz-adv-x="697" 
d="M624 301q0 -69 -15 -126t-48 -98t-85 -64t-126 -23q-81 0 -134.5 22t-84.5 63.5t-43.5 100t-12.5 131.5v362q0 20 19 20h55q19 0 19 -20v-353q0 -50 5 -95t24 -79t55.5 -54t98.5 -20q60 0 95.5 21t54.5 55.5t24.5 79.5t5.5 93v352q0 20 20 20h54q19 0 19 -20v-368z
M451 846q0 -9 -10 -13l-151 -75q-8 -3 -12 -3q-8 0 -14 9l-12 18q-4 5 -4 10q0 8 9 13l140 90q9 6 14 6q8 0 15 -10l21 -33q4 -5 4 -12z" />
    <glyph glyph-name="Ucircumflex" unicode="&#xdb;" horiz-adv-x="697" 
d="M624 301q0 -69 -15 -126t-48 -98t-85 -64t-126 -23q-81 0 -134.5 22t-84.5 63.5t-43.5 100t-12.5 131.5v362q0 20 19 20h55q19 0 19 -20v-353q0 -50 5 -95t24 -79t55.5 -54t98.5 -20q60 0 95.5 21t54.5 55.5t24.5 79.5t5.5 93v352q0 20 20 20h54q19 0 19 -20v-368z
M490 782q0 -7 -5 -12l-13 -13q-6 -6 -11 -6t-12 5l-102 79l-94 -73q-10 -8 -17 -8q-6 0 -13 7l-12 13q-5 7 -5 10q0 5 6 11l108 98q10 8 20 8h14q11 0 19 -7l111 -100q6 -6 6 -12z" />
    <glyph glyph-name="Udieresis" unicode="&#xdc;" horiz-adv-x="697" 
d="M624 301q0 -69 -15 -126t-48 -98t-85 -64t-126 -23q-81 0 -134.5 22t-84.5 63.5t-43.5 100t-12.5 131.5v362q0 20 19 20h55q19 0 19 -20v-353q0 -50 5 -95t24 -79t55.5 -54t98.5 -20q60 0 95.5 21t54.5 55.5t24.5 79.5t5.5 93v352q0 20 20 20h54q19 0 19 -20v-368z
M488 817q0 -23 -16 -35.5t-34 -12.5t-35.5 12.5t-17.5 35.5q0 24 16.5 36.5t36.5 12.5t35 -13t15 -36zM312 817q0 -23 -16.5 -35.5t-34.5 -12.5t-35 12.5t-17 35.5q0 24 16 36.5t36 12.5t35.5 -13t15.5 -36z" />
    <glyph glyph-name="Yacute" unicode="&#xdd;" 
d="M533 679q0 -6 -4 -13l-202 -394v-254q0 -18 -17 -18h-59q-17 0 -17 19v251l-214 399q-3 6 -3 10q0 10 15 10h56q25 0 33 -17l164 -324h1l158 321q6 12 11.5 16t19.5 4h42q16 0 16 -10zM377 849q0 -9 -10 -13l-151 -75q-8 -3 -12 -3q-8 0 -14 9l-12 18q-4 5 -4 10
q0 8 9 13l140 90q9 6 14 6q8 0 15 -10l21 -33q4 -5 4 -12z" />
    <glyph glyph-name="Thorn" unicode="&#xde;" horiz-adv-x="532" 
d="M492 355q0 -50 -14 -91.5t-41 -72.5t-67 -48t-91 -17q-39 0 -75 13t-59 39v-158q0 -20 -22 -20h-44q-19 0 -19 21v647q0 11 3 15t15 6q17 2 26.5 3.5t14 2t6 0.5h2.5q16 0 16 -19v-155q24 26 64 42.5t82 16.5q44 0 81.5 -13.5t64.5 -41.5t42 -70t15 -100zM404 353
q0 83 -36 121t-95 38q-38 0 -73.5 -17.5t-54.5 -43.5v-192q17 -28 51.5 -47t71.5 -19q69 0 102.5 41t33.5 119z" />
    <glyph glyph-name="germandbls" unicode="&#xdf;" horiz-adv-x="565" 
d="M526 205q0 -56 -19.5 -96t-52 -66t-74 -38.5t-85.5 -12.5h-6h-22.5t-17.5 1q-15 2 -19 5.5t-4 14.5v26q0 13 4 16.5t15 3.5t22 -0.5t22 -0.5q39 0 67.5 12t46.5 32.5t26.5 47.5t8.5 57q0 36 -14 62.5t-36.5 43t-51 24.5t-56.5 8h-33q-14 0 -17.5 2t-3.5 11v36q0 9 3 12
t13 3h15q24 0 48 8.5t42.5 24.5t30.5 40t12 55q0 60 -32 89t-90 29q-51 0 -82.5 -34.5t-31.5 -104.5v-589q0 -21 -19 -21h-47q-19 0 -19 21v489q0 30 0.5 60.5t2.5 56.5q8 94 60.5 141t140.5 47q41 0 78 -10t65.5 -31t45 -54.5t16.5 -79.5q0 -26 -8 -51t-23 -46.5
t-36.5 -37.5t-48.5 -23v-1q35 -4 65 -19t52 -39t34.5 -55.5t12.5 -68.5z" />
    <glyph glyph-name="agrave" unicode="&#xe0;" horiz-adv-x="538" 
d="M509 13q0 -13 -15 -13h-42q-33 0 -49 22t-16 52h-2q-9 -17 -25 -32t-36 -26.5t-43 -18.5t-46 -7q-52 0 -89.5 20t-62 54t-36 78t-11.5 91q0 63 17 111.5t46.5 81.5t68 50.5t81.5 17.5q38 0 74.5 -15.5t59.5 -45.5l1 33q0 17 19 17h45q18 0 18 -19v-350q0 -17 1 -28.5
t4 -16.5q5 -9 17 -9h7q7 0 10.5 -2.5t3.5 -10.5v-34zM381 354q-18 34 -51.5 53t-69.5 19q-58 0 -96.5 -48.5t-38.5 -138.5q0 -83 34.5 -130.5t88.5 -47.5q24 0 45 8.5t38.5 23t30 32.5t19.5 37v192zM156 649q0 7 4 12l21 33q7 10 15 10q5 0 14 -6l140 -90q9 -5 9 -13
q0 -5 -4 -10l-12 -18q-6 -9 -14 -9q-5 0 -12 3l-151 75q-10 4 -10 13z" />
    <glyph glyph-name="aacute" unicode="&#xe1;" horiz-adv-x="538" 
d="M509 13q0 -13 -15 -13h-42q-33 0 -49 22t-16 52h-2q-9 -17 -25 -32t-36 -26.5t-43 -18.5t-46 -7q-52 0 -89.5 20t-62 54t-36 78t-11.5 91q0 63 17 111.5t46.5 81.5t68 50.5t81.5 17.5q38 0 74.5 -15.5t59.5 -45.5l1 33q0 17 19 17h45q18 0 18 -19v-350q0 -17 1 -28.5
t4 -16.5q5 -9 17 -9h7q7 0 10.5 -2.5t3.5 -10.5v-34zM381 354q-18 34 -51.5 53t-69.5 19q-58 0 -96.5 -48.5t-38.5 -138.5q0 -83 34.5 -130.5t88.5 -47.5q24 0 45 8.5t38.5 23t30 32.5t19.5 37v192zM382 649q0 -9 -10 -13l-151 -75q-8 -3 -12 -3q-8 0 -14 9l-12 18
q-4 5 -4 10q0 8 9 13l140 90q9 6 14 6q8 0 15 -10l21 -33q4 -5 4 -12z" />
    <glyph glyph-name="acircumflex" unicode="&#xe2;" horiz-adv-x="538" 
d="M509 13q0 -13 -15 -13h-42q-33 0 -49 22t-16 52h-2q-9 -17 -25 -32t-36 -26.5t-43 -18.5t-46 -7q-52 0 -89.5 20t-62 54t-36 78t-11.5 91q0 63 17 111.5t46.5 81.5t68 50.5t81.5 17.5q38 0 74.5 -15.5t59.5 -45.5l1 33q0 17 19 17h45q18 0 18 -19v-350q0 -17 1 -28.5
t4 -16.5q5 -9 17 -9h7q7 0 10.5 -2.5t3.5 -10.5v-34zM381 354q-18 34 -51.5 53t-69.5 19q-58 0 -96.5 -48.5t-38.5 -138.5q0 -83 34.5 -130.5t88.5 -47.5q24 0 45 8.5t38.5 23t30 32.5t19.5 37v192zM401 582q0 -7 -5 -12l-13 -13q-6 -6 -11 -6t-12 5l-102 79l-94 -73
q-10 -8 -17 -8q-6 0 -13 7l-12 13q-5 7 -5 10q0 5 6 11l108 98q10 8 20 8h14q11 0 19 -7l111 -100q6 -6 6 -12z" />
    <glyph glyph-name="atilde" unicode="&#xe3;" horiz-adv-x="538" 
d="M509 13q0 -13 -15 -13h-42q-33 0 -49 22t-16 52h-2q-9 -17 -25 -32t-36 -26.5t-43 -18.5t-46 -7q-52 0 -89.5 20t-62 54t-36 78t-11.5 91q0 63 17 111.5t46.5 81.5t68 50.5t81.5 17.5q38 0 74.5 -15.5t59.5 -45.5l1 33q0 17 19 17h45q18 0 18 -19v-350q0 -17 1 -28.5
t4 -16.5q5 -9 17 -9h7q7 0 10.5 -2.5t3.5 -10.5v-34zM381 354q-18 34 -51.5 53t-69.5 19q-58 0 -96.5 -48.5t-38.5 -138.5q0 -83 34.5 -130.5t88.5 -47.5q24 0 45 8.5t38.5 23t30 32.5t19.5 37v192zM429 632q0 -8 -8 -14q-23 -17 -49 -30.5t-55 -13.5q-15 0 -28 6t-26 13.5
t-25.5 14t-25.5 6.5t-29.5 -6.5t-35.5 -17.5q-11 -6 -16 -6q-8 0 -12 10l-9 23q-2 4 -3 6.5t-1 4.5q0 7 14 16q20 13 44 22.5t47 9.5q15 0 30.5 -6t29.5 -13l27 -13t24 -6t28.5 8.5t33.5 18.5q9 5 15 5q8 0 14 -9l11 -17q5 -8 5 -12z" />
    <glyph glyph-name="adieresis" unicode="&#xe4;" horiz-adv-x="538" 
d="M509 13q0 -13 -15 -13h-42q-33 0 -49 22t-16 52h-2q-9 -17 -25 -32t-36 -26.5t-43 -18.5t-46 -7q-52 0 -89.5 20t-62 54t-36 78t-11.5 91q0 63 17 111.5t46.5 81.5t68 50.5t81.5 17.5q38 0 74.5 -15.5t59.5 -45.5l1 33q0 17 19 17h45q18 0 18 -19v-350q0 -17 1 -28.5
t4 -16.5q5 -9 17 -9h7q7 0 10.5 -2.5t3.5 -10.5v-34zM381 354q-18 34 -51.5 53t-69.5 19q-58 0 -96.5 -48.5t-38.5 -138.5q0 -83 34.5 -130.5t88.5 -47.5q24 0 45 8.5t38.5 23t30 32.5t19.5 37v192zM221 631q0 -23 -16.5 -35.5t-34.5 -12.5t-35 12.5t-17 35.5q0 24 16 36.5
t36 12.5t35.5 -13t15.5 -36zM397 631q0 -23 -16 -35.5t-34 -12.5t-35.5 12.5t-17.5 35.5q0 24 16.5 36.5t36.5 12.5t35 -13t15 -36z" />
    <glyph glyph-name="aring" unicode="&#xe5;" horiz-adv-x="538" 
d="M509 13q0 -13 -15 -13h-42q-33 0 -49 22t-16 52h-2q-9 -17 -25 -32t-36 -26.5t-43 -18.5t-46 -7q-52 0 -89.5 20t-62 54t-36 78t-11.5 91q0 63 17 111.5t46.5 81.5t68 50.5t81.5 17.5q38 0 74.5 -15.5t59.5 -45.5l1 33q0 17 19 17h45q18 0 18 -19v-350q0 -17 1 -28.5
t4 -16.5q5 -9 17 -9h7q7 0 10.5 -2.5t3.5 -10.5v-34zM381 354q-18 34 -51.5 53t-69.5 19q-58 0 -96.5 -48.5t-38.5 -138.5q0 -83 34.5 -130.5t88.5 -47.5q24 0 45 8.5t38.5 23t30 32.5t19.5 37v192zM349 621q0 -33 -23.5 -56.5t-56.5 -23.5t-57 23.5t-24 56.5t24 56.5
t57 23.5t56.5 -23.5t23.5 -56.5zM299 621q0 13 -8.5 21.5t-21.5 8.5t-22 -8.5t-9 -21.5t9 -21.5t22 -8.5t21.5 8.5t8.5 21.5z" />
    <glyph glyph-name="ae" unicode="&#xe6;" horiz-adv-x="768" 
d="M730 256q0 -17 -4 -21.5t-18 -4.5h-310q2 -47 21.5 -83t51.5 -56q20 -13 45 -18.5t54 -5.5h17q25 2 52 6t45 12q2 1 6 1q8 0 11 -10l7 -32q2 -8 2 -11q0 -5 -3 -7.5t-9 -5.5q-16 -8 -35.5 -13.5t-40 -9t-40.5 -5.5t-37 -2q-50 0 -96.5 17t-78.5 58q-28 -31 -74.5 -53.5
t-112.5 -22.5q-30 0 -57 9t-47.5 27t-33 44.5t-12.5 61.5q0 36 16 63.5t39 46.5q42 34 96.5 45.5t109.5 11.5h27v30q0 43 -15 67q-23 36 -79 36q-27 0 -61.5 -8.5t-72.5 -28.5q-5 -3 -8 -3q-7 0 -10 8l-11 30q-2 6 -2 7q0 8 11 14q42 24 85 34t77 10q45 0 83 -16t61 -58h2
q26 34 67 54t94 20q54 0 93 -22t62 -60q17 -28 25 -62.5t8 -62.5v-31zM651 288v14q0 25 -7 48.5t-21 40.5t-35 27.5t-50 10.5q-31 0 -55.5 -11.5t-41.5 -31t-27.5 -45t-13.5 -53.5h251zM341 114q-11 26 -16.5 56t-5.5 62v9q-8 0 -23.5 -1t-20.5 -1q-24 -2 -51.5 -7t-50 -16
t-37.5 -30.5t-15 -49.5q0 -42 26 -61.5t58 -19.5q21 0 41.5 6t38.5 14.5t32.5 19t23.5 19.5z" />
    <glyph glyph-name="ccedilla" unicode="&#xe7;" horiz-adv-x="433" 
d="M360 -122q0 -33 -24.5 -56t-75.5 -23q-20 0 -34.5 3t-30.5 9q-14 6 -14 13q0 3 1 5l5 16q3 9 9 9q4 0 10 -3q12 -5 27 -7t25 -2q17 0 30 8.5t13 27.5q0 33 -52 33h-18q-15 0 -20 6t-5 17v7t1 8l5 46q-88 17 -131 83t-43 163q0 55 16 101.5t47 80t75.5 52.5t100.5 19
q32 0 67 -7.5t61 -21.5q10 -4 10 -13q0 -2 -2 -8l-8 -32q-3 -12 -11 -12q-5 0 -9 3q-23 11 -49 18t-55 7q-72 0 -113.5 -49t-41.5 -134q0 -38 8.5 -72.5t27 -60.5t47 -41.5t68.5 -15.5q32 0 60 6.5t52 17.5q6 2 8 2q7 0 10 -10l9 -28q2 -8 2 -11q0 -8 -12 -13
q-32 -15 -66 -22t-69 -7h-9l-2 -38h8q36 0 64 -17t28 -57z" />
    <glyph glyph-name="egrave" unicode="&#xe8;" horiz-adv-x="499" 
d="M466 257q0 -17 -5 -22.5t-25 -5.5h-307q1 -36 11.5 -66.5t30.5 -53.5t49 -36t67 -13q31 0 62.5 5.5t57.5 15.5q7 2 13.5 2t8.5 -9l11 -37q2 -7 -1 -10.5t-10 -7.5q-16 -8 -35.5 -13t-40 -9t-40.5 -5.5t-37 -1.5q-58 0 -102 18t-74 51t-45 79.5t-15 103.5q0 54 16 100
t46.5 79.5t73.5 53t97 19.5q43 0 77 -14.5t59 -40.5q30 -31 43.5 -73.5t13.5 -91.5v-17zM382 287v14q0 25 -7 48.5t-21 40.5t-35.5 27.5t-49.5 10.5q-31 0 -55.5 -11.5t-41.5 -31t-27.5 -45t-13.5 -53.5h251zM139 649q0 7 4 12l21 33q7 10 15 10q5 0 14 -6l140 -90
q9 -5 9 -13q0 -5 -4 -10l-12 -18q-6 -9 -14 -9q-5 0 -12 3l-151 75q-10 4 -10 13z" />
    <glyph glyph-name="eacute" unicode="&#xe9;" horiz-adv-x="499" 
d="M466 257q0 -17 -5 -22.5t-25 -5.5h-307q1 -36 11.5 -66.5t30.5 -53.5t49 -36t67 -13q31 0 62.5 5.5t57.5 15.5q7 2 13.5 2t8.5 -9l11 -37q2 -7 -1 -10.5t-10 -7.5q-16 -8 -35.5 -13t-40 -9t-40.5 -5.5t-37 -1.5q-58 0 -102 18t-74 51t-45 79.5t-15 103.5q0 54 16 100
t46.5 79.5t73.5 53t97 19.5q43 0 77 -14.5t59 -40.5q30 -31 43.5 -73.5t13.5 -91.5v-17zM382 287v14q0 25 -7 48.5t-21 40.5t-35.5 27.5t-49.5 10.5q-31 0 -55.5 -11.5t-41.5 -31t-27.5 -45t-13.5 -53.5h251zM351 646q0 -9 -10 -13l-151 -75q-8 -3 -12 -3q-8 0 -14 9l-12 18
q-4 5 -4 10q0 8 9 13l140 90q9 6 14 6q8 0 15 -10l21 -33q4 -5 4 -12z" />
    <glyph glyph-name="ecircumflex" unicode="&#xea;" horiz-adv-x="499" 
d="M466 257q0 -17 -5 -22.5t-25 -5.5h-307q1 -36 11.5 -66.5t30.5 -53.5t49 -36t67 -13q31 0 62.5 5.5t57.5 15.5q7 2 13.5 2t8.5 -9l11 -37q2 -7 -1 -10.5t-10 -7.5q-16 -8 -35.5 -13t-40 -9t-40.5 -5.5t-37 -1.5q-58 0 -102 18t-74 51t-45 79.5t-15 103.5q0 54 16 100
t46.5 79.5t73.5 53t97 19.5q43 0 77 -14.5t59 -40.5q30 -31 43.5 -73.5t13.5 -91.5v-17zM382 287v14q0 25 -7 48.5t-21 40.5t-35.5 27.5t-49.5 10.5q-31 0 -55.5 -11.5t-41.5 -31t-27.5 -45t-13.5 -53.5h251zM395 582q0 -7 -5 -12l-13 -13q-6 -6 -11 -6t-12 5l-102 79
l-94 -73q-10 -8 -17 -8q-6 0 -13 7l-12 13q-5 7 -5 10q0 5 6 11l108 98q10 8 20 8h14q11 0 19 -7l111 -100q6 -6 6 -12z" />
    <glyph glyph-name="edieresis" unicode="&#xeb;" horiz-adv-x="499" 
d="M466 257q0 -17 -5 -22.5t-25 -5.5h-307q1 -36 11.5 -66.5t30.5 -53.5t49 -36t67 -13q31 0 62.5 5.5t57.5 15.5q7 2 13.5 2t8.5 -9l11 -37q2 -7 -1 -10.5t-10 -7.5q-16 -8 -35.5 -13t-40 -9t-40.5 -5.5t-37 -1.5q-58 0 -102 18t-74 51t-45 79.5t-15 103.5q0 54 16 100
t46.5 79.5t73.5 53t97 19.5q43 0 77 -14.5t59 -40.5q30 -31 43.5 -73.5t13.5 -91.5v-17zM382 287v14q0 25 -7 48.5t-21 40.5t-35.5 27.5t-49.5 10.5q-31 0 -55.5 -11.5t-41.5 -31t-27.5 -45t-13.5 -53.5h251zM403 632q0 -23 -16 -35.5t-34 -12.5t-35.5 12.5t-17.5 35.5
q0 24 16.5 36.5t36.5 12.5t35 -13t15 -36zM227 632q0 -23 -16.5 -35.5t-34.5 -12.5t-35 12.5t-17 35.5q0 24 16 36.5t36 12.5t35.5 -13t15.5 -36z" />
    <glyph glyph-name="igrave" unicode="&#xec;" horiz-adv-x="237" 
d="M161 21q0 -21 -19 -21h-46q-20 0 -20 21v442q0 20 20 20h46q19 0 19 -20v-442zM16 649q0 7 4 12l21 33q7 10 15 10q5 0 14 -6l140 -90q9 -5 9 -13q0 -5 -4 -10l-12 -18q-6 -9 -14 -9q-5 0 -12 3l-151 75q-10 4 -10 13z" />
    <glyph glyph-name="iacute" unicode="&#xed;" horiz-adv-x="237" 
d="M161 21q0 -21 -19 -21h-46q-20 0 -20 21v442q0 20 20 20h46q19 0 19 -20v-442zM221 646q0 -9 -10 -13l-151 -75q-8 -3 -12 -3q-8 0 -14 9l-12 18q-4 5 -4 10q0 8 9 13l140 90q9 6 14 6q8 0 15 -10l21 -33q4 -5 4 -12z" />
    <glyph glyph-name="icircumflex" unicode="&#xee;" horiz-adv-x="250" 
d="M167 21q0 -21 -19 -21h-46q-20 0 -20 21v442q0 20 20 20h46q19 0 19 -20v-442zM267 582q0 -7 -5 -12l-13 -13q-6 -6 -11 -6t-12 5l-102 79l-94 -73q-10 -8 -17 -8q-6 0 -13 7l-12 13q-5 7 -5 10q0 5 6 11l108 98q10 8 20 8h14q11 0 19 -7l111 -100q6 -6 6 -12z" />
    <glyph glyph-name="idieresis" unicode="&#xef;" horiz-adv-x="249" 
d="M167 21q0 -21 -19 -21h-46q-20 0 -20 21v442q0 20 20 20h46q19 0 19 -20v-442zM264 631q0 -23 -16 -35.5t-34 -12.5t-35.5 12.5t-17.5 35.5q0 24 16.5 36.5t36.5 12.5t35 -13t15 -36zM88 631q0 -23 -16.5 -35.5t-34.5 -12.5t-35 12.5t-17 35.5q0 24 16 36.5t36 12.5
t35.5 -13t15.5 -36z" />
    <glyph glyph-name="eth" unicode="&#xf0;" horiz-adv-x="533" 
d="M495 256q0 -54 -14.5 -102.5t-43 -85t-72 -57.5t-101.5 -21t-100.5 19.5t-70 53.5t-40.5 80t-13 100q0 53 15 99t44 79.5t72 53t99 19.5q21 0 36.5 -2.5t32.5 -7.5q-17 47 -52 80t-73 52l-36 -74q-4 -8 -8 -8t-11 3l-20 10q-8 4 -8 10q0 3 3 9l36 70q-49 15 -83 21
q-13 3 -13 12v5l6 25q2 10 6 12.5t12 2.5q2 0 4 -0.5t4 -0.5q24 -2 48 -6t49 -11l34 65q4 9 9 9q2 0 8 -3l21 -11q8 -4 8 -9q0 -3 -3 -9l-30 -60q61 -28 107 -76.5t77 -107t46 -121t15 -117.5zM407 241q0 35 -7 68.5t-23 60t-42.5 42.5t-65.5 16q-41 0 -68 -16t-43 -42.5
t-23 -59t-7 -65.5q0 -35 6.5 -68.5t22 -60.5t42 -43.5t66.5 -16.5q39 0 66.5 16t44 42t24 59t7.5 68z" />
    <glyph glyph-name="ntilde" unicode="&#xf1;" horiz-adv-x="539" 
d="M473 21q0 -21 -19 -21h-47q-19 0 -19 21v280q0 27 -4 49t-15 38.5t-30 25.5t-49 9q-17 0 -36 -4.5t-37 -12.5t-35 -18.5t-30 -22.5v-344q0 -21 -19 -21h-47q-19 0 -19 20v443q0 20 19 20h44q19 0 19 -18l1 -31q35 29 77.5 44.5t86.5 15.5q86 0 122.5 -48.5t36.5 -130.5
v-294zM430 631q0 -8 -8 -14q-23 -17 -49 -30.5t-55 -13.5q-15 0 -28 6t-26 13.5t-25.5 14t-25.5 6.5t-29.5 -6.5t-35.5 -17.5q-11 -6 -16 -6q-8 0 -12 10l-9 23q-2 4 -3 6.5t-1 4.5q0 7 14 16q20 13 44 22.5t47 9.5q15 0 30.5 -6t29.5 -13l27 -13t24 -6t28.5 8.5t33.5 18.5
q9 5 15 5q8 0 14 -9l11 -17q5 -8 5 -12z" />
    <glyph glyph-name="ograve" unicode="&#xf2;" horiz-adv-x="534" 
d="M495 242q0 -53 -15 -99t-44.5 -80t-72.5 -53.5t-99 -19.5q-58 0 -100.5 19.5t-70 53.5t-40.5 80t-13 100q0 53 15 99t44 79.5t72 53t99 19.5q58 0 100.5 -19t70 -52.5t41 -80t13.5 -100.5zM407 241q0 35 -7 68.5t-23 60t-42.5 42.5t-65.5 16q-41 0 -68 -16t-43 -42.5
t-23 -59t-7 -65.5q0 -35 6.5 -68.5t22 -60.5t42 -43.5t66.5 -16.5q39 0 66.5 16t44 42t24 59t7.5 68zM164 649q0 7 4 12l21 33q7 10 15 10q5 0 14 -6l140 -90q9 -5 9 -13q0 -5 -4 -10l-12 -18q-6 -9 -14 -9q-5 0 -12 3l-151 75q-10 4 -10 13z" />
    <glyph glyph-name="oacute" unicode="&#xf3;" horiz-adv-x="534" 
d="M495 242q0 -53 -15 -99t-44.5 -80t-72.5 -53.5t-99 -19.5q-58 0 -100.5 19.5t-70 53.5t-40.5 80t-13 100q0 53 15 99t44 79.5t72 53t99 19.5q58 0 100.5 -19t70 -52.5t41 -80t13.5 -100.5zM407 241q0 35 -7 68.5t-23 60t-42.5 42.5t-65.5 16q-41 0 -68 -16t-43 -42.5
t-23 -59t-7 -65.5q0 -35 6.5 -68.5t22 -60.5t42 -43.5t66.5 -16.5q39 0 66.5 16t44 42t24 59t7.5 68zM369 646q0 -9 -10 -13l-151 -75q-8 -3 -12 -3q-8 0 -14 9l-12 18q-4 5 -4 10q0 8 9 13l140 90q9 6 14 6q8 0 15 -10l21 -33q4 -5 4 -12z" />
    <glyph glyph-name="ocircumflex" unicode="&#xf4;" horiz-adv-x="534" 
d="M495 242q0 -53 -15 -99t-44.5 -80t-72.5 -53.5t-99 -19.5q-58 0 -100.5 19.5t-70 53.5t-40.5 80t-13 100q0 53 15 99t44 79.5t72 53t99 19.5q58 0 100.5 -19t70 -52.5t41 -80t13.5 -100.5zM407 241q0 35 -7 68.5t-23 60t-42.5 42.5t-65.5 16q-41 0 -68 -16t-43 -42.5
t-23 -59t-7 -65.5q0 -35 6.5 -68.5t22 -60.5t42 -43.5t66.5 -16.5q39 0 66.5 16t44 42t24 59t7.5 68zM409 582q0 -7 -5 -12l-13 -13q-6 -6 -11 -6t-12 5l-102 79l-94 -73q-10 -8 -17 -8q-6 0 -13 7l-12 13q-5 7 -5 10q0 5 6 11l108 98q10 8 20 8h14q11 0 19 -7l111 -100
q6 -6 6 -12z" />
    <glyph glyph-name="otilde" unicode="&#xf5;" horiz-adv-x="534" 
d="M495 242q0 -53 -15 -99t-44.5 -80t-72.5 -53.5t-99 -19.5q-58 0 -100.5 19.5t-70 53.5t-40.5 80t-13 100q0 53 15 99t44 79.5t72 53t99 19.5q58 0 100.5 -19t70 -52.5t41 -80t13.5 -100.5zM407 241q0 35 -7 68.5t-23 60t-42.5 42.5t-65.5 16q-41 0 -68 -16t-43 -42.5
t-23 -59t-7 -65.5q0 -35 6.5 -68.5t22 -60.5t42 -43.5t66.5 -16.5q39 0 66.5 16t44 42t24 59t7.5 68zM427 631q0 -8 -8 -14q-23 -17 -49 -30.5t-55 -13.5q-15 0 -28 6t-26 13.5t-25.5 14t-25.5 6.5t-29.5 -6.5t-35.5 -17.5q-11 -6 -16 -6q-8 0 -12 10l-9 23q-2 4 -3 6.5
t-1 4.5q0 7 14 16q20 13 44 22.5t47 9.5q15 0 30.5 -6t29.5 -13l27 -13t24 -6t28.5 8.5t33.5 18.5q9 5 15 5q8 0 14 -9l11 -17q5 -8 5 -12z" />
    <glyph glyph-name="odieresis" unicode="&#xf6;" horiz-adv-x="534" 
d="M495 242q0 -53 -15 -99t-44.5 -80t-72.5 -53.5t-99 -19.5q-58 0 -100.5 19.5t-70 53.5t-40.5 80t-13 100q0 53 15 99t44 79.5t72 53t99 19.5q58 0 100.5 -19t70 -52.5t41 -80t13.5 -100.5zM407 241q0 35 -7 68.5t-23 60t-42.5 42.5t-65.5 16q-41 0 -68 -16t-43 -42.5
t-23 -59t-7 -65.5q0 -35 6.5 -68.5t22 -60.5t42 -43.5t66.5 -16.5q39 0 66.5 16t44 42t24 59t7.5 68zM406 632q0 -23 -16 -35.5t-34 -12.5t-35.5 12.5t-17.5 35.5q0 24 16.5 36.5t36.5 12.5t35 -13t15 -36zM230 632q0 -23 -16.5 -35.5t-34.5 -12.5t-35 12.5t-17 35.5
q0 24 16 36.5t36 12.5t35.5 -13t15.5 -36z" />
    <glyph glyph-name="divide" unicode="&#xf7;" horiz-adv-x="510" 
d="M464 247q0 -12 -4 -17t-16 -5h-379q-14 0 -17.5 4.5t-3.5 14.5v37q0 11 4 14.5t15 3.5h379q14 0 18 -4t4 -16v-32zM313 438q0 -26 -19 -41.5t-40 -15.5t-40.5 15t-19.5 42t18.5 41.5t41.5 14.5t41 -14.5t18 -41.5zM313 90q0 -26 -19 -41t-40 -15t-40.5 14.5t-19.5 41.5
t18.5 42t41.5 15t41 -15t18 -42z" />
    <glyph glyph-name="oslash" unicode="&#xf8;" horiz-adv-x="534" 
d="M495 242q0 -53 -15 -99t-44.5 -80t-72.5 -53.5t-99 -19.5q-30 0 -55 5t-47 15l-21 -33q-8 -13 -15 -13q-4 0 -8 3l-30 18q-12 7 -12 14q0 5 4 10l26 41q-34 35 -50 84t-16 109q0 53 15 99t44 79.5t72 53t99 19.5q28 0 52 -5t45 -13l17 28q10 16 18 16q5 0 13 -4l23 -12
q13 -7 13 -15q0 -6 -6 -15l-21 -34q36 -34 53.5 -84.5t17.5 -113.5zM407 241q0 34 -6.5 66.5t-21.5 58.5l-179 -294q14 -8 29.5 -12t35.5 -4q39 0 66.5 16t44 42t24 59t7.5 68zM329 415q-25 13 -60 13q-41 0 -68 -16t-43 -42.5t-23 -59t-7 -65.5q0 -32 5.5 -63t18.5 -57z
" />
    <glyph glyph-name="ugrave" unicode="&#xf9;" horiz-adv-x="531" 
d="M465 22q0 -22 -20 -22h-43q-19 0 -19 19l-1 31q-71 -60 -158 -60q-43 0 -73 13t-48.5 37t-27 57.5t-8.5 73.5v292q0 20 20 20h45q20 0 20 -20v-279q0 -27 3.5 -49t14 -38t29.5 -25t49 -9q16 0 34.5 5t36 13t33.5 19t28 22v341q0 20 19 20h47q19 0 19 -20v-441zM163 649
q0 7 4 12l21 33q7 10 15 10q5 0 14 -6l140 -90q9 -5 9 -13q0 -5 -4 -10l-12 -18q-6 -9 -14 -9q-5 0 -12 3l-151 75q-10 4 -10 13z" />
    <glyph glyph-name="uacute" unicode="&#xfa;" horiz-adv-x="531" 
d="M465 22q0 -22 -20 -22h-43q-19 0 -19 19l-1 31q-71 -60 -158 -60q-43 0 -73 13t-48.5 37t-27 57.5t-8.5 73.5v292q0 20 20 20h45q20 0 20 -20v-279q0 -27 3.5 -49t14 -38t29.5 -25t49 -9q16 0 34.5 5t36 13t33.5 19t28 22v341q0 20 19 20h47q19 0 19 -20v-441zM368 646
q0 -9 -10 -13l-151 -75q-8 -3 -12 -3q-8 0 -14 9l-12 18q-4 5 -4 10q0 8 9 13l140 90q9 6 14 6q8 0 15 -10l21 -33q4 -5 4 -12z" />
    <glyph glyph-name="ucircumflex" unicode="&#xfb;" horiz-adv-x="531" 
d="M465 22q0 -22 -20 -22h-43q-19 0 -19 19l-1 31q-71 -60 -158 -60q-43 0 -73 13t-48.5 37t-27 57.5t-8.5 73.5v292q0 20 20 20h45q20 0 20 -20v-279q0 -27 3.5 -49t14 -38t29.5 -25t49 -9q16 0 34.5 5t36 13t33.5 19t28 22v341q0 20 19 20h47q19 0 19 -20v-441zM407 582
q0 -7 -5 -12l-13 -13q-6 -6 -11 -6t-12 5l-102 79l-94 -73q-10 -8 -17 -8q-6 0 -13 7l-12 13q-5 7 -5 10q0 5 6 11l108 98q10 8 20 8h14q11 0 19 -7l111 -100q6 -6 6 -12z" />
    <glyph glyph-name="udieresis" unicode="&#xfc;" horiz-adv-x="531" 
d="M465 22q0 -22 -20 -22h-43q-19 0 -19 19l-1 31q-71 -60 -158 -60q-43 0 -73 13t-48.5 37t-27 57.5t-8.5 73.5v292q0 20 20 20h45q20 0 20 -20v-279q0 -27 3.5 -49t14 -38t29.5 -25t49 -9q16 0 34.5 5t36 13t33.5 19t28 22v341q0 20 19 20h47q19 0 19 -20v-441zM405 630
q0 -23 -16 -35.5t-34 -12.5t-35.5 12.5t-17.5 35.5q0 24 16.5 36.5t36.5 12.5t35 -13t15 -36zM229 630q0 -23 -16.5 -35.5t-34.5 -12.5t-35 12.5t-17 35.5q0 24 16 36.5t36 12.5t35.5 -13t15.5 -36z" />
    <glyph glyph-name="yacute" unicode="&#xfd;" horiz-adv-x="485" 
d="M109 483q15 0 19 -13l130 -374l126 372q5 15 21 15h55q13 0 13 -10q0 -3 -2 -9l-195 -523q-17 -44 -35 -74.5t-42 -49.5t-54.5 -27.5t-70.5 -8.5q-25 0 -45 4q-11 2 -11 15v5l5 38q1 14 15 14h4q8 -1 17.5 -2t17.5 -1q42 0 67.5 17.5t41.5 56.5l26 64l-179 474
q-2 6 0 11.5t10 5.5h66zM345 646q0 -9 -10 -13l-151 -75q-8 -3 -12 -3q-8 0 -14 9l-12 18q-4 5 -4 10q0 8 9 13l140 90q9 6 14 6q8 0 15 -10l21 -33q4 -5 4 -12z" />
    <glyph glyph-name="thorn" unicode="&#xfe;" horiz-adv-x="532" 
d="M494 246q0 -56 -16.5 -105.5t-48.5 -85.5q-27 -31 -65 -48t-87 -17q-37 0 -73 14t-59 42v-242q0 -11 -6 -15t-16 -4h-44q-19 0 -19 21v870q0 14 4 19.5t14 7.5l43 6h5q17 0 17 -19v-257q24 27 64 44t82 17q46 0 82 -16t62 -45q29 -32 45 -79.5t16 -107.5zM405 244
q0 46 -9 79t-26 56q-18 24 -43.5 35.5t-54.5 11.5q-18 0 -36.5 -5t-35.5 -13.5t-31.5 -20.5t-23.5 -25v-235q16 -29 50 -49.5t71 -20.5q31 0 54.5 11t40.5 31q44 52 44 145z" />
    <glyph glyph-name="ydieresis" unicode="&#xff;" horiz-adv-x="485" 
d="M109 483q15 0 19 -13l130 -374l126 372q5 15 21 15h55q13 0 13 -10q0 -3 -2 -9l-195 -523q-17 -44 -35 -74.5t-42 -49.5t-54.5 -27.5t-70.5 -8.5q-25 0 -45 4q-11 2 -11 15v5l5 38q1 14 15 14h4q8 -1 17.5 -2t17.5 -1q42 0 67.5 17.5t41.5 56.5l26 64l-179 474
q-2 6 0 11.5t10 5.5h66zM382 631q0 -23 -16 -35.5t-34 -12.5t-35.5 12.5t-17.5 35.5q0 24 16.5 36.5t36.5 12.5t35 -13t15 -36zM206 631q0 -23 -16.5 -35.5t-34.5 -12.5t-35 12.5t-17 35.5q0 24 16 36.5t36 12.5t35.5 -13t15.5 -36z" />
    <glyph glyph-name="Amacron" unicode="&#x100;" horiz-adv-x="608" 
d="M522 0q-13 0 -18 3.5t-9 14.5l-66 186h-259l-69 -187q-4 -10 -8 -13.5t-15 -3.5h-59q-11 0 -11 6.5t2 13.5l251 655q5 14 18 14h53q13 0 18 -12l247 -656q3 -8 1.5 -14.5t-14.5 -6.5h-62zM405 273l-80 229l-14.5 43t-8.5 28h-1l-9.5 -28.5l-15.5 -44.5l-82 -227h211z
M436 804q0 -13 -5.5 -18.5t-23.5 -5.5h-210q-16 0 -21 6t-5 18v17q0 11 4.5 16.5t21.5 5.5h210q18 0 23.5 -4.5t5.5 -17.5v-17z" />
    <glyph glyph-name="amacron" unicode="&#x101;" horiz-adv-x="538" 
d="M509 13q0 -13 -15 -13h-42q-33 0 -49 22t-16 52h-2q-9 -17 -25 -32t-36 -26.5t-43 -18.5t-46 -7q-52 0 -89.5 20t-62 54t-36 78t-11.5 91q0 63 17 111.5t46.5 81.5t68 50.5t81.5 17.5q38 0 74.5 -15.5t59.5 -45.5l1 33q0 17 19 17h45q18 0 18 -19v-350q0 -17 1 -28.5
t4 -16.5q5 -9 17 -9h7q7 0 10.5 -2.5t3.5 -10.5v-34zM381 354q-18 34 -51.5 53t-69.5 19q-58 0 -96.5 -48.5t-38.5 -138.5q0 -83 34.5 -130.5t88.5 -47.5q24 0 45 8.5t38.5 23t30 32.5t19.5 37v192zM401 606q0 -13 -5.5 -18.5t-23.5 -5.5h-210q-16 0 -21 6t-5 18v17
q0 11 4.5 16.5t21.5 5.5h210q18 0 23.5 -4.5t5.5 -17.5v-17z" />
    <glyph glyph-name="Abreve" unicode="&#x102;" horiz-adv-x="608" 
d="M522 0q-13 0 -18 3.5t-9 14.5l-66 186h-259l-69 -187q-4 -10 -8 -13.5t-15 -3.5h-59q-11 0 -11 6.5t2 13.5l251 655q5 14 18 14h53q13 0 18 -12l247 -656q3 -8 1.5 -14.5t-14.5 -6.5h-62zM405 273l-80 229l-14.5 43t-8.5 28h-1l-9.5 -28.5l-15.5 -44.5l-82 -227h211z
M432 862q0 -7 -1 -10q-4 -25 -19.5 -44.5t-36.5 -31.5q-15 -8 -33.5 -13t-38.5 -5t-38.5 5t-33.5 13q-21 12 -36.5 31.5t-19.5 44.5q-1 3 -1 10q0 8 4 10.5t12 2.5h25q11 0 14.5 -3t8.5 -12q9 -19 27 -31.5t38 -12.5t38 12.5t27 31.5q5 9 8.5 12t14.5 3h25q8 0 12 -2.5
t4 -10.5z" />
    <glyph glyph-name="abreve" unicode="&#x103;" horiz-adv-x="538" 
d="M509 13q0 -13 -15 -13h-42q-33 0 -49 22t-16 52h-2q-9 -17 -25 -32t-36 -26.5t-43 -18.5t-46 -7q-52 0 -89.5 20t-62 54t-36 78t-11.5 91q0 63 17 111.5t46.5 81.5t68 50.5t81.5 17.5q38 0 74.5 -15.5t59.5 -45.5l1 33q0 17 19 17h45q18 0 18 -19v-350q0 -17 1 -28.5
t4 -16.5q5 -9 17 -9h7q7 0 10.5 -2.5t3.5 -10.5v-34zM381 354q-18 34 -51.5 53t-69.5 19q-58 0 -96.5 -48.5t-38.5 -138.5q0 -83 34.5 -130.5t88.5 -47.5q24 0 45 8.5t38.5 23t30 32.5t19.5 37v192zM388 662q0 -7 -1 -10q-4 -25 -19.5 -44.5t-36.5 -31.5q-15 -8 -33.5 -13
t-38.5 -5t-38.5 5t-33.5 13q-21 12 -36.5 31.5t-19.5 44.5q-1 3 -1 10q0 8 4 10.5t12 2.5h25q11 0 14.5 -3t8.5 -12q9 -19 27 -31.5t38 -12.5t38 12.5t27 31.5q5 9 8.5 12t14.5 3h25q8 0 12 -2.5t4 -10.5z" />
    <glyph glyph-name="Aogonek" unicode="&#x104;" horiz-adv-x="608" 
d="M595 -173q0 -5 -2 -9t-10 -6q-16 -6 -38.5 -10.5t-42.5 -4.5q-51 0 -76 23.5t-25 55.5q0 24 8 44t21.5 36.5t31 29.5t35.5 24l-68 194h-259l-69 -187q-4 -10 -8 -13.5t-15 -3.5h-59q-11 0 -11 10q0 2 2 10l251 655q5 14 18 14h53q13 0 18 -12l247 -656q2 -8 2 -10
q0 -8 -18 -11q-26 -5 -46 -15q-19 -10 -37 -29q-19 -22 -23.5 -38.5t-4.5 -28.5q0 -23 14.5 -32t37.5 -9q10 0 26.5 2.5t27.5 6.5q1 0 2 0.5t2 0.5q8 0 9 -7l5 -18q1 -2 1 -6zM405 273l-80 229l-14.5 43t-8.5 28h-1l-9.5 -28.5l-15.5 -44.5l-82 -227h211z" />
    <glyph glyph-name="aogonek" unicode="&#x105;" horiz-adv-x="538" 
d="M534 -173q0 -5 -2 -9t-10 -6q-16 -6 -38.5 -10.5t-42.5 -4.5q-51 0 -76 23.5t-25 55.5q0 21 8 40t21.5 34.5t30 28.5t34.5 22v2q-22 2 -34.5 22t-12.5 49h-2q-9 -17 -25 -32t-36 -26.5t-43 -18.5t-46 -7q-52 0 -89.5 20t-62 54t-36 78t-11.5 91q0 63 17 111.5t46.5 81.5
t68 50.5t81.5 17.5q38 0 74.5 -15.5t59.5 -45.5l1 33q0 17 19 17h45q18 0 18 -19v-350q0 -17 1 -28.5t4 -16.5q5 -9 17 -9h7q7 0 10.5 -2.5t3.5 -10.5v-34q0 -11 -6.5 -13.5t-20.5 -12.5q-41 -27 -57 -51t-16 -47t14.5 -32t37.5 -9q10 0 26.5 2.5t27.5 6.5q1 0 2 0.5t2 0.5
q8 0 9 -7l5 -18q1 -2 1 -6zM381 354q-18 34 -51.5 53t-69.5 19q-58 0 -96.5 -48.5t-38.5 -138.5q0 -83 34.5 -130.5t88.5 -47.5q24 0 45 8.5t38.5 23t30 32.5t19.5 37v192z" />
    <glyph glyph-name="Cacute" unicode="&#x106;" horiz-adv-x="587" 
d="M370 64q37 0 79 9.5t77 27.5q15 8 22 -9l13 -31q10 -19 -11 -28q-92 -43 -193 -43q-78 0 -136 28t-96 76t-56.5 112.5t-18.5 137.5q0 72 21 136.5t61 113.5t98.5 78t133.5 29q50 0 95.5 -11t87.5 -34q6 -4 9 -6.5t3 -7.5t-3 -12l-16 -37q-4 -10 -12 -10q-5 0 -9 3
q-70 40 -149 40q-48 0 -89 -20t-70 -56q-33 -41 -47.5 -93t-14.5 -108t13 -107.5t40 -91t69 -63t99 -23.5zM483 848q0 -9 -10 -13l-151 -75q-8 -3 -12 -3q-8 0 -14 9l-12 18q-4 5 -4 10q0 8 9 13l140 90q9 6 14 6q8 0 15 -10l21 -33q4 -5 4 -12z" />
    <glyph glyph-name="cacute" unicode="&#x107;" horiz-adv-x="433" 
d="M418 32q0 -8 -12 -13q-32 -15 -66 -22t-69 -7q-59 0 -102.5 18.5t-72.5 51.5t-43.5 79t-14.5 102q0 55 16 101.5t47 80t75.5 52.5t100.5 19q32 0 67 -7.5t61 -21.5q10 -4 10 -13q0 -2 -2 -8l-8 -32q-3 -12 -11 -12q-5 0 -9 3q-23 11 -49 18t-55 7q-72 0 -113.5 -49
t-41.5 -134q0 -38 8.5 -72.5t27 -60.5t47 -41.5t68.5 -15.5q32 0 60 6.5t52 17.5q6 2 8 2q7 0 10 -10l9 -28q2 -8 2 -11zM386 646q0 -9 -10 -13l-151 -75q-8 -3 -12 -3q-8 0 -14 9l-12 18q-4 5 -4 10q0 8 9 13l140 90q9 6 14 6q8 0 15 -10l21 -33q4 -5 4 -12z" />
    <glyph glyph-name="Ccircumflex" unicode="&#x108;" horiz-adv-x="587" 
d="M370 64q37 0 79 9.5t77 27.5q15 8 22 -9l13 -31q10 -19 -11 -28q-92 -43 -193 -43q-78 0 -136 28t-96 76t-56.5 112.5t-18.5 137.5q0 72 21 136.5t61 113.5t98.5 78t133.5 29q50 0 95.5 -11t87.5 -34q6 -4 9 -6.5t3 -7.5t-3 -12l-16 -37q-4 -10 -12 -10q-5 0 -9 3
q-70 40 -149 40q-48 0 -89 -20t-70 -56q-33 -41 -47.5 -93t-14.5 -108t13 -107.5t40 -91t69 -63t99 -23.5zM506 782q0 -7 -5 -12l-13 -13q-6 -6 -11 -6t-12 5l-102 79l-94 -73q-10 -8 -17 -8q-6 0 -13 7l-12 13q-5 7 -5 10q0 5 6 11l108 98q10 8 20 8h14q11 0 19 -7
l111 -100q6 -6 6 -12z" />
    <glyph glyph-name="ccircumflex" unicode="&#x109;" horiz-adv-x="433" 
d="M418 32q0 -8 -12 -13q-32 -15 -66 -22t-69 -7q-59 0 -102.5 18.5t-72.5 51.5t-43.5 79t-14.5 102q0 55 16 101.5t47 80t75.5 52.5t100.5 19q32 0 67 -7.5t61 -21.5q10 -4 10 -13q0 -2 -2 -8l-8 -32q-3 -12 -11 -12q-5 0 -9 3q-23 11 -49 18t-55 7q-72 0 -113.5 -49
t-41.5 -134q0 -38 8.5 -72.5t27 -60.5t47 -41.5t68.5 -15.5q32 0 60 6.5t52 17.5q6 2 8 2q7 0 10 -10l9 -28q2 -8 2 -11zM409 582q0 -7 -5 -12l-13 -13q-6 -6 -11 -6t-12 5l-102 79l-94 -73q-10 -8 -17 -8q-6 0 -13 7l-12 13q-5 7 -5 10q0 5 6 11l108 98q10 8 20 8h14
q11 0 19 -7l111 -100q6 -6 6 -12z" />
    <glyph glyph-name="Cdotaccent" unicode="&#x10a;" horiz-adv-x="587" 
d="M370 64q37 0 79 9.5t77 27.5q15 8 22 -9l13 -31q10 -19 -11 -28q-92 -43 -193 -43q-78 0 -136 28t-96 76t-56.5 112.5t-18.5 137.5q0 72 21 136.5t61 113.5t98.5 78t133.5 29q50 0 95.5 -11t87.5 -34q6 -4 9 -6.5t3 -7.5t-3 -12l-16 -37q-4 -10 -12 -10q-5 0 -9 3
q-70 40 -149 40q-48 0 -89 -20t-70 -56q-33 -41 -47.5 -93t-14.5 -108t13 -107.5t40 -91t69 -63t99 -23.5zM411 836q0 -26 -19 -41t-39 -15q-10 0 -20.5 4t-19.5 11t-14.5 17t-5.5 23q0 26 19 41t41 15q21 0 39.5 -14.5t18.5 -40.5z" />
    <glyph glyph-name="cdotaccent" unicode="&#x10b;" horiz-adv-x="433" 
d="M418 32q0 -8 -12 -13q-32 -15 -66 -22t-69 -7q-59 0 -102.5 18.5t-72.5 51.5t-43.5 79t-14.5 102q0 55 16 101.5t47 80t75.5 52.5t100.5 19q32 0 67 -7.5t61 -21.5q10 -4 10 -13q0 -2 -2 -8l-8 -32q-3 -12 -11 -12q-5 0 -9 3q-23 11 -49 18t-55 7q-72 0 -113.5 -49
t-41.5 -134q0 -38 8.5 -72.5t27 -60.5t47 -41.5t68.5 -15.5q32 0 60 6.5t52 17.5q6 2 8 2q7 0 10 -10l9 -28q2 -8 2 -11zM315 639q0 -26 -19 -41t-39 -15q-10 0 -20.5 4t-19.5 11t-14.5 17t-5.5 23q0 26 19 41t41 15q21 0 39.5 -14.5t18.5 -40.5z" />
    <glyph glyph-name="Ccaron" unicode="&#x10c;" horiz-adv-x="587" 
d="M370 64q37 0 79 9.5t77 27.5q15 8 22 -9l13 -31q10 -19 -11 -28q-92 -43 -193 -43q-78 0 -136 28t-96 76t-56.5 112.5t-18.5 137.5q0 72 21 136.5t61 113.5t98.5 78t133.5 29q50 0 95.5 -11t87.5 -34q6 -4 9 -6.5t3 -7.5t-3 -12l-16 -37q-4 -10 -12 -10q-5 0 -9 3
q-70 40 -149 40q-48 0 -89 -20t-70 -56q-33 -41 -47.5 -93t-14.5 -108t13 -107.5t40 -91t69 -63t99 -23.5zM504 877q0 -6 -6 -12l-111 -100q-8 -7 -19 -7h-14q-10 0 -20 8l-108 98q-6 6 -6 11q0 3 5 10l12 13q7 7 13 7q7 0 17 -8l94 -73l102 79q7 5 12 5t11 -6l13 -13
q5 -5 5 -12z" />
    <glyph glyph-name="ccaron" unicode="&#x10d;" horiz-adv-x="433" 
d="M418 32q0 -8 -12 -13q-32 -15 -66 -22t-69 -7q-59 0 -102.5 18.5t-72.5 51.5t-43.5 79t-14.5 102q0 55 16 101.5t47 80t75.5 52.5t100.5 19q32 0 67 -7.5t61 -21.5q10 -4 10 -13q0 -2 -2 -8l-8 -32q-3 -12 -11 -12q-5 0 -9 3q-23 11 -49 18t-55 7q-72 0 -113.5 -49
t-41.5 -134q0 -38 8.5 -72.5t27 -60.5t47 -41.5t68.5 -15.5q32 0 60 6.5t52 17.5q6 2 8 2q7 0 10 -10l9 -28q2 -8 2 -11zM407 668q0 -6 -6 -12l-111 -100q-8 -7 -19 -7h-14q-10 0 -20 8l-108 98q-6 6 -6 11q0 3 5 10l12 13q7 7 13 7q7 0 17 -8l94 -73l102 79q7 5 12 5t11 -6
l13 -13q5 -5 5 -12z" />
    <glyph glyph-name="Dcaron" unicode="&#x10e;" horiz-adv-x="669" 
d="M623 341q0 -86 -26.5 -154.5t-76.5 -113.5q-43 -39 -107 -56t-139 -17h-174q-14 0 -19.5 5t-5.5 19v637q0 15 6 21.5t23 6.5h126q48 0 85 -2.5t67 -8t55 -15t49 -24.5q64 -40 100.5 -116t36.5 -182zM524 342q0 72 -21.5 131t-63.5 93q-35 29 -80 38.5t-96 9.5h-95v-540
h86q66 0 114 10.5t83 45.5q73 75 73 212zM431 876q0 -6 -6 -12l-111 -100q-8 -7 -19 -7h-14q-10 0 -20 8l-108 98q-6 6 -6 11q0 3 5 10l12 13q7 7 13 7q7 0 17 -8l94 -73l102 79q7 5 12 5t11 -6l13 -13q5 -5 5 -12z" />
    <glyph glyph-name="dcaron" unicode="&#x10f;" horiz-adv-x="539" 
d="M473 21q0 -21 -15 -21h-43q-21 0 -21 19l-1 36q-24 -29 -64 -47t-83 -18q-54 0 -93 20.5t-64 55t-37 79.5t-12 94q0 55 15.5 102t44 81t68.5 53.5t90 19.5q35 0 71.5 -15t58.5 -41v244q0 10 3 14.5t13 6.5q19 3 29.5 4t16 2t6.5 1h2q15 0 15 -17v-673zM388 357
q-16 29 -48.5 49.5t-69.5 20.5q-68 0 -105 -50.5t-37 -133.5q0 -40 8.5 -74t25.5 -58.5t42 -38.5t58 -14q18 0 36 5t35 14t31.5 21t23.5 26v233zM623 657q0 -35 -19 -68.5t-46 -53.5q-7 -4 -12 -4t-9 6l-6 6l-2 4t-1 4t5 7q11 11 19.5 24.5t8.5 28.5q0 8 -4 14.5t-9.5 13.5
t-9.5 14t-4 16q0 19 12 30.5t31 11.5q21 0 33.5 -17t12.5 -37z" />
    <glyph glyph-name="Dcroat" unicode="&#x110;" horiz-adv-x="683" 
d="M637 341q0 -86 -26.5 -154.5t-76.5 -113.5q-43 -39 -107 -56t-139 -17h-174q-14 0 -19.5 5t-5.5 19v278h-67q-14 0 -18 4.5t-4 14.5v37q0 11 4.5 14.5t15.5 3.5h69v285q0 15 6 21.5t23 6.5h126q48 0 85 -2.5t67 -8t55 -15t49 -24.5q64 -40 100.5 -116t36.5 -182zM538 342
q0 72 -21.5 131t-63.5 93q-35 29 -80 38.5t-96 9.5h-95v-238h123q14 0 18 -4t4 -16v-32q0 -12 -4 -17t-16 -5h-125v-228h86q66 0 114 10.5t83 45.5q73 75 73 212z" />
    <glyph glyph-name="dcroat" unicode="&#x111;" horiz-adv-x="539" 
d="M544 590q0 -13 -5.5 -18.5t-23.5 -5.5h-42v-545q0 -21 -15 -21h-43q-21 0 -21 19l-1 36q-24 -29 -64 -47t-83 -18q-54 0 -93 20.5t-64 55t-37 79.5t-12 94q0 55 15.5 102t44 81t68.5 53.5t90 19.5q35 0 71.5 -15t58.5 -41v129h-93q-16 0 -21 6t-5 18v17q0 11 4.5 16.5
t21.5 5.5h93v52q0 10 3 14.5t13 6.5l49 7h5q15 0 15 -17v-64h42q18 0 23.5 -4.5t5.5 -17.5v-18zM388 357q-16 29 -48.5 49.5t-69.5 20.5q-68 0 -105 -50.5t-37 -133.5q0 -40 8.5 -74t25.5 -58.5t42 -38.5t58 -14q18 0 36 5t35 14t31.5 21t23.5 26v233z" />
    <glyph glyph-name="Emacron" unicode="&#x112;" horiz-adv-x="510" 
d="M466 18q0 -18 -20 -18h-349q-13 0 -17 4t-4 17v648q0 20 19 20h352q11 0 14 -5t2 -14l-4 -38q-1 -11 -7.5 -13.5t-19.5 -2.5h-263v-219h235q20 0 20 -18v-36q0 -11 -4 -14.5t-15 -3.5h-236v-252h276q21 0 21 -17v-38zM399 804q0 -13 -5.5 -18.5t-23.5 -5.5h-210
q-16 0 -21 6t-5 18v17q0 11 4.5 16.5t21.5 5.5h210q18 0 23.5 -4.5t5.5 -17.5v-17z" />
    <glyph glyph-name="emacron" unicode="&#x113;" horiz-adv-x="499" 
d="M466 257q0 -17 -5 -22.5t-25 -5.5h-307q1 -36 11.5 -66.5t30.5 -53.5t49 -36t67 -13q31 0 62.5 5.5t57.5 15.5q7 2 13.5 2t8.5 -9l11 -37q2 -7 -1 -10.5t-10 -7.5q-16 -8 -35.5 -13t-40 -9t-40.5 -5.5t-37 -1.5q-58 0 -102 18t-74 51t-45 79.5t-15 103.5q0 54 16 100
t46.5 79.5t73.5 53t97 19.5q43 0 77 -14.5t59 -40.5q30 -31 43.5 -73.5t13.5 -91.5v-17zM382 287v14q0 25 -7 48.5t-21 40.5t-35.5 27.5t-49.5 10.5q-31 0 -55.5 -11.5t-41.5 -31t-27.5 -45t-13.5 -53.5h251zM396 607q0 -13 -5.5 -18.5t-23.5 -5.5h-210q-16 0 -21 6t-5 18
v17q0 11 4.5 16.5t21.5 5.5h210q18 0 23.5 -4.5t5.5 -17.5v-17z" />
    <glyph glyph-name="Ebreve" unicode="&#x114;" horiz-adv-x="510" 
d="M466 18q0 -18 -20 -18h-349q-13 0 -17 4t-4 17v648q0 20 19 20h352q11 0 14 -5t2 -14l-4 -38q-1 -11 -7.5 -13.5t-19.5 -2.5h-263v-219h235q20 0 20 -18v-36q0 -11 -4 -14.5t-15 -3.5h-236v-252h276q21 0 21 -17v-38zM401 861q0 -7 -1 -10q-4 -25 -19.5 -44.5
t-36.5 -31.5q-15 -8 -33.5 -13t-38.5 -5t-38.5 5t-33.5 13q-21 12 -36.5 31.5t-19.5 44.5q-1 3 -1 10q0 8 4 10.5t12 2.5h25q11 0 14.5 -3t8.5 -12q9 -19 27 -31.5t38 -12.5t38 12.5t27 31.5q5 9 8.5 12t14.5 3h25q8 0 12 -2.5t4 -10.5z" />
    <glyph glyph-name="ebreve" unicode="&#x115;" horiz-adv-x="499" 
d="M466 257q0 -17 -5 -22.5t-25 -5.5h-307q1 -36 11.5 -66.5t30.5 -53.5t49 -36t67 -13q31 0 62.5 5.5t57.5 15.5q7 2 13.5 2t8.5 -9l11 -37q2 -7 -1 -10.5t-10 -7.5q-16 -8 -35.5 -13t-40 -9t-40.5 -5.5t-37 -1.5q-58 0 -102 18t-74 51t-45 79.5t-15 103.5q0 54 16 100
t46.5 79.5t73.5 53t97 19.5q43 0 77 -14.5t59 -40.5q30 -31 43.5 -73.5t13.5 -91.5v-17zM382 287v14q0 25 -7 48.5t-21 40.5t-35.5 27.5t-49.5 10.5q-31 0 -55.5 -11.5t-41.5 -31t-27.5 -45t-13.5 -53.5h251zM396 662q0 -7 -1 -10q-4 -25 -19.5 -44.5t-36.5 -31.5
q-15 -8 -33.5 -13t-38.5 -5t-38.5 5t-33.5 13q-21 12 -36.5 31.5t-19.5 44.5q-1 3 -1 10q0 8 4 10.5t12 2.5h25q11 0 14.5 -3t8.5 -12q9 -19 27 -31.5t38 -12.5t38 12.5t27 31.5q5 9 8.5 12t14.5 3h25q8 0 12 -2.5t4 -10.5z" />
    <glyph glyph-name="Edotaccent" unicode="&#x116;" horiz-adv-x="510" 
d="M466 18q0 -18 -20 -18h-349q-13 0 -17 4t-4 17v648q0 20 19 20h352q11 0 14 -5t2 -14l-4 -38q-1 -11 -7.5 -13.5t-19.5 -2.5h-263v-219h235q20 0 20 -18v-36q0 -11 -4 -14.5t-15 -3.5h-236v-252h276q21 0 21 -17v-38zM332 836q0 -26 -19 -41t-39 -15q-10 0 -20.5 4
t-19.5 11t-14.5 17t-5.5 23q0 26 19 41t41 15q21 0 39.5 -14.5t18.5 -40.5z" />
    <glyph glyph-name="edotaccent" unicode="&#x117;" horiz-adv-x="499" 
d="M466 257q0 -17 -5 -22.5t-25 -5.5h-307q1 -36 11.5 -66.5t30.5 -53.5t49 -36t67 -13q31 0 62.5 5.5t57.5 15.5q7 2 13.5 2t8.5 -9l11 -37q2 -7 -1 -10.5t-10 -7.5q-16 -8 -35.5 -13t-40 -9t-40.5 -5.5t-37 -1.5q-58 0 -102 18t-74 51t-45 79.5t-15 103.5q0 54 16 100
t46.5 79.5t73.5 53t97 19.5q43 0 77 -14.5t59 -40.5q30 -31 43.5 -73.5t13.5 -91.5v-17zM382 287v14q0 25 -7 48.5t-21 40.5t-35.5 27.5t-49.5 10.5q-31 0 -55.5 -11.5t-41.5 -31t-27.5 -45t-13.5 -53.5h251zM308 639q0 -26 -19 -41t-39 -15q-10 0 -20.5 4t-19.5 11
t-14.5 17t-5.5 23q0 26 19 41t41 15q21 0 39.5 -14.5t18.5 -40.5z" />
    <glyph glyph-name="Eogonek" unicode="&#x118;" horiz-adv-x="510" 
d="M427 -171q0 -5 -2 -9t-10 -6q-16 -6 -38.5 -10.5t-42.5 -4.5q-51 0 -76 22.5t-25 54.5q0 22 7.5 40t21.5 33q14 16 32.5 28t38.5 23h-236q-13 0 -17 4t-4 17v648q0 20 19 20h352q11 0 14 -5t2 -14l-4 -38q-1 -11 -7.5 -13.5t-19.5 -2.5h-263v-219h235q20 0 20 -18v-36
q0 -11 -4 -14.5t-15 -3.5h-236v-252h276q21 0 21 -17v-38q0 -18 -20 -18h-54q-48 -35 -69 -59.5t-21 -49.5q0 -23 14.5 -32t37.5 -9q10 0 26.5 2.5t27.5 6.5q1 0 2 0.5t2 0.5q8 0 9 -7l5 -18q1 -2 1 -6z" />
    <glyph glyph-name="eogonek" unicode="&#x119;" horiz-adv-x="499" 
d="M346 -173q0 -5 -2 -9t-10 -6q-16 -6 -38.5 -10.5t-42.5 -4.5q-51 0 -76 23.5t-25 55.5q0 39 22.5 67.5t57.5 48.5v2q-94 13 -143 78.5t-49 169.5q0 54 16 100t46.5 79.5t73.5 53t97 19.5q43 0 77 -14.5t59 -40.5q30 -31 43.5 -73.5t13.5 -91.5v-17q0 -17 -5 -22.5
t-25 -5.5h-307q1 -36 11.5 -66.5t30.5 -53.5t49 -36t67 -13q31 0 63 5.5t57 15.5q8 2 10 2q9 0 12 -9l11 -37q1 -2 1 -5q0 -7 -12 -13q-15 -8 -30.5 -12l-30.5 -8l-28.5 -6t-28.5 -7q-28 -8 -45.5 -19.5t-27.5 -25t-13.5 -27t-3.5 -25.5q0 -23 14.5 -32t37.5 -9
q10 0 26.5 2.5t27.5 6.5q1 0 2 0.5t2 0.5q8 0 9 -7l5 -18q1 -2 1 -6zM382 287v14q0 25 -7 48.5t-21 40.5t-35.5 27.5t-49.5 10.5q-31 0 -55.5 -11.5t-41.5 -31t-27.5 -45t-13.5 -53.5h251z" />
    <glyph glyph-name="Ecaron" unicode="&#x11a;" horiz-adv-x="510" 
d="M466 18q0 -18 -20 -18h-349q-13 0 -17 4t-4 17v648q0 20 19 20h352q11 0 14 -5t2 -14l-4 -38q-1 -11 -7.5 -13.5t-19.5 -2.5h-263v-219h235q20 0 20 -18v-36q0 -11 -4 -14.5t-15 -3.5h-236v-252h276q21 0 21 -17v-38zM408 876q0 -6 -6 -12l-111 -100q-8 -7 -19 -7h-14
q-10 0 -20 8l-108 98q-6 6 -6 11q0 3 5 10l12 13q7 7 13 7q7 0 17 -8l94 -73l102 79q7 5 12 5t11 -6l13 -13q5 -5 5 -12z" />
    <glyph glyph-name="ecaron" unicode="&#x11b;" horiz-adv-x="499" 
d="M466 257q0 -17 -5 -22.5t-25 -5.5h-307q1 -36 11.5 -66.5t30.5 -53.5t49 -36t67 -13q31 0 62.5 5.5t57.5 15.5q7 2 13.5 2t8.5 -9l11 -37q2 -7 -1 -10.5t-10 -7.5q-16 -8 -35.5 -13t-40 -9t-40.5 -5.5t-37 -1.5q-58 0 -102 18t-74 51t-45 79.5t-15 103.5q0 54 16 100
t46.5 79.5t73.5 53t97 19.5q43 0 77 -14.5t59 -40.5q30 -31 43.5 -73.5t13.5 -91.5v-17zM382 287v14q0 25 -7 48.5t-21 40.5t-35.5 27.5t-49.5 10.5q-31 0 -55.5 -11.5t-41.5 -31t-27.5 -45t-13.5 -53.5h251zM411 668q0 -6 -6 -12l-111 -100q-8 -7 -19 -7h-14q-10 0 -20 8
l-108 98q-6 6 -6 11q0 3 5 10l12 13q7 7 13 7q7 0 17 -8l94 -73l102 79q7 5 12 5t11 -6l13 -13q5 -5 5 -12z" />
    <glyph glyph-name="Gcircumflex" unicode="&#x11c;" horiz-adv-x="658" 
d="M589 73q0 -16 -4 -23t-18 -15q-18 -10 -42 -18.5t-50 -14.5t-52.5 -9t-51.5 -3q-81 0 -141.5 26t-100.5 73t-60 112t-20 143q0 76 23 141.5t66 113.5t105 75t141 27q39 0 83.5 -8t82.5 -25q12 -6 12 -14q0 -2 -2 -10l-14 -39q-6 -16 -23 -9q-28 11 -66.5 19.5t-69.5 8.5
q-51 0 -91.5 -16.5t-69.5 -45.5q-39 -38 -58.5 -94t-19.5 -122q0 -56 12.5 -107.5t39.5 -90.5t69 -62t100 -23q33 0 67 6t60 19v237h-105q-10 0 -14 3t-4 15v38q0 10 4 13t14 3h179q11 0 15 -4t4 -15v-305zM502 782q0 -7 -5 -12l-13 -13q-6 -6 -11 -6t-12 5l-102 79l-94 -73
q-10 -8 -17 -8q-6 0 -13 7l-12 13q-5 7 -5 10q0 5 6 11l108 98q10 8 20 8h14q11 0 19 -7l111 -100q6 -6 6 -12z" />
    <glyph glyph-name="gcircumflex" unicode="&#x11d;" horiz-adv-x="540" 
d="M474 26q0 -58 -12.5 -104t-39.5 -77.5t-70 -48t-103 -16.5q-35 0 -72.5 9.5t-69.5 24.5q-12 6 -12 16q0 3 2 9l11 30q5 14 14 14q4 0 10 -3q27 -12 58 -21t57 -9q42 0 69 11t43.5 31.5t23 51t6.5 69.5v46q-24 -27 -64.5 -43t-78.5 -16q-53 0 -92 19t-64.5 52t-37.5 77
t-12 93q0 50 14 96t42 81t68.5 55.5t94.5 20.5q35 0 72.5 -15t59.5 -44l1 31q0 17 20 17h44q18 0 18 -20v-437zM389 357q-17 29 -50 49t-70 20q-38 0 -65 -15.5t-43.5 -40.5t-24 -57.5t-7.5 -66.5q0 -32 6.5 -63.5t22 -57t40.5 -41t62 -15.5q36 0 73 18t56 45v225zM412 582
q0 -7 -5 -12l-13 -13q-6 -6 -11 -6t-12 5l-102 79l-94 -73q-10 -8 -17 -8q-6 0 -13 7l-12 13q-5 7 -5 10q0 5 6 11l108 98q10 8 20 8h14q11 0 19 -7l111 -100q6 -6 6 -12z" />
    <glyph glyph-name="Gbreve" unicode="&#x11e;" horiz-adv-x="658" 
d="M589 73q0 -16 -4 -23t-18 -15q-18 -10 -42 -18.5t-50 -14.5t-52.5 -9t-51.5 -3q-81 0 -141.5 26t-100.5 73t-60 112t-20 143q0 76 23 141.5t66 113.5t105 75t141 27q39 0 83.5 -8t82.5 -25q12 -6 12 -14q0 -2 -2 -10l-14 -39q-6 -16 -23 -9q-28 11 -66.5 19.5t-69.5 8.5
q-51 0 -91.5 -16.5t-69.5 -45.5q-39 -38 -58.5 -94t-19.5 -122q0 -56 12.5 -107.5t39.5 -90.5t69 -62t100 -23q33 0 67 6t60 19v237h-105q-10 0 -14 3t-4 15v38q0 10 4 13t14 3h179q11 0 15 -4t4 -15v-305zM492 860q0 -7 -1 -10q-4 -25 -19.5 -44.5t-36.5 -31.5
q-15 -8 -33.5 -13t-38.5 -5t-38.5 5t-33.5 13q-21 12 -36.5 31.5t-19.5 44.5q-1 3 -1 10q0 8 4 10.5t12 2.5h25q11 0 14.5 -3t8.5 -12q9 -19 27 -31.5t38 -12.5t38 12.5t27 31.5q5 9 8.5 12t14.5 3h25q8 0 12 -2.5t4 -10.5z" />
    <glyph glyph-name="gbreve" unicode="&#x11f;" horiz-adv-x="540" 
d="M474 26q0 -58 -12.5 -104t-39.5 -77.5t-70 -48t-103 -16.5q-35 0 -72.5 9.5t-69.5 24.5q-12 6 -12 16q0 3 2 9l11 30q5 14 14 14q4 0 10 -3q27 -12 58 -21t57 -9q42 0 69 11t43.5 31.5t23 51t6.5 69.5v46q-24 -27 -64.5 -43t-78.5 -16q-53 0 -92 19t-64.5 52t-37.5 77
t-12 93q0 50 14 96t42 81t68.5 55.5t94.5 20.5q35 0 72.5 -15t59.5 -44l1 31q0 17 20 17h44q18 0 18 -20v-437zM389 357q-17 29 -50 49t-70 20q-38 0 -65 -15.5t-43.5 -40.5t-24 -57.5t-7.5 -66.5q0 -32 6.5 -63.5t22 -57t40.5 -41t62 -15.5q36 0 73 18t56 45v225zM399 662
q0 -7 -1 -10q-4 -25 -19.5 -44.5t-36.5 -31.5q-15 -8 -33.5 -13t-38.5 -5t-38.5 5t-33.5 13q-21 12 -36.5 31.5t-19.5 44.5q-1 3 -1 10q0 8 4 10.5t12 2.5h25q11 0 14.5 -3t8.5 -12q9 -19 27 -31.5t38 -12.5t38 12.5t27 31.5q5 9 8.5 12t14.5 3h25q8 0 12 -2.5t4 -10.5z" />
    <glyph glyph-name="Gdotaccent" unicode="&#x120;" horiz-adv-x="658" 
d="M589 73q0 -16 -4 -23t-18 -15q-18 -10 -42 -18.5t-50 -14.5t-52.5 -9t-51.5 -3q-81 0 -141.5 26t-100.5 73t-60 112t-20 143q0 76 23 141.5t66 113.5t105 75t141 27q39 0 83.5 -8t82.5 -25q12 -6 12 -14q0 -2 -2 -10l-14 -39q-6 -16 -23 -9q-28 11 -66.5 19.5t-69.5 8.5
q-51 0 -91.5 -16.5t-69.5 -45.5q-39 -38 -58.5 -94t-19.5 -122q0 -56 12.5 -107.5t39.5 -90.5t69 -62t100 -23q33 0 67 6t60 19v237h-105q-10 0 -14 3t-4 15v38q0 10 4 13t14 3h179q11 0 15 -4t4 -15v-305zM408 835q0 -26 -19 -41t-39 -15q-10 0 -20.5 4t-19.5 11t-14.5 17
t-5.5 23q0 26 19 41t41 15q21 0 39.5 -14.5t18.5 -40.5z" />
    <glyph glyph-name="gdotaccent" unicode="&#x121;" horiz-adv-x="540" 
d="M474 26q0 -58 -12.5 -104t-39.5 -77.5t-70 -48t-103 -16.5q-35 0 -72.5 9.5t-69.5 24.5q-12 6 -12 16q0 3 2 9l11 30q5 14 14 14q4 0 10 -3q27 -12 58 -21t57 -9q42 0 69 11t43.5 31.5t23 51t6.5 69.5v46q-24 -27 -64.5 -43t-78.5 -16q-53 0 -92 19t-64.5 52t-37.5 77
t-12 93q0 50 14 96t42 81t68.5 55.5t94.5 20.5q35 0 72.5 -15t59.5 -44l1 31q0 17 20 17h44q18 0 18 -20v-437zM389 357q-17 29 -50 49t-70 20q-38 0 -65 -15.5t-43.5 -40.5t-24 -57.5t-7.5 -66.5q0 -32 6.5 -63.5t22 -57t40.5 -41t62 -15.5q36 0 73 18t56 45v225zM329 639
q0 -26 -19 -41t-39 -15q-10 0 -20.5 4t-19.5 11t-14.5 17t-5.5 23q0 26 19 41t41 15q21 0 39.5 -14.5t18.5 -40.5z" />
    <glyph glyph-name="Gcommaaccent" unicode="&#x122;" horiz-adv-x="658" 
d="M589 73q0 -16 -4 -23t-18 -15q-18 -10 -42 -18.5t-50 -14.5t-52.5 -9t-51.5 -3q-81 0 -141.5 26t-100.5 73t-60 112t-20 143q0 76 23 141.5t66 113.5t105 75t141 27q39 0 83.5 -8t82.5 -25q12 -6 12 -14q0 -2 -2 -10l-14 -39q-6 -16 -23 -9q-28 11 -66.5 19.5t-69.5 8.5
q-51 0 -91.5 -16.5t-69.5 -45.5q-39 -38 -58.5 -94t-19.5 -122q0 -56 12.5 -107.5t39.5 -90.5t69 -62t100 -23q33 0 67 6t60 19v237h-105q-10 0 -14 3t-4 15v38q0 10 4 13t14 3h179q11 0 15 -4t4 -15v-305zM409 -94q0 -35 -19 -68.5t-46 -53.5q-7 -4 -12 -4t-9 6l-6 6l-2 4
t-1 4t5 7q11 11 19.5 24.5t8.5 28.5q0 8 -4 14.5t-9.5 13.5t-9.5 14t-4 16q0 19 12 30.5t31 11.5q21 0 33.5 -17t12.5 -37z" />
    <glyph glyph-name="gcommaaccent" unicode="&#x123;" horiz-adv-x="540" 
d="M474 26q0 -58 -12.5 -104t-39.5 -77.5t-70 -48t-103 -16.5q-35 0 -72.5 9.5t-69.5 24.5q-12 6 -12 16q0 3 2 9l11 30q5 14 14 14q4 0 10 -3q27 -12 58 -21t57 -9q42 0 69 11t43.5 31.5t23 51t6.5 69.5v46q-24 -27 -64.5 -43t-78.5 -16q-53 0 -92 19t-64.5 52t-37.5 77
t-12 93q0 50 14 96t42 81t68.5 55.5t94.5 20.5q35 0 72.5 -15t59.5 -44l1 31q0 17 20 17h44q18 0 18 -20v-437zM389 357q-17 29 -50 49t-70 20q-38 0 -65 -15.5t-43.5 -40.5t-24 -57.5t-7.5 -66.5q0 -32 6.5 -63.5t22 -57t40.5 -41t62 -15.5q36 0 73 18t56 45v225zM217 602
q0 35 19 68.5t46 53.5q7 4 12 4q4 0 9 -6l6 -6l2 -4t1 -4t-5 -7q-11 -11 -19.5 -24.5t-8.5 -28.5q0 -8 4 -14.5t9.5 -13.5t9.5 -14t4 -16q0 -19 -12 -30.5t-31 -11.5q-21 0 -33.5 17t-12.5 37z" />
    <glyph glyph-name="Hcircumflex" unicode="&#x124;" horiz-adv-x="659" 
d="M583 21q0 -21 -19 -21h-54q-20 0 -20 21v304h-322v-304q0 -21 -20 -21h-53q-20 0 -20 21v648q0 20 20 20h53q20 0 20 -20v-272h322v272q0 20 20 20h54q19 0 19 -20v-648zM471 782q0 -7 -5 -12l-13 -13q-6 -6 -11 -6t-12 5l-102 79l-94 -73q-10 -8 -17 -8q-6 0 -13 7
l-12 13q-5 7 -5 10q0 5 6 11l108 98q10 8 20 8h14q11 0 19 -7l111 -100q6 -6 6 -12z" />
    <glyph glyph-name="hcircumflex" unicode="&#x125;" horiz-adv-x="540" 
d="M473 19q0 -19 -16 -19h-52q-17 0 -17 19v282q0 26 -4 48.5t-15 39t-29.5 25.5t-48.5 9q-17 0 -36 -4.5t-37.5 -12.5t-35.5 -18.5t-30 -22.5v-346q0 -19 -17 -19h-52q-16 0 -16 18v665q0 11 5 15t14 6q29 4 39 5.5t12 1.5q15 0 15 -17v-259q33 29 77.5 44t86.5 15
q86 0 121.5 -48.5t35.5 -130.5v-296zM255 723q0 -7 -5 -12l-13 -13q-6 -6 -11 -6t-12 5l-102 79l-94 -73q-10 -8 -17 -8q-6 0 -13 7l-12 13q-5 7 -5 10q0 5 6 11l108 98q10 8 20 8h14q11 0 19 -7l111 -100q6 -6 6 -12z" />
    <glyph glyph-name="Hbar" unicode="&#x126;" horiz-adv-x="659" 
d="M583 583h28q14 0 18 -4t4 -16v-32q0 -12 -4 -17t-16 -5h-30v-488q0 -21 -19 -21h-54q-20 0 -20 21v304h-322v-304q0 -21 -20 -21h-53q-20 0 -20 21v488h-27q-14 0 -18 4.5t-4 14.5v37q0 11 4.5 14.5t15.5 3.5h29v86q0 20 20 20h53q20 0 20 -20v-86h322v86q0 20 20 20h54
q19 0 19 -20v-86zM490 397v112h-322v-112h322z" />
    <glyph glyph-name="hbar" unicode="&#x127;" horiz-adv-x="540" 
d="M473 19q0 -19 -16 -19h-52q-17 0 -17 19v282q0 26 -4 48.5t-15 39t-29.5 25.5t-48.5 9q-17 0 -36 -4.5t-37.5 -12.5t-35.5 -18.5t-30 -22.5v-346q0 -19 -17 -19h-52q-16 0 -16 18v549h-23q-14 0 -18 4.5t-4 14.5v37q0 11 4.5 14.5t15.5 3.5h25v42q0 11 5 15t14 6
q29 4 39 5.5t12 1.5q15 0 15 -17v-53h175q14 0 18 -4t4 -16v-32q0 -12 -4 -17t-16 -5h-177v-132q33 29 77.5 44t86.5 15q86 0 121.5 -48.5t35.5 -130.5v-296z" />
    <glyph glyph-name="Itilde" unicode="&#x128;" horiz-adv-x="371" 
d="M307 643q0 -11 -3.5 -13.5t-13.5 -2.5h-61v-564h60q17 0 17 -15v-32q0 -16 -14 -16h-213q-15 0 -15 15v34q0 8 3 11t12 3h60v564h-64q-15 0 -15 14v33q0 15 14 15h216q17 0 17 -14v-32zM347 829q0 -8 -8 -14q-23 -17 -49 -30.5t-55 -13.5q-15 0 -28 6t-26 13.5t-25.5 14
t-25.5 6.5t-29.5 -6.5t-35.5 -17.5q-11 -6 -16 -6q-8 0 -12 10l-9 23q-2 4 -3 6.5t-1 4.5q0 7 14 16q20 13 44 22.5t47 9.5q15 0 30.5 -6t29.5 -13l27 -13t24 -6t28.5 8.5t33.5 18.5q9 5 15 5q8 0 14 -9l11 -17q5 -8 5 -12z" />
    <glyph glyph-name="itilde" unicode="&#x129;" horiz-adv-x="261" 
d="M173 21q0 -21 -19 -21h-46q-20 0 -20 21v442q0 20 20 20h46q19 0 19 -20v-442zM292 630q0 -8 -8 -14q-23 -17 -49 -30.5t-55 -13.5q-15 0 -28 6t-26 13.5t-25.5 14t-25.5 6.5t-29.5 -6.5t-35.5 -17.5q-11 -6 -16 -6q-8 0 -12 10l-9 23q-2 4 -3 6.5t-1 4.5q0 7 14 16
q20 13 44 22.5t47 9.5q15 0 30.5 -6t29.5 -13l27 -13t24 -6t28.5 8.5t33.5 18.5q9 5 15 5q8 0 14 -9l11 -17q5 -8 5 -12z" />
    <glyph glyph-name="Imacron" unicode="&#x12a;" horiz-adv-x="371" 
d="M307 643q0 -11 -3.5 -13.5t-13.5 -2.5h-61v-564h60q17 0 17 -15v-32q0 -16 -14 -16h-213q-15 0 -15 15v34q0 8 3 11t12 3h60v564h-64q-15 0 -15 14v33q0 15 14 15h216q17 0 17 -14v-32zM318 804q0 -13 -5.5 -18.5t-23.5 -5.5h-210q-16 0 -21 6t-5 18v17q0 11 4.5 16.5
t21.5 5.5h210q18 0 23.5 -4.5t5.5 -17.5v-17z" />
    <glyph glyph-name="imacron" unicode="&#x12b;" horiz-adv-x="245" 
d="M165 21q0 -21 -19 -21h-46q-20 0 -20 21v442q0 20 20 20h46q19 0 19 -20v-442zM255 607q0 -13 -5.5 -18.5t-23.5 -5.5h-210q-16 0 -21 6t-5 18v17q0 11 4.5 16.5t21.5 5.5h210q18 0 23.5 -4.5t5.5 -17.5v-17z" />
    <glyph glyph-name="Ibreve" unicode="&#x12c;" horiz-adv-x="371" 
d="M307 643q0 -11 -3.5 -13.5t-13.5 -2.5h-61v-564h60q17 0 17 -15v-32q0 -16 -14 -16h-213q-15 0 -15 15v34q0 8 3 11t12 3h60v564h-64q-15 0 -15 14v33q0 15 14 15h216q17 0 17 -14v-32zM314 862q0 -7 -1 -10q-4 -25 -19.5 -44.5t-36.5 -31.5q-15 -8 -33.5 -13t-38.5 -5
t-38.5 5t-33.5 13q-21 12 -36.5 31.5t-19.5 44.5q-1 3 -1 10q0 8 4 10.5t12 2.5h25q11 0 14.5 -3t8.5 -12q9 -19 27 -31.5t38 -12.5t38 12.5t27 31.5q5 9 8.5 12t14.5 3h25q8 0 12 -2.5t4 -10.5z" />
    <glyph glyph-name="ibreve" unicode="&#x12d;" horiz-adv-x="243" 
d="M164 21q0 -21 -19 -21h-46q-20 0 -20 21v442q0 20 20 20h46q19 0 19 -20v-442zM251 662q0 -7 -1 -10q-4 -25 -19.5 -44.5t-36.5 -31.5q-15 -8 -33.5 -13t-38.5 -5t-38.5 5t-33.5 13q-21 12 -36.5 31.5t-19.5 44.5q-1 3 -1 10q0 8 4 10.5t12 2.5h25q11 0 14.5 -3t8.5 -12
q9 -19 27 -31.5t38 -12.5t38 12.5t27 31.5q5 9 8.5 12t14.5 3h25q8 0 12 -2.5t4 -10.5z" />
    <glyph glyph-name="Iogonek" unicode="&#x12e;" horiz-adv-x="371" 
d="M262 -171q0 -5 -2 -9t-10 -6q-16 -6 -38.5 -10.5t-42.5 -4.5q-51 0 -76 22.5t-25 54.5q0 22 7.5 40t21.5 33q14 16 32.5 28t38.5 23h-89q-15 0 -15 15v34q0 8 3 11t12 3h60v564h-64q-15 0 -15 14v33q0 15 14 15h216q17 0 17 -14v-32q0 -11 -3.5 -13.5t-13.5 -2.5h-61
v-564h60q17 0 17 -15v-32q0 -16 -14 -16h-65q-48 -35 -69 -59.5t-21 -49.5q0 -23 14.5 -32t37.5 -9q10 0 26.5 2.5t27.5 6.5q1 0 2 0.5t2 0.5q8 0 9 -7l5 -18q1 -2 1 -6z" />
    <glyph glyph-name="iogonek" unicode="&#x12f;" horiz-adv-x="237" 
d="M180 -167q0 -5 -2 -9t-10 -6q-16 -6 -38.5 -10.5t-42.5 -4.5q-51 0 -76 24t-25 56q0 41 26 71t64 55v454q0 20 20 20h46q19 0 19 -20v-442q0 -12 -4 -15.5t-12 -5.5q-20 -6 -32.5 -13.5t-23.5 -17.5q-20 -18 -27 -35.5t-7 -34.5q0 -25 14.5 -35t37.5 -10q10 0 26.5 2.5
t27.5 6.5q1 0 2 0.5t2 0.5q8 0 9 -7l5 -18q1 -2 1 -6zM170 601q0 -22 -16 -35t-36 -13t-35.5 13t-15.5 35t15.5 35t35.5 13t36 -13t16 -35z" />
    <glyph glyph-name="Idotaccent" unicode="&#x130;" horiz-adv-x="371" 
d="M307 643q0 -11 -3.5 -13.5t-13.5 -2.5h-61v-564h60q17 0 17 -15v-32q0 -16 -14 -16h-213q-15 0 -15 15v34q0 8 3 11t12 3h60v564h-64q-15 0 -15 14v33q0 15 14 15h216q17 0 17 -14v-32zM244 836q0 -26 -19 -41t-39 -15q-10 0 -20.5 4t-19.5 11t-14.5 17t-5.5 23
q0 26 19 41t41 15q21 0 39.5 -14.5t18.5 -40.5z" />
    <glyph glyph-name="dotlessi" unicode="&#x131;" horiz-adv-x="237" 
d="M161 21q0 -21 -19 -21h-46q-20 0 -20 21v442q0 20 20 20h46q19 0 19 -20v-442z" />
    <glyph glyph-name="IJ" unicode="&#x132;" horiz-adv-x="757" 
d="M307 643q0 -11 -3.5 -13.5t-13.5 -2.5h-61v-564h60q17 0 17 -15v-32q0 -16 -14 -16h-213q-15 0 -15 15v34q0 8 3 11t12 3h60v564h-64q-15 0 -15 14v33q0 15 14 15h216q17 0 17 -14v-32zM679 231q0 -67 -11 -119t-48 -83q-22 -18 -54 -28t-78 -10q-10 0 -29 2t-32 5
q-11 2 -12 6.5t1 12.5l8 41q2 9 6.5 10.5t11.5 -0.5q28 -5 49 -5q24 0 45.5 8t32.5 25t15.5 45.5t4.5 66.5v419h-112q-11 0 -15 4.5t-4 12.5v30q0 8 4 11.5t15 3.5h183q19 0 19 -19v-439z" />
    <glyph glyph-name="ij" unicode="&#x133;" horiz-adv-x="499" 
d="M170 601q0 -22 -16 -35t-36 -13t-35.5 13t-15.5 35t15.5 35t35.5 13t36 -13t16 -35zM161 21q0 -21 -19 -21h-46q-20 0 -20 21v442q0 20 20 20h46q19 0 19 -20v-442zM433 601q0 -22 -15.5 -35.5t-35.5 -13.5t-35.5 13t-15.5 35t15.5 35.5t35.5 13.5t35.5 -13t15.5 -35z
M423 25q0 -66 -11.5 -115t-41.5 -81q-23 -23 -53 -35.5t-80 -12.5q-26 0 -56 6q-8 2 -10 7.5t-1 11.5l6 36q1 7 5.5 9t9.5 1q14 -2 26 -3.5t23 -1.5q46 0 70 30q17 20 22.5 54t5.5 81v452q0 19 19 19h48q18 0 18 -19v-439z" />
    <glyph glyph-name="Jcircumflex" unicode="&#x134;" horiz-adv-x="386" 
d="M308 231q0 -67 -11 -119t-48 -83q-22 -18 -54 -28t-78 -10q-10 0 -29 2t-32 5q-11 2 -12 6.5t1 12.5l8 41q2 9 6.5 10.5t11.5 -0.5q28 -5 49 -5q24 0 45.5 8t32.5 25t15.5 45.5t4.5 66.5v419h-112q-11 0 -15 4.5t-4 12.5v30q0 8 4 11.5t15 3.5h183q19 0 19 -19v-439z
M335 782q0 -7 -5 -12l-13 -13q-6 -6 -11 -6t-12 5l-102 79l-94 -73q-10 -8 -17 -8q-6 0 -13 7l-12 13q-5 7 -5 10q0 5 6 11l108 98q10 8 20 8h14q11 0 19 -7l111 -100q6 -6 6 -12z" />
    <glyph glyph-name="jcircumflex" unicode="&#x135;" horiz-adv-x="262" 
d="M186 25q0 -66 -11.5 -115t-41.5 -81q-23 -23 -53 -35.5t-80 -12.5q-25 0 -56 6q-11 1 -11 14v5l6 36q1 10 12 10h3q14 -2 26 -3.5t23 -1.5q46 0 70 30q17 20 22.5 54t5.5 81v452q0 19 19 19h48q18 0 18 -19v-439zM273 582q0 -7 -5 -12l-13 -13q-6 -6 -11 -6t-12 5
l-102 79l-94 -73q-10 -8 -17 -8q-6 0 -13 7l-12 13q-5 7 -5 10q0 5 6 11l108 98q10 8 20 8h14q11 0 19 -7l111 -100q6 -6 6 -12z" />
    <glyph glyph-name="Kcommaaccent" unicode="&#x136;" horiz-adv-x="549" 
d="M539 8q0 -8 -13 -8h-68q-14 0 -21.5 4t-16.5 15l-250 300h-1v-298q0 -21 -19 -21h-55q-19 0 -19 21v648q0 20 19 20h55q19 0 19 -20v-290h1l241 297q12 13 28 13h56q12 0 12 -10q0 -4 -3 -8l-256 -313l283 -334q8 -10 8 -16zM321 -94q0 -35 -19 -68.5t-46 -53.5
q-7 -4 -12 -4t-9 6l-6 6l-2 4t-1 4t5 7q11 11 19.5 24.5t8.5 28.5q0 8 -4 14.5t-9.5 13.5t-9.5 14t-4 16q0 19 12 30.5t31 11.5q21 0 33.5 -17t12.5 -37z" />
    <glyph glyph-name="kcommaaccent" unicode="&#x137;" horiz-adv-x="443" 
d="M355 0q-21 0 -32 17l-149 224l-22 -22v-197q0 -22 -20 -22h-47q-18 0 -18 20v664q0 17 16 20q18 3 28 4.5t15 2t6.5 1t2.5 0.5q17 0 17 -19v-403h2l155 182q10 11 21 11h65q8 0 9 -5t-4 -10l-158 -180l179 -263q7 -10 5.5 -17.5t-16.5 -7.5h-55zM277 -94q0 -35 -19 -68.5
t-46 -53.5q-7 -4 -12 -4t-9 6l-6 6l-2 4t-1 4t5 7q11 11 19.5 24.5t8.5 28.5q0 8 -4 14.5t-9.5 13.5t-9.5 14t-4 16q0 19 12 30.5t31 11.5q21 0 33.5 -17t12.5 -37z" />
    <glyph glyph-name="kgreenlandic" unicode="&#x138;" horiz-adv-x="473" 
d="M152 272l177 200q10 11 21 11h65q8 0 9 -5t-4 -10l-171 -189l192 -254q8 -10 6 -17.5t-17 -7.5h-55q-20 0 -32 17l-154 207l-37 -40v-162q0 -22 -20 -22h-47q-18 0 -18 20v443q0 20 20 20h46q19 0 19 -20v-191z" />
    <glyph glyph-name="Lacute" unicode="&#x139;" horiz-adv-x="454" 
d="M439 17q0 -17 -17 -17h-326q-20 0 -20 22v646q0 21 19 21h54q20 0 20 -21v-594h251q19 0 19 -16v-41zM261 847q0 -9 -10 -13l-151 -75q-8 -3 -12 -3q-8 0 -14 9l-12 18q-4 5 -4 10q0 8 9 13l140 90q9 6 14 6q8 0 15 -10l21 -33q4 -5 4 -12z" />
    <glyph glyph-name="lacute" unicode="&#x13a;" horiz-adv-x="219" 
d="M152 21q0 -21 -18 -21h-49q-18 0 -18 20v664q0 11 3 14.5t12 5.5q19 3 30 4t16 2t6.5 1h2.5q15 0 15 -17v-673zM221 846q0 -9 -10 -13l-151 -75q-8 -3 -12 -3q-8 0 -14 9l-12 18q-4 5 -4 10q0 8 9 13l140 90q9 6 14 6q8 0 15 -10l21 -33q4 -5 4 -12z" />
    <glyph glyph-name="Lcommaaccent" unicode="&#x13b;" horiz-adv-x="454" 
d="M439 17q0 -17 -17 -17h-326q-20 0 -20 22v646q0 21 19 21h54q20 0 20 -21v-594h251q19 0 19 -16v-41zM320 -94q0 -35 -19 -68.5t-46 -53.5q-7 -4 -12 -4t-9 6l-6 6l-2 4t-1 4t5 7q11 11 19.5 24.5t8.5 28.5q0 8 -4 14.5t-9.5 13.5t-9.5 14t-4 16q0 19 12 30.5t31 11.5
q21 0 33.5 -17t12.5 -37z" />
    <glyph glyph-name="lcommaaccent" unicode="&#x13c;" horiz-adv-x="219" 
d="M152 21q0 -21 -18 -21h-49q-18 0 -18 20v664q0 11 3 14.5t12 5.5q19 3 30 4t16 2t6.5 1h2.5q15 0 15 -17v-673zM156 -94q0 -35 -19 -68.5t-46 -53.5q-7 -4 -12 -4t-9 6l-6 6l-2 4t-1 4t5 7q11 11 19.5 24.5t8.5 28.5q0 8 -4 14.5t-9.5 13.5t-9.5 14t-4 16q0 19 12 30.5
t31 11.5q21 0 33.5 -17t12.5 -37z" />
    <glyph glyph-name="Lcaron" unicode="&#x13d;" horiz-adv-x="454" 
d="M439 17q0 -17 -17 -17h-326q-20 0 -20 22v646q0 21 19 21h54q20 0 20 -21v-594h251q19 0 19 -16v-41zM397 642q0 -35 -19 -68.5t-46 -53.5q-7 -4 -12 -4t-9 6l-6 6l-2 4t-1 4t5 7q11 11 19.5 24.5t8.5 28.5q0 8 -4 14.5t-9.5 13.5t-9.5 14t-4 16q0 19 12 30.5t31 11.5
q21 0 33.5 -17t12.5 -37z" />
    <glyph glyph-name="lcaron" unicode="&#x13e;" horiz-adv-x="271" 
d="M152 21q0 -21 -18 -21h-49q-18 0 -18 20v664q0 11 3 14.5t12 5.5q19 3 30 4t16 2t6.5 1h2.5q15 0 15 -17v-673zM301 656q0 -35 -19 -68.5t-46 -53.5q-7 -4 -12 -4t-9 6l-6 6l-2 4t-1 4t5 7q11 11 19.5 24.5t8.5 28.5q0 8 -4 14.5t-9.5 13.5t-9.5 14t-4 16q0 19 12 30.5
t31 11.5q21 0 33.5 -17t12.5 -37z" />
    <glyph glyph-name="Ldot" unicode="&#x13f;" horiz-adv-x="454" 
d="M439 17q0 -17 -17 -17h-326q-20 0 -20 22v646q0 21 19 21h54q20 0 20 -21v-594h251q19 0 19 -16v-41zM397 374q0 -26 -19 -41t-39 -15q-10 0 -20.5 4t-19.5 11t-14.5 17t-5.5 23q0 26 19 41t41 15q21 0 39.5 -14.5t18.5 -40.5z" />
    <glyph glyph-name="ldot" unicode="&#x140;" horiz-adv-x="294" 
d="M152 21q0 -21 -18 -21h-49q-18 0 -18 20v664q0 11 3 14.5t12 5.5q19 3 30 4t16 2t6.5 1h2.5q15 0 15 -17v-673zM320 369q0 -26 -19 -41t-39 -15q-10 0 -20.5 4t-19.5 11t-14.5 17t-5.5 23q0 26 19 41t41 15q21 0 39.5 -14.5t18.5 -40.5z" />
    <glyph glyph-name="Lslash" unicode="&#x141;" horiz-adv-x="454" 
d="M439 17q0 -17 -17 -17h-326q-20 0 -20 22v236l-67 -55q-6 -5 -12 -5q-10 0 -10 14v37q0 11 6 16l14 12l69 57v334q0 21 19 21h54q20 0 20 -21v-257l80 66q7 6 13 6q9 0 9 -16v-32q0 -12 -5.5 -18t-14.5 -14l-82 -68v-261h251q19 0 19 -16v-41z" />
    <glyph glyph-name="lslash" unicode="&#x142;" horiz-adv-x="284" 
d="M284 435q0 -12 -5.5 -18t-14.5 -14l-84 -69v-313q0 -21 -18 -21h-49q-18 0 -18 20v243l-73 -60q-11 -8 -16.5 -4.5t-5.5 13.5v37q0 11 6 16l14 12l75 62v345q0 11 3 14.5t12 5.5l50 7h5q15 0 15 -17v-285l82 68q11 9 16.5 5.5t5.5 -15.5v-32z" />
    <glyph glyph-name="Nacute" unicode="&#x143;" horiz-adv-x="695" 
d="M619 21q0 -13 -4 -17t-13 -4h-46q-16 0 -30 19l-361 506h-2v-504q0 -21 -20 -21h-46q-20 0 -20 21v647q0 21 20 21h40q9 0 14.5 -3t11.5 -12l368 -517h2v511q0 12 4.5 16.5t14.5 4.5h48q11 0 15 -5t4 -16v-647zM477 847q0 -9 -10 -13l-151 -75q-8 -3 -12 -3q-8 0 -14 9
l-12 18q-4 5 -4 10q0 8 9 13l140 90q9 6 14 6q8 0 15 -10l21 -33q4 -5 4 -12z" />
    <glyph glyph-name="nacute" unicode="&#x144;" horiz-adv-x="539" 
d="M473 21q0 -21 -19 -21h-47q-19 0 -19 21v280q0 27 -4 49t-15 38.5t-30 25.5t-49 9q-17 0 -36 -4.5t-37 -12.5t-35 -18.5t-30 -22.5v-344q0 -21 -19 -21h-47q-19 0 -19 20v443q0 20 19 20h44q19 0 19 -18l1 -31q35 29 77.5 44.5t86.5 15.5q86 0 122.5 -48.5t36.5 -130.5
v-294zM404 646q0 -9 -10 -13l-151 -75q-8 -3 -12 -3q-8 0 -14 9l-12 18q-4 5 -4 10q0 8 9 13l140 90q9 6 14 6q8 0 15 -10l21 -33q4 -5 4 -12z" />
    <glyph glyph-name="Ncommaaccent" unicode="&#x145;" horiz-adv-x="695" 
d="M619 21q0 -13 -4 -17t-13 -4h-46q-16 0 -30 19l-361 506h-2v-504q0 -21 -20 -21h-46q-20 0 -20 21v647q0 21 20 21h40q9 0 14.5 -3t11.5 -12l368 -517h2v511q0 12 4.5 16.5t14.5 4.5h48q11 0 15 -5t4 -16v-647zM376 -94q0 -35 -19 -68.5t-46 -53.5q-7 -4 -12 -4t-9 6
l-6 6l-2 4t-1 4t5 7q11 11 19.5 24.5t8.5 28.5q0 8 -4 14.5t-9.5 13.5t-9.5 14t-4 16q0 19 12 30.5t31 11.5q21 0 33.5 -17t12.5 -37z" />
    <glyph glyph-name="ncommaaccent" unicode="&#x146;" horiz-adv-x="539" 
d="M473 21q0 -21 -19 -21h-47q-19 0 -19 21v280q0 27 -4 49t-15 38.5t-30 25.5t-49 9q-17 0 -36 -4.5t-37 -12.5t-35 -18.5t-30 -22.5v-344q0 -21 -19 -21h-47q-19 0 -19 20v443q0 20 19 20h44q19 0 19 -18l1 -31q35 29 77.5 44.5t86.5 15.5q86 0 122.5 -48.5t36.5 -130.5
v-294zM310 -94q0 -35 -19 -68.5t-46 -53.5q-7 -4 -12 -4t-9 6l-6 6l-2 4t-1 4t5 7q11 11 19.5 24.5t8.5 28.5q0 8 -4 14.5t-9.5 13.5t-9.5 14t-4 16q0 19 12 30.5t31 11.5q21 0 33.5 -17t12.5 -37z" />
    <glyph glyph-name="Ncaron" unicode="&#x147;" horiz-adv-x="695" 
d="M619 21q0 -13 -4 -17t-13 -4h-46q-16 0 -30 19l-361 506h-2v-504q0 -21 -20 -21h-46q-20 0 -20 21v647q0 21 20 21h40q9 0 14.5 -3t11.5 -12l368 -517h2v511q0 12 4.5 16.5t14.5 4.5h48q11 0 15 -5t4 -16v-647zM491 868q0 -6 -6 -12l-111 -100q-8 -7 -19 -7h-14
q-10 0 -20 8l-108 98q-6 6 -6 11q0 3 5 10l12 13q7 7 13 7q7 0 17 -8l94 -73l102 79q7 5 12 5t11 -6l13 -13q5 -5 5 -12z" />
    <glyph glyph-name="ncaron" unicode="&#x148;" horiz-adv-x="539" 
d="M473 21q0 -21 -19 -21h-47q-19 0 -19 21v280q0 27 -4 49t-15 38.5t-30 25.5t-49 9q-17 0 -36 -4.5t-37 -12.5t-35 -18.5t-30 -22.5v-344q0 -21 -19 -21h-47q-19 0 -19 20v443q0 20 19 20h44q19 0 19 -18l1 -31q35 29 77.5 44.5t86.5 15.5q86 0 122.5 -48.5t36.5 -130.5
v-294zM410 668q0 -6 -6 -12l-111 -100q-8 -7 -19 -7h-14q-10 0 -20 8l-108 98q-6 6 -6 11q0 3 5 10l12 13q7 7 13 7q7 0 17 -8l94 -73l102 79q7 5 12 5t11 -6l13 -13q5 -5 5 -12z" />
    <glyph glyph-name="napostrophe" unicode="&#x149;" horiz-adv-x="538" 
d="M473 21q0 -21 -19 -21h-47q-19 0 -19 21v280q0 27 -4 49t-15 38.5t-30 25.5t-49 9q-17 0 -36 -4.5t-37 -12.5t-35 -18.5t-30 -22.5v-344q0 -21 -19 -21h-47q-19 0 -19 20v443q0 20 19 20h44q19 0 19 -18l1 -31q35 29 77.5 44.5t86.5 15.5q86 0 122.5 -48.5t36.5 -130.5
v-294zM45 656q0 -35 -19 -68.5t-46 -53.5q-7 -4 -12 -4t-9 6l-6 6l-2 4t-1 4t5 7q11 11 19.5 24.5t8.5 28.5q0 8 -4 14.5t-9.5 13.5t-9.5 14t-4 16q0 19 12 30.5t31 11.5q21 0 33.5 -17t12.5 -37z" />
    <glyph glyph-name="Eng" unicode="&#x14a;" horiz-adv-x="694" 
d="M532 157v512q0 20 19 20h47q20 0 20 -20v-657q0 -45 -6.5 -83.5t-25.5 -66.5t-53.5 -44t-90.5 -16q-9 0 -27 2t-30 5q-10 2 -11 6.5t1 12.5l7 41q2 8 6 10t10 0q25 -5 43 -5q29 0 46 9t26 25t12 36.5t3 44.5v26l-364 510h-2v-505q0 -20 -19 -20h-47q-20 0 -20 20v649
q0 20 19 20h37q11 0 18.5 -4.5t15.5 -15.5l364 -512h2z" />
    <glyph glyph-name="eng" unicode="&#x14b;" horiz-adv-x="539" 
d="M388 301q0 27 -4 49t-15 38.5t-30 25.5t-49 9q-17 0 -36 -4.5t-37 -12.5t-35 -18.5t-30 -22.5v-344q0 -21 -20 -21h-45q-20 0 -20 21v442q0 20 19 20h44q19 0 19 -18l1 -31q35 29 77.5 44.5t86.5 15.5q86 0 122.5 -48.5t36.5 -130.5v-250q0 -54 -7 -99t-26 -77t-51 -50
t-81 -18q-11 0 -24 1t-26 5q-14 4 -11 17l6 37q3 14 13 11q11 -3 21.5 -4t19.5 -1q27 0 43 13.5t24.5 36t11 52.5t2.5 63v249v0z" />
    <glyph glyph-name="Omacron" unicode="&#x14c;" horiz-adv-x="676" 
d="M632 349q0 -85 -22.5 -152t-62 -113t-93 -70t-116.5 -24q-67 0 -120 24.5t-89.5 70t-55.5 110.5t-19 147q0 81 21.5 147.5t60 113.5t92.5 72.5t119 25.5q69 0 122 -26t89.5 -72.5t55 -111t18.5 -142.5zM533 346q0 133 -48 205.5t-140 72.5q-43 0 -78.5 -20.5t-61 -57
t-39.5 -88t-14 -113.5q0 -132 49.5 -205.5t140.5 -73.5q42 0 77.5 19.5t60.5 56t39 88t14 116.5zM470 804q0 -13 -5.5 -18.5t-23.5 -5.5h-210q-16 0 -21 6t-5 18v17q0 11 4.5 16.5t21.5 5.5h210q18 0 23.5 -4.5t5.5 -17.5v-17z" />
    <glyph glyph-name="omacron" unicode="&#x14d;" horiz-adv-x="534" 
d="M495 242q0 -53 -15 -99t-44.5 -80t-72.5 -53.5t-99 -19.5q-58 0 -100.5 19.5t-70 53.5t-40.5 80t-13 100q0 53 15 99t44 79.5t72 53t99 19.5q58 0 100.5 -19t70 -52.5t41 -80t13.5 -100.5zM407 241q0 35 -7 68.5t-23 60t-42.5 42.5t-65.5 16q-41 0 -68 -16t-43 -42.5
t-23 -59t-7 -65.5q0 -35 6.5 -68.5t22 -60.5t42 -43.5t66.5 -16.5q39 0 66.5 16t44 42t24 59t7.5 68zM399 607q0 -13 -5.5 -18.5t-23.5 -5.5h-210q-16 0 -21 6t-5 18v17q0 11 4.5 16.5t21.5 5.5h210q18 0 23.5 -4.5t5.5 -17.5v-17z" />
    <glyph glyph-name="Obreve" unicode="&#x14e;" horiz-adv-x="676" 
d="M632 349q0 -85 -22.5 -152t-62 -113t-93 -70t-116.5 -24q-67 0 -120 24.5t-89.5 70t-55.5 110.5t-19 147q0 81 21.5 147.5t60 113.5t92.5 72.5t119 25.5q69 0 122 -26t89.5 -72.5t55 -111t18.5 -142.5zM533 346q0 133 -48 205.5t-140 72.5q-43 0 -78.5 -20.5t-61 -57
t-39.5 -88t-14 -113.5q0 -132 49.5 -205.5t140.5 -73.5q42 0 77.5 19.5t60.5 56t39 88t14 116.5zM467 862q0 -7 -1 -10q-4 -25 -19.5 -44.5t-36.5 -31.5q-15 -8 -33.5 -13t-38.5 -5t-38.5 5t-33.5 13q-21 12 -36.5 31.5t-19.5 44.5q-1 3 -1 10q0 8 4 10.5t12 2.5h25
q11 0 14.5 -3t8.5 -12q9 -19 27 -31.5t38 -12.5t38 12.5t27 31.5q5 9 8.5 12t14.5 3h25q8 0 12 -2.5t4 -10.5z" />
    <glyph glyph-name="obreve" unicode="&#x14f;" horiz-adv-x="534" 
d="M495 242q0 -53 -15 -99t-44.5 -80t-72.5 -53.5t-99 -19.5q-58 0 -100.5 19.5t-70 53.5t-40.5 80t-13 100q0 53 15 99t44 79.5t72 53t99 19.5q58 0 100.5 -19t70 -52.5t41 -80t13.5 -100.5zM407 241q0 35 -7 68.5t-23 60t-42.5 42.5t-65.5 16q-41 0 -68 -16t-43 -42.5
t-23 -59t-7 -65.5q0 -35 6.5 -68.5t22 -60.5t42 -43.5t66.5 -16.5q39 0 66.5 16t44 42t24 59t7.5 68zM396 663q0 -7 -1 -10q-4 -25 -19.5 -44.5t-36.5 -31.5q-15 -8 -33.5 -13t-38.5 -5t-38.5 5t-33.5 13q-21 12 -36.5 31.5t-19.5 44.5q-1 3 -1 10q0 8 4 10.5t12 2.5h25
q11 0 14.5 -3t8.5 -12q9 -19 27 -31.5t38 -12.5t38 12.5t27 31.5q5 9 8.5 12t14.5 3h25q8 0 12 -2.5t4 -10.5z" />
    <glyph glyph-name="Ohungarumlaut" unicode="&#x150;" horiz-adv-x="676" 
d="M632 349q0 -85 -22.5 -152t-62 -113t-93 -70t-116.5 -24q-67 0 -120 24.5t-89.5 70t-55.5 110.5t-19 147q0 81 21.5 147.5t60 113.5t92.5 72.5t119 25.5q69 0 122 -26t89.5 -72.5t55 -111t18.5 -142.5zM533 346q0 133 -48 205.5t-140 72.5q-43 0 -78.5 -20.5t-61 -57
t-39.5 -88t-14 -113.5q0 -132 49.5 -205.5t140.5 -73.5q42 0 77.5 19.5t60.5 56t39 88t14 116.5zM624 848q0 -9 -10 -13l-152 -74q-4 -2 -6.5 -3t-4.5 -1q-8 0 -14 9l-10 15q-4 5 -4 10q0 8 9 13l140 91q7 5 13 5q8 0 15 -10l20 -30q4 -5 4 -12zM401 848q0 -9 -10 -13
l-151 -74q-10 -4 -12 -4q-8 0 -14 9l-10 15q-4 5 -4 10q0 8 9 13l140 91q7 5 13 5q8 0 15 -10l20 -30q4 -5 4 -12z" />
    <glyph glyph-name="ohungarumlaut" unicode="&#x151;" horiz-adv-x="534" 
d="M495 242q0 -53 -15 -99t-44.5 -80t-72.5 -53.5t-99 -19.5q-58 0 -100.5 19.5t-70 53.5t-40.5 80t-13 100q0 53 15 99t44 79.5t72 53t99 19.5q58 0 100.5 -19t70 -52.5t41 -80t13.5 -100.5zM407 241q0 35 -7 68.5t-23 60t-42.5 42.5t-65.5 16q-41 0 -68 -16t-43 -42.5
t-23 -59t-7 -65.5q0 -35 6.5 -68.5t22 -60.5t42 -43.5t66.5 -16.5q39 0 66.5 16t44 42t24 59t7.5 68zM533 648q0 -9 -10 -13l-152 -74q-4 -2 -6.5 -3t-4.5 -1q-8 0 -14 9l-10 15q-4 5 -4 10q0 8 9 13l140 91q7 5 13 5q8 0 15 -10l20 -30q4 -5 4 -12zM310 648q0 -9 -10 -13
l-151 -74q-10 -4 -12 -4q-8 0 -14 9l-10 15q-4 5 -4 10q0 8 9 13l140 91q7 5 13 5q8 0 15 -10l20 -30q4 -5 4 -12z" />
    <glyph glyph-name="OE" unicode="&#x152;" horiz-adv-x="937" 
d="M892 18q0 -9 -4 -13.5t-15 -4.5h-348q-10 0 -14 3t-5 12l-3 38q-32 -30 -79 -46.5t-95 -16.5q-67 0 -119 24t-87 69.5t-53.5 110.5t-18.5 148q0 82 21.5 148.5t60.5 113t93 72t119 25.5q51 0 92.5 -16t66.5 -45l2 35q1 14 17 14h350q17 0 17 -15v-3l-4 -38
q-1 -11 -7.5 -13.5t-19.5 -2.5h-264v-220h236q20 0 20 -18v-36q0 -11 -4 -14.5t-15 -3.5h-237v-252h277q20 0 20 -17v-38zM503 563q-9 12 -25.5 23.5t-37.5 20t-45 13.5t-48 5q-39 0 -73 -16.5t-59 -46.5q-31 -37 -48 -92.5t-17 -124.5q0 -129 48.5 -204t138.5 -75
q45 0 91 18t75 50v429z" />
    <glyph glyph-name="oe" unicode="&#x153;" horiz-adv-x="862" 
d="M826 257q0 -17 -5 -22.5t-25 -5.5h-307q1 -36 11.5 -66.5t30.5 -53.5t49 -36t67 -13q31 0 63 5.5t57 15.5q8 2 10 2q9 0 12 -9l11 -37q1 -2 1 -5q0 -7 -12 -13q-16 -8 -35.5 -13t-40 -9t-40.5 -5.5t-37 -1.5q-71 0 -118.5 26t-74.5 74q-26 -46 -68.5 -73.5t-108.5 -27.5
q-58 0 -100.5 19.5t-70 53.5t-41 80.5t-13.5 99.5q0 52 15 98t44.5 80.5t72.5 54t99 19.5q69 0 111 -27t65 -73q28 46 74.5 73t110.5 27q43 0 77 -14.5t59 -40.5q30 -31 43.5 -73.5t13.5 -91.5v-17zM742 287v14q0 25 -7 48.5t-21 40.5t-35.5 27.5t-49.5 10.5
q-31 0 -55.5 -11.5t-41.5 -31t-27.5 -45t-13.5 -53.5h251zM409 240q0 34 -7 68t-23 61t-42.5 44t-65.5 17q-41 0 -68 -17t-43.5 -43.5t-23.5 -59.5t-7 -66q0 -34 6.5 -68t22.5 -61.5t42.5 -44.5t66.5 -17q39 0 66.5 16.5t44 42.5t24 59.5t7.5 68.5z" />
    <glyph glyph-name="Racute" unicode="&#x154;" horiz-adv-x="555" 
d="M265 280h-96v-259q0 -21 -19 -21h-55q-19 0 -19 21v646q0 22 20 22h144q68 0 123 -15.5t88 -56.5q41 -50 41 -130q0 -36 -11 -66.5t-29.5 -55t-44 -42t-55.5 -27.5l1 -2l163 -273q5 -7 3 -14t-13 -7h-60q-21 0 -31 18zM398 486q0 73 -44 102.5t-121 29.5h-64v-268h77
q66 0 109 34.5t43 101.5zM380 846q0 -9 -10 -13l-151 -75q-8 -3 -12 -3q-8 0 -14 9l-12 18q-4 5 -4 10q0 8 9 13l140 90q9 6 14 6q8 0 15 -10l21 -33q4 -5 4 -12z" />
    <glyph glyph-name="racute" unicode="&#x155;" horiz-adv-x="314" 
d="M129 483q20 0 20 -18l1 -34q18 25 46.5 44t68.5 19q5 0 13 -0.5t16 -2.5q7 -2 8 -7t0 -10l-7 -45q-1 -10 -11 -10q-6 0 -12 1.5t-20 1.5q-26 0 -53 -16t-47 -44v-341q0 -21 -19 -21h-47q-19 0 -19 21v442q0 20 19 20h43zM302 646q0 -9 -10 -13l-151 -75q-8 -3 -12 -3
q-8 0 -14 9l-12 18q-4 5 -4 10q0 8 9 13l140 90q9 6 14 6q8 0 15 -10l21 -33q4 -5 4 -12z" />
    <glyph glyph-name="Rcommaaccent" unicode="&#x156;" horiz-adv-x="555" 
d="M265 280h-96v-259q0 -21 -19 -21h-55q-19 0 -19 21v646q0 22 20 22h144q68 0 123 -15.5t88 -56.5q41 -50 41 -130q0 -36 -11 -66.5t-29.5 -55t-44 -42t-55.5 -27.5l1 -2l163 -273q5 -7 3 -14t-13 -7h-60q-21 0 -31 18zM398 486q0 73 -44 102.5t-121 29.5h-64v-268h77
q66 0 109 34.5t43 101.5zM323 -94q0 -35 -19 -68.5t-46 -53.5q-7 -4 -12 -4t-9 6l-6 6l-2 4t-1 4t5 7q11 11 19.5 24.5t8.5 28.5q0 8 -4 14.5t-9.5 13.5t-9.5 14t-4 16q0 19 12 30.5t31 11.5q21 0 33.5 -17t12.5 -37z" />
    <glyph glyph-name="rcommaaccent" unicode="&#x157;" horiz-adv-x="314" 
d="M129 483q20 0 20 -18l1 -34q18 25 46.5 44t68.5 19q5 0 13 -0.5t16 -2.5q7 -2 8 -7t0 -10l-7 -45q-1 -10 -11 -10q-6 0 -12 1.5t-20 1.5q-26 0 -53 -16t-47 -44v-341q0 -21 -19 -21h-47q-19 0 -19 21v442q0 20 19 20h43zM164 -94q0 -35 -19 -68.5t-46 -53.5q-7 -4 -12 -4
t-9 6l-6 6l-2 4t-1 4t5 7q11 11 19.5 24.5t8.5 28.5q0 8 -4 14.5t-9.5 13.5t-9.5 14t-4 16q0 19 12 30.5t31 11.5q21 0 33.5 -17t12.5 -37z" />
    <glyph glyph-name="Rcaron" unicode="&#x158;" horiz-adv-x="555" 
d="M265 280h-96v-259q0 -21 -19 -21h-55q-19 0 -19 21v646q0 22 20 22h144q68 0 123 -15.5t88 -56.5q41 -50 41 -130q0 -36 -11 -66.5t-29.5 -55t-44 -42t-55.5 -27.5l1 -2l163 -273q5 -7 3 -14t-13 -7h-60q-21 0 -31 18zM398 486q0 73 -44 102.5t-121 29.5h-64v-268h77
q66 0 109 34.5t43 101.5zM399 868q0 -6 -6 -12l-111 -100q-8 -7 -19 -7h-14q-10 0 -20 8l-108 98q-6 6 -6 11q0 3 5 10l12 13q7 7 13 7q7 0 17 -8l94 -73l102 79q7 5 12 5t11 -6l13 -13q5 -5 5 -12z" />
    <glyph glyph-name="rcaron" unicode="&#x159;" horiz-adv-x="314" 
d="M129 483q20 0 20 -18l1 -34q18 25 46.5 44t68.5 19q5 0 13 -0.5t16 -2.5q7 -2 8 -7t0 -10l-7 -45q-1 -10 -11 -10q-6 0 -12 1.5t-20 1.5q-26 0 -53 -16t-47 -44v-341q0 -21 -19 -21h-47q-19 0 -19 21v442q0 20 19 20h43zM314 668q0 -6 -6 -12l-111 -100q-8 -7 -19 -7h-14
q-10 0 -20 8l-108 98q-6 6 -6 11q0 3 5 10l12 13q7 7 13 7q7 0 17 -8l94 -73l102 79q7 5 12 5t11 -6l13 -13q5 -5 5 -12z" />
    <glyph glyph-name="Sacute" unicode="&#x15a;" horiz-adv-x="508" 
d="M235 69q25 0 50.5 6t45 19.5t32 34.5t12.5 51q0 42 -25.5 68t-62.5 46l-127 68q-50 27 -80 67.5t-30 94.5q0 43 18.5 76t48.5 55.5t68 34t77 11.5q45 0 82.5 -6.5t76.5 -23.5q16 -6 16 -17q0 -3 -2 -9l-15 -41q-4 -11 -14 -11q-6 0 -12 3q-30 13 -63.5 21t-63.5 8
q-21 0 -42.5 -5t-39 -16.5t-28.5 -29t-11 -42.5q0 -39 23 -62.5t55 -40.5l107 -57q29 -16 54 -33.5t43 -39.5t28.5 -49.5t10.5 -62.5q0 -49 -19 -86t-51 -61.5t-74 -37t-88 -12.5q-41 0 -83.5 7t-84.5 21q-18 6 -13 25l13 45q6 18 26 10q34 -13 70.5 -21t71.5 -8zM366 846
q0 -9 -10 -13l-151 -75q-8 -3 -12 -3q-8 0 -14 9l-12 18q-4 5 -4 10q0 8 9 13l140 90q9 6 14 6q8 0 15 -10l21 -33q4 -5 4 -12z" />
    <glyph glyph-name="sacute" unicode="&#x15b;" horiz-adv-x="391" 
d="M362 139q0 -35 -13.5 -62.5t-38 -46.5t-58 -29.5t-73.5 -10.5q-38 0 -75 10.5t-62 21.5q-14 6 -9 19l13 36q5 14 17 9q29 -12 61 -21t58 -9q44 0 70.5 20t26.5 55q0 29 -20 46.5t-55 31.5l-67 26q-45 17 -74 47.5t-29 78.5q0 33 14 58t37 41.5t53.5 25t63.5 8.5
q32 0 64 -6t66 -22q9 -5 9 -10q0 -2 -2 -8l-11 -35q-3 -10 -11 -10q-2 0 -8 2q-20 9 -50.5 16.5t-54.5 7.5q-40 0 -61 -18t-21 -44t15 -40t47 -28l78 -33q42 -17 71 -48t29 -79zM302 646q0 -9 -10 -13l-151 -75q-8 -3 -12 -3q-8 0 -14 9l-12 18q-4 5 -4 10q0 8 9 13l140 90
q9 6 14 6q8 0 15 -10l21 -33q4 -5 4 -12z" />
    <glyph glyph-name="Scircumflex" unicode="&#x15c;" horiz-adv-x="508" 
d="M235 69q25 0 50.5 6t45 19.5t32 34.5t12.5 51q0 42 -25.5 68t-62.5 46l-127 68q-50 27 -80 67.5t-30 94.5q0 43 18.5 76t48.5 55.5t68 34t77 11.5q45 0 82.5 -6.5t76.5 -23.5q16 -6 16 -17q0 -3 -2 -9l-15 -41q-4 -11 -14 -11q-6 0 -12 3q-30 13 -63.5 21t-63.5 8
q-21 0 -42.5 -5t-39 -16.5t-28.5 -29t-11 -42.5q0 -39 23 -62.5t55 -40.5l107 -57q29 -16 54 -33.5t43 -39.5t28.5 -49.5t10.5 -62.5q0 -49 -19 -86t-51 -61.5t-74 -37t-88 -12.5q-41 0 -83.5 7t-84.5 21q-18 6 -13 25l13 45q6 18 26 10q34 -13 70.5 -21t71.5 -8zM396 782
q0 -7 -5 -12l-13 -13q-6 -6 -11 -6t-12 5l-102 79l-94 -73q-10 -8 -17 -8q-6 0 -13 7l-12 13q-5 7 -5 10q0 5 6 11l108 98q10 8 20 8h14q11 0 19 -7l111 -100q6 -6 6 -12z" />
    <glyph glyph-name="scircumflex" unicode="&#x15d;" horiz-adv-x="391" 
d="M362 139q0 -35 -13.5 -62.5t-38 -46.5t-58 -29.5t-73.5 -10.5q-38 0 -75 10.5t-62 21.5q-14 6 -9 19l13 36q5 14 17 9q29 -12 61 -21t58 -9q44 0 70.5 20t26.5 55q0 29 -20 46.5t-55 31.5l-67 26q-45 17 -74 47.5t-29 78.5q0 33 14 58t37 41.5t53.5 25t63.5 8.5
q32 0 64 -6t66 -22q9 -5 9 -10q0 -2 -2 -8l-11 -35q-3 -10 -11 -10q-2 0 -8 2q-20 9 -50.5 16.5t-54.5 7.5q-40 0 -61 -18t-21 -44t15 -40t47 -28l78 -33q42 -17 71 -48t29 -79zM337 582q0 -7 -5 -12l-13 -13q-6 -6 -11 -6t-12 5l-102 79l-94 -73q-10 -8 -17 -8q-6 0 -13 7
l-12 13q-5 7 -5 10q0 5 6 11l108 98q10 8 20 8h14q11 0 19 -7l111 -100q6 -6 6 -12z" />
    <glyph glyph-name="Scedilla" unicode="&#x15e;" horiz-adv-x="508" 
d="M353 -122q0 -33 -24.5 -56t-75.5 -23q-20 0 -34.5 3t-30.5 9q-14 6 -14 13q0 3 1 5l5 16q3 9 9 9q4 0 10 -3q12 -5 27 -7t25 -2q17 0 30 8.5t13 27.5q0 33 -52 33h-18q-15 0 -20 6t-5 17v7t1 8l5 42q-71 5 -138 27q-18 6 -13 25l13 45q6 18 26 10q34 -13 70.5 -21
t71.5 -8q25 0 50.5 6t45 19.5t32 34.5t12.5 51q0 42 -25.5 68t-62.5 46l-127 68q-50 27 -80 67.5t-30 94.5q0 43 18.5 76t48.5 55.5t68 34t77 11.5q45 0 82.5 -6.5t76.5 -23.5q16 -6 16 -17q0 -3 -2 -9l-15 -41q-4 -11 -14 -11q-6 0 -12 3q-30 13 -63.5 21t-63.5 8
q-21 0 -42.5 -5t-39 -16.5t-28.5 -29t-11 -42.5q0 -39 23 -62.5t55 -40.5l107 -57q29 -16 54 -33.5t43 -39.5t28.5 -49.5t10.5 -62.5q0 -47 -17 -82t-46 -59.5t-67.5 -38t-81.5 -16.5l-2 -39h8q36 0 64 -17t28 -57z" />
    <glyph glyph-name="scedilla" unicode="&#x15f;" horiz-adv-x="391" 
d="M285 -122q0 -33 -24.5 -56t-75.5 -23q-20 0 -34.5 3t-30.5 9q-14 6 -14 13q0 3 1 5l5 16q3 9 9 9q4 0 10 -3q12 -5 27 -7t25 -2q17 0 30 8.5t13 27.5q0 33 -52 33h-18q-15 0 -20 6t-5 17v7t1 8l5 45q-28 4 -52.5 12t-42.5 16q-14 6 -9 19l13 36q5 14 17 9q29 -12 61 -21
t58 -9q44 0 70.5 20t26.5 55q0 29 -20 46.5t-55 31.5l-67 26q-45 17 -74 47.5t-29 78.5q0 33 14 58t37 41.5t53.5 25t63.5 8.5q32 0 64 -6t66 -22q9 -5 9 -10q0 -2 -2 -8l-11 -35q-3 -10 -11 -10q-2 0 -8 2q-20 9 -50.5 16.5t-54.5 7.5q-40 0 -61 -18t-21 -44t15 -40t47 -28
l78 -33q42 -17 71 -48t29 -79q0 -34 -13 -61t-36.5 -46t-55.5 -30t-70 -12l-2 -38h8q36 0 64 -17t28 -57z" />
    <glyph glyph-name="Scaron" unicode="&#x160;" horiz-adv-x="508" 
d="M235 69q25 0 50.5 6t45 19.5t32 34.5t12.5 51q0 42 -25.5 68t-62.5 46l-127 68q-50 27 -80 67.5t-30 94.5q0 43 18.5 76t48.5 55.5t68 34t77 11.5q45 0 82.5 -6.5t76.5 -23.5q16 -6 16 -17q0 -3 -2 -9l-15 -41q-4 -11 -14 -11q-6 0 -12 3q-30 13 -63.5 21t-63.5 8
q-21 0 -42.5 -5t-39 -16.5t-28.5 -29t-11 -42.5q0 -39 23 -62.5t55 -40.5l107 -57q29 -16 54 -33.5t43 -39.5t28.5 -49.5t10.5 -62.5q0 -49 -19 -86t-51 -61.5t-74 -37t-88 -12.5q-41 0 -83.5 7t-84.5 21q-18 6 -13 25l13 45q6 18 26 10q34 -13 70.5 -21t71.5 -8zM402 868
q0 -6 -6 -12l-111 -100q-8 -7 -19 -7h-14q-10 0 -20 8l-108 98q-6 6 -6 11q0 3 5 10l12 13q7 7 13 7q7 0 17 -8l94 -73l102 79q7 5 12 5t11 -6l13 -13q5 -5 5 -12z" />
    <glyph glyph-name="scaron" unicode="&#x161;" horiz-adv-x="391" 
d="M362 139q0 -35 -13.5 -62.5t-38 -46.5t-58 -29.5t-73.5 -10.5q-38 0 -75 10.5t-62 21.5q-14 6 -9 19l13 36q5 14 17 9q29 -12 61 -21t58 -9q44 0 70.5 20t26.5 55q0 29 -20 46.5t-55 31.5l-67 26q-45 17 -74 47.5t-29 78.5q0 33 14 58t37 41.5t53.5 25t63.5 8.5
q32 0 64 -6t66 -22q9 -5 9 -10q0 -2 -2 -8l-11 -35q-3 -10 -11 -10q-2 0 -8 2q-20 9 -50.5 16.5t-54.5 7.5q-40 0 -61 -18t-21 -44t15 -40t47 -28l78 -33q42 -17 71 -48t29 -79zM339 668q0 -6 -6 -12l-111 -100q-8 -7 -19 -7h-14q-10 0 -20 8l-108 98q-6 6 -6 11q0 3 5 10
l12 13q7 7 13 7q7 0 17 -8l94 -73l102 79q7 5 12 5t11 -6l13 -13q5 -5 5 -12z" />
    <glyph glyph-name="Tcommaaccent" unicode="&#x162;" 
d="M319 20q0 -20 -18 -20h-57q-18 0 -18 20v596h-193q-16 0 -16 16v42q0 9 3.5 12t11.5 3h489q18 0 16 -16l-6 -41q-2 -11 -8 -13.5t-17 -2.5h-187v-596zM313 -94q0 -35 -19 -68.5t-46 -53.5q-7 -4 -12 -4t-9 6l-6 6l-2 4t-1 4t5 7q11 11 19.5 24.5t8.5 28.5q0 8 -4 14.5
t-9.5 13.5t-9.5 14t-4 16q0 19 12 30.5t31 11.5q21 0 33.5 -17t12.5 -37z" />
    <glyph glyph-name="tcommaaccent" unicode="&#x163;" horiz-adv-x="349" 
d="M190 77q18 -20 55 -20q17 0 34 4t29 8q5 2 10.5 0t7.5 -9l8 -32q3 -13 -13 -20q-17 -7 -42 -12.5t-51 -5.5q-32 0 -62 9t-47 28q-22 24 -26.5 55.5t-4.5 78.5v262h-55q-10 0 -12.5 2.5t-2.5 12.5v31q0 14 13 14h57v114q0 11 3.5 14.5t13.5 5.5l49 7h4q15 0 15 -18v-123
h118q7 0 10.5 -2.5t3.5 -10.5v-34q0 -13 -15 -13h-117v-270q0 -25 3 -44t14 -32zM235 -94q0 -35 -19 -68.5t-46 -53.5q-7 -4 -12 -4t-9 6l-6 6l-2 4t-1 4t5 7q11 11 19.5 24.5t8.5 28.5q0 8 -4 14.5t-9.5 13.5t-9.5 14t-4 16q0 19 12 30.5t31 11.5q21 0 33.5 -17t12.5 -37z
" />
    <glyph glyph-name="Tcaron" unicode="&#x164;" 
d="M319 20q0 -20 -18 -20h-57q-18 0 -18 20v596h-193q-16 0 -16 16v42q0 9 3.5 12t11.5 3h489q18 0 16 -16l-6 -41q-2 -11 -8 -13.5t-17 -2.5h-187v-596zM419 868q0 -6 -6 -12l-111 -100q-8 -7 -19 -7h-14q-10 0 -20 8l-108 98q-6 6 -6 11q0 3 5 10l12 13q7 7 13 7
q7 0 17 -8l94 -73l102 79q7 5 12 5t11 -6l13 -13q5 -5 5 -12z" />
    <glyph glyph-name="tcaron" unicode="&#x165;" horiz-adv-x="349" 
d="M190 77q18 -20 55 -20q17 0 34 4t29 8q5 2 10.5 0t7.5 -9l8 -32q3 -13 -13 -20q-17 -7 -42 -12.5t-51 -5.5q-32 0 -62 9t-47 28q-22 24 -26.5 55.5t-4.5 78.5v262h-55q-10 0 -12.5 2.5t-2.5 12.5v31q0 14 13 14h57v114q0 11 3.5 14.5t13.5 5.5l49 7h4q15 0 15 -18v-123
h118q7 0 10.5 -2.5t3.5 -10.5v-34q0 -13 -15 -13h-117v-270q0 -25 3 -44t14 -32zM326 646q0 -35 -19 -68.5t-46 -53.5q-7 -4 -12 -4t-9 6l-6 6l-2 4t-1 4t5 7q11 11 19.5 24.5t8.5 28.5q0 8 -4 14.5t-9.5 13.5t-9.5 14t-4 16q0 19 12 30.5t31 11.5q21 0 33.5 -17t12.5 -37z
" />
    <glyph glyph-name="Tbar" unicode="&#x166;" 
d="M319 394h96q14 0 18 -4t4 -16v-32q0 -12 -4 -17t-16 -5h-98v-300q0 -20 -18 -20h-57q-18 0 -18 20v300h-94q-14 0 -18 4.5t-4 14.5v37q0 11 4.5 14.5t15.5 3.5h96v222h-193q-16 0 -16 16v42q0 9 3.5 12t11.5 3h489q18 0 16 -16l-6 -41q-2 -11 -8 -13.5t-17 -2.5h-187
v-222z" />
    <glyph glyph-name="tbar" unicode="&#x167;" horiz-adv-x="349" 
d="M190 77q18 -20 55 -20q17 0 34 4t29 8q5 2 10.5 0t7.5 -9l8 -32q3 -13 -13 -20q-17 -7 -42 -12.5t-51 -5.5q-32 0 -62 9t-47 28q-22 24 -26.5 55.5t-4.5 78.5v58h-48q-14 0 -18 4.5t-4 14.5v27q0 11 4.5 14.5t15.5 3.5h50v140h-55q-10 0 -12.5 2.5t-2.5 12.5v31
q0 14 13 14h57v114q0 11 3.5 14.5t13.5 5.5l49 7h4q15 0 15 -18v-123h118q7 0 10.5 -2.5t3.5 -10.5v-34q0 -13 -15 -13h-117v-140h92q14 0 18 -4t4 -16v-22q0 -12 -4 -17t-16 -5h-94v-66q0 -25 3 -44t14 -32z" />
    <glyph glyph-name="Utilde" unicode="&#x168;" horiz-adv-x="697" 
d="M624 301q0 -69 -15 -126t-48 -98t-85 -64t-126 -23q-81 0 -134.5 22t-84.5 63.5t-43.5 100t-12.5 131.5v362q0 20 19 20h55q19 0 19 -20v-353q0 -50 5 -95t24 -79t55.5 -54t98.5 -20q60 0 95.5 21t54.5 55.5t24.5 79.5t5.5 93v352q0 20 20 20h54q19 0 19 -20v-368z
M510 829q0 -8 -8 -14q-23 -17 -49 -30.5t-55 -13.5q-15 0 -28 6t-26 13.5t-25.5 14t-25.5 6.5t-29.5 -6.5t-35.5 -17.5q-11 -6 -16 -6q-8 0 -12 10l-9 23q-2 4 -3 6.5t-1 4.5q0 7 14 16q20 13 44 22.5t47 9.5q15 0 30.5 -6t29.5 -13l27 -13t24 -6t28.5 8.5t33.5 18.5
q9 5 15 5q8 0 14 -9l11 -17q5 -8 5 -12z" />
    <glyph glyph-name="utilde" unicode="&#x169;" horiz-adv-x="531" 
d="M465 22q0 -22 -20 -22h-43q-19 0 -19 19l-1 31q-71 -60 -158 -60q-43 0 -73 13t-48.5 37t-27 57.5t-8.5 73.5v292q0 20 20 20h45q20 0 20 -20v-279q0 -27 3.5 -49t14 -38t29.5 -25t49 -9q16 0 34.5 5t36 13t33.5 19t28 22v341q0 20 19 20h47q19 0 19 -20v-441zM427 631
q0 -8 -8 -14q-23 -17 -49 -30.5t-55 -13.5q-15 0 -28 6t-26 13.5t-25.5 14t-25.5 6.5t-29.5 -6.5t-35.5 -17.5q-11 -6 -16 -6q-8 0 -12 10l-9 23q-2 4 -3 6.5t-1 4.5q0 7 14 16q20 13 44 22.5t47 9.5q15 0 30.5 -6t29.5 -13l27 -13t24 -6t28.5 8.5t33.5 18.5q9 5 15 5
q8 0 14 -9l11 -17q5 -8 5 -12z" />
    <glyph glyph-name="Umacron" unicode="&#x16a;" horiz-adv-x="697" 
d="M624 301q0 -69 -15 -126t-48 -98t-85 -64t-126 -23q-81 0 -134.5 22t-84.5 63.5t-43.5 100t-12.5 131.5v362q0 20 19 20h55q19 0 19 -20v-353q0 -50 5 -95t24 -79t55.5 -54t98.5 -20q60 0 95.5 21t54.5 55.5t24.5 79.5t5.5 93v352q0 20 20 20h54q19 0 19 -20v-368z
M481 803q0 -13 -5.5 -18.5t-23.5 -5.5h-210q-16 0 -21 6t-5 18v17q0 11 4.5 16.5t21.5 5.5h210q18 0 23.5 -4.5t5.5 -17.5v-17z" />
    <glyph glyph-name="umacron" unicode="&#x16b;" horiz-adv-x="531" 
d="M465 22q0 -22 -20 -22h-43q-19 0 -19 19l-1 31q-71 -60 -158 -60q-43 0 -73 13t-48.5 37t-27 57.5t-8.5 73.5v292q0 20 20 20h45q20 0 20 -20v-279q0 -27 3.5 -49t14 -38t29.5 -25t49 -9q16 0 34.5 5t36 13t33.5 19t28 22v341q0 20 19 20h47q19 0 19 -20v-441zM398 607
q0 -13 -5.5 -18.5t-23.5 -5.5h-210q-16 0 -21 6t-5 18v17q0 11 4.5 16.5t21.5 5.5h210q18 0 23.5 -4.5t5.5 -17.5v-17z" />
    <glyph glyph-name="Ubreve" unicode="&#x16c;" horiz-adv-x="697" 
d="M624 301q0 -69 -15 -126t-48 -98t-85 -64t-126 -23q-81 0 -134.5 22t-84.5 63.5t-43.5 100t-12.5 131.5v362q0 20 19 20h55q19 0 19 -20v-353q0 -50 5 -95t24 -79t55.5 -54t98.5 -20q60 0 95.5 21t54.5 55.5t24.5 79.5t5.5 93v352q0 20 20 20h54q19 0 19 -20v-368z
M477 863q0 -7 -1 -10q-4 -25 -19.5 -44.5t-36.5 -31.5q-15 -8 -33.5 -13t-38.5 -5t-38.5 5t-33.5 13q-21 12 -36.5 31.5t-19.5 44.5q-1 3 -1 10q0 8 4 10.5t12 2.5h25q11 0 14.5 -3t8.5 -12q9 -19 27 -31.5t38 -12.5t38 12.5t27 31.5q5 9 8.5 12t14.5 3h25q8 0 12 -2.5
t4 -10.5z" />
    <glyph glyph-name="ubreve" unicode="&#x16d;" horiz-adv-x="531" 
d="M465 22q0 -22 -20 -22h-43q-19 0 -19 19l-1 31q-71 -60 -158 -60q-43 0 -73 13t-48.5 37t-27 57.5t-8.5 73.5v292q0 20 20 20h45q20 0 20 -20v-279q0 -27 3.5 -49t14 -38t29.5 -25t49 -9q16 0 34.5 5t36 13t33.5 19t28 22v341q0 20 19 20h47q19 0 19 -20v-441zM394 688
q0 -7 -1 -10q-4 -25 -19.5 -44.5t-36.5 -31.5q-15 -8 -33.5 -13t-38.5 -5t-38.5 5t-33.5 13q-21 12 -36.5 31.5t-19.5 44.5q-1 3 -1 10q0 8 4 10.5t12 2.5h25q11 0 14.5 -3t8.5 -12q9 -19 27 -31.5t38 -12.5t38 12.5t27 31.5q5 9 8.5 12t14.5 3h25q8 0 12 -2.5t4 -10.5z" />
    <glyph glyph-name="Uring" unicode="&#x16e;" horiz-adv-x="697" 
d="M624 301q0 -69 -15 -126t-48 -98t-85 -64t-126 -23q-81 0 -134.5 22t-84.5 63.5t-43.5 100t-12.5 131.5v362q0 20 19 20h55q19 0 19 -20v-353q0 -50 5 -95t24 -79t55.5 -54t98.5 -20q60 0 95.5 21t54.5 55.5t24.5 79.5t5.5 93v352q0 20 20 20h54q19 0 19 -20v-368z
M429 821q0 -33 -23.5 -56.5t-56.5 -23.5t-57 23.5t-24 56.5t24 56.5t57 23.5t56.5 -23.5t23.5 -56.5zM379 821q0 13 -8.5 21.5t-21.5 8.5t-22 -8.5t-9 -21.5t9 -21.5t22 -8.5t21.5 8.5t8.5 21.5z" />
    <glyph glyph-name="uring" unicode="&#x16f;" horiz-adv-x="531" 
d="M465 22q0 -22 -20 -22h-43q-19 0 -19 19l-1 31q-71 -60 -158 -60q-43 0 -73 13t-48.5 37t-27 57.5t-8.5 73.5v292q0 20 20 20h45q20 0 20 -20v-279q0 -27 3.5 -49t14 -38t29.5 -25t49 -9q16 0 34.5 5t36 13t33.5 19t28 22v341q0 20 19 20h47q19 0 19 -20v-441zM346 621
q0 -33 -23.5 -56.5t-56.5 -23.5t-57 23.5t-24 56.5t24 56.5t57 23.5t56.5 -23.5t23.5 -56.5zM296 621q0 13 -8.5 21.5t-21.5 8.5t-22 -8.5t-9 -21.5t9 -21.5t22 -8.5t21.5 8.5t8.5 21.5z" />
    <glyph glyph-name="Uhungarumlaut" unicode="&#x170;" horiz-adv-x="697" 
d="M624 301q0 -69 -15 -126t-48 -98t-85 -64t-126 -23q-81 0 -134.5 22t-84.5 63.5t-43.5 100t-12.5 131.5v362q0 20 19 20h55q19 0 19 -20v-353q0 -50 5 -95t24 -79t55.5 -54t98.5 -20q60 0 95.5 21t54.5 55.5t24.5 79.5t5.5 93v352q0 20 20 20h54q19 0 19 -20v-368z
M613 848q0 -9 -10 -13l-152 -74q-4 -2 -6.5 -3t-4.5 -1q-8 0 -14 9l-10 15q-4 5 -4 10q0 8 9 13l140 91q7 5 13 5q8 0 15 -10l20 -30q4 -5 4 -12zM390 848q0 -9 -10 -13l-151 -74q-10 -4 -12 -4q-8 0 -14 9l-10 15q-4 5 -4 10q0 8 9 13l140 91q7 5 13 5q8 0 15 -10l20 -30
q4 -5 4 -12z" />
    <glyph glyph-name="uhungarumlaut" unicode="&#x171;" horiz-adv-x="531" 
d="M465 22q0 -22 -20 -22h-43q-19 0 -19 19l-1 31q-71 -60 -158 -60q-43 0 -73 13t-48.5 37t-27 57.5t-8.5 73.5v292q0 20 20 20h45q20 0 20 -20v-279q0 -27 3.5 -49t14 -38t29.5 -25t49 -9q16 0 34.5 5t36 13t33.5 19t28 22v341q0 20 19 20h47q19 0 19 -20v-441zM527 648
q0 -9 -10 -13l-152 -74q-4 -2 -6.5 -3t-4.5 -1q-8 0 -14 9l-10 15q-4 5 -4 10q0 8 9 13l140 91q7 5 13 5q8 0 15 -10l20 -30q4 -5 4 -12zM304 648q0 -9 -10 -13l-151 -74q-10 -4 -12 -4q-8 0 -14 9l-10 15q-4 5 -4 10q0 8 9 13l140 91q7 5 13 5q8 0 15 -10l20 -30
q4 -5 4 -12z" />
    <glyph glyph-name="Uogonek" unicode="&#x172;" horiz-adv-x="697" 
d="M445 -171q0 -5 -2 -9t-10 -6q-16 -6 -38.5 -10.5t-42.5 -4.5q-51 0 -76 22.5t-25 54.5q0 22 7.5 40t21.5 33q11 12 24.5 22.5t28.5 18.5q-76 3 -126 26t-79 64t-41 98.5t-12 128.5v362q0 20 19 20h55q19 0 19 -20v-353q0 -50 5 -95t24 -79t55.5 -54t98.5 -20
q60 0 95.5 21t54.5 55.5t24.5 79.5t5.5 93v352q0 20 20 20h54q19 0 19 -20v-368q0 -63 -12.5 -116t-39 -93t-69 -65.5t-102.5 -32.5q-43 -32 -62 -55.5t-19 -47.5q0 -23 14.5 -32t37.5 -9q10 0 26.5 2.5t27.5 6.5q1 0 2 0.5t2 0.5q8 0 9 -7l5 -18q1 -2 1 -6z" />
    <glyph glyph-name="uogonek" unicode="&#x173;" horiz-adv-x="531" 
d="M382 50q-71 -60 -158 -60q-43 0 -73 13t-48.5 37t-27 57.5t-8.5 73.5v292q0 20 20 20h45q20 0 20 -20v-279q0 -27 3.5 -49t14 -38t29.5 -25t49 -9q16 0 34.5 5t36 13t33.5 19t28 22v341q0 20 19 20h47q19 0 19 -20v-445q-1 -12 -8 -16q-2 -1 -3.5 -1t-3.5 -1h-1
q-20 -6 -32.5 -13.5t-23.5 -17.5q-20 -18 -27 -35.5t-7 -34.5q0 -25 14.5 -35t37.5 -10q10 0 26.5 2.5t27.5 6.5q1 0 2 0.5t2 0.5q8 0 9 -7l5 -18q1 -2 1 -6q0 -5 -2 -9t-10 -6q-16 -6 -38.5 -10.5t-42.5 -4.5q-51 0 -76 24t-25 56q0 41 27.5 72.5t65.5 56.5l-1 38v0z" />
    <glyph glyph-name="Wcircumflex" unicode="&#x174;" horiz-adv-x="894" 
d="M876 677q0 -3 -2 -9l-192 -647q-6 -21 -26 -21h-47q-10 0 -16 4.5t-10 17.5l-136 518h-1l-137 -518q-4 -13 -10 -17.5t-17 -4.5h-46q-11 0 -16 4t-10 19l-189 641q-2 8 -2 12q0 13 15 13h62q14 0 20.5 -4.5t9.5 -16.5l140 -526h1l135 527q3 13 9.5 16.5t18.5 3.5h43
q19 0 24 -19l138 -528h2l142 526q4 13 10.5 17t17.5 4h54q15 0 15 -12zM589 782q0 -7 -5 -12l-13 -13q-6 -6 -11 -6t-12 5l-102 79l-94 -73q-10 -8 -17 -8q-6 0 -13 7l-12 13q-5 7 -5 10q0 5 6 11l108 98q10 8 20 8h14q11 0 19 -7l111 -100q6 -6 6 -12z" />
    <glyph glyph-name="wcircumflex" unicode="&#x175;" horiz-adv-x="691" 
d="M662 483q8 0 10.5 -6.5t0.5 -13.5l-134 -445q-6 -18 -24 -18h-51q-20 0 -24 18l-96 334h-1l-94 -335q-5 -17 -25 -17h-50q-19 0 -24 18l-133 445q-2 8 0.5 14t13.5 6h53q21 0 24 -14l95 -365h2l104 364q4 15 20 15h41q7 0 11.5 -2t6.5 -10l106 -368h2l94 363q5 17 24 17
h48zM487 582q0 -7 -5 -12l-13 -13q-6 -6 -11 -6t-12 5l-102 79l-94 -73q-10 -8 -17 -8q-6 0 -13 7l-12 13q-5 7 -5 10q0 5 6 11l108 98q10 8 20 8h14q11 0 19 -7l111 -100q6 -6 6 -12z" />
    <glyph glyph-name="Ycircumflex" unicode="&#x176;" 
d="M533 679q0 -6 -4 -13l-202 -394v-254q0 -18 -17 -18h-59q-17 0 -17 19v251l-214 399q-3 6 -3 10q0 10 15 10h56q25 0 33 -17l164 -324h1l158 321q6 12 11.5 16t19.5 4h42q16 0 16 -10zM417 782q0 -7 -5 -12l-13 -13q-6 -6 -11 -6t-12 5l-102 79l-94 -73q-10 -8 -17 -8
q-6 0 -13 7l-12 13q-5 7 -5 10q0 5 6 11l108 98q10 8 20 8h14q11 0 19 -7l111 -100q6 -6 6 -12z" />
    <glyph glyph-name="ycircumflex" unicode="&#x177;" horiz-adv-x="485" 
d="M109 483q15 0 19 -13l130 -374l126 372q5 15 21 15h55q13 0 13 -10q0 -3 -2 -9l-195 -523q-17 -44 -35 -74.5t-42 -49.5t-54.5 -27.5t-70.5 -8.5q-25 0 -45 4q-11 2 -11 15v5l5 38q1 14 15 14h4q8 -1 17.5 -2t17.5 -1q42 0 67.5 17.5t41.5 56.5l26 64l-179 474
q-2 6 0 11.5t10 5.5h66zM401 582q0 -7 -5 -12l-13 -13q-6 -6 -11 -6t-12 5l-102 79l-94 -73q-10 -8 -17 -8q-6 0 -13 7l-12 13q-5 7 -5 10q0 5 6 11l108 98q10 8 20 8h14q11 0 19 -7l111 -100q6 -6 6 -12z" />
    <glyph glyph-name="Ydieresis" unicode="&#x178;" 
d="M533 679q0 -6 -4 -13l-202 -394v-254q0 -18 -17 -18h-59q-17 0 -17 19v251l-214 399q-3 6 -3 10q0 10 15 10h56q25 0 33 -17l164 -324h1l158 321q6 12 11.5 16t19.5 4h42q16 0 16 -10zM414 817q0 -23 -16 -35.5t-34 -12.5t-35.5 12.5t-17.5 35.5q0 24 16.5 36.5
t36.5 12.5t35 -13t15 -36zM238 817q0 -23 -16.5 -35.5t-34.5 -12.5t-35 12.5t-17 35.5q0 24 16 36.5t36 12.5t35.5 -13t15.5 -36z" />
    <glyph glyph-name="Zacute" unicode="&#x179;" horiz-adv-x="541" 
d="M515 17q0 -17 -17 -17h-460q-14 0 -14 15v22q0 7 1.5 12.5t6.5 13.5l355 552v1h-310q-14 0 -18 3t-4 13v42q0 8 3 11.5t13 3.5h416q19 0 19 -16v-17q0 -8 -1 -15.5t-7 -16.5l-356 -550v-1h355q18 0 18 -16v-40zM373 849q0 -9 -10 -13l-151 -75q-8 -3 -12 -3q-8 0 -14 9
l-12 18q-4 5 -4 10q0 8 9 13l140 90q9 6 14 6q8 0 15 -10l21 -33q4 -5 4 -12z" />
    <glyph glyph-name="zacute" unicode="&#x17a;" horiz-adv-x="402" 
d="M380 15q0 -15 -13 -15h-326q-9 0 -13.5 5.5t-4.5 12.5v19q0 9 2 15t8 14l236 356v1h-210q-9 0 -13 3t-4 14v28q0 15 15 15h296q11 0 14.5 -4.5t3.5 -11.5v-20q0 -13 -9 -26l-239 -359v-1h242q15 0 15 -14v-32zM313 646q0 -9 -10 -13l-151 -75q-8 -3 -12 -3q-8 0 -14 9
l-12 18q-4 5 -4 10q0 8 9 13l140 90q9 6 14 6q8 0 15 -10l21 -33q4 -5 4 -12z" />
    <glyph glyph-name="Zdotaccent" unicode="&#x17b;" horiz-adv-x="541" 
d="M515 17q0 -17 -17 -17h-460q-14 0 -14 15v22q0 7 1.5 12.5t6.5 13.5l355 552v1h-310q-14 0 -18 3t-4 13v42q0 8 3 11.5t13 3.5h416q19 0 19 -16v-17q0 -8 -1 -15.5t-7 -16.5l-356 -550v-1h355q18 0 18 -16v-40zM332 836q0 -26 -19 -41t-39 -15q-10 0 -20.5 4t-19.5 11
t-14.5 17t-5.5 23q0 26 19 41t41 15q21 0 39.5 -14.5t18.5 -40.5z" />
    <glyph glyph-name="zdotaccent" unicode="&#x17c;" horiz-adv-x="402" 
d="M380 15q0 -15 -13 -15h-326q-9 0 -13.5 5.5t-4.5 12.5v19q0 9 2 15t8 14l236 356v1h-210q-9 0 -13 3t-4 14v28q0 15 15 15h296q11 0 14.5 -4.5t3.5 -11.5v-20q0 -13 -9 -26l-239 -359v-1h242q15 0 15 -14v-32zM263 639q0 -26 -19 -41t-39 -15q-10 0 -20.5 4t-19.5 11
t-14.5 17t-5.5 23q0 26 19 41t41 15q21 0 39.5 -14.5t18.5 -40.5z" />
    <glyph glyph-name="Zcaron" unicode="&#x17d;" horiz-adv-x="541" 
d="M515 17q0 -17 -17 -17h-460q-14 0 -14 15v22q0 7 1.5 12.5t6.5 13.5l355 552v1h-310q-14 0 -18 3t-4 13v42q0 8 3 11.5t13 3.5h416q19 0 19 -16v-17q0 -8 -1 -15.5t-7 -16.5l-356 -550v-1h355q18 0 18 -16v-40zM414 868q0 -6 -6 -12l-111 -100q-8 -7 -19 -7h-14
q-10 0 -20 8l-108 98q-6 6 -6 11q0 3 5 10l12 13q7 7 13 7q7 0 17 -8l94 -73l102 79q7 5 12 5t11 -6l13 -13q5 -5 5 -12z" />
    <glyph glyph-name="zcaron" unicode="&#x17e;" horiz-adv-x="402" 
d="M380 15q0 -15 -13 -15h-326q-9 0 -13.5 5.5t-4.5 12.5v19q0 9 2 15t8 14l236 356v1h-210q-9 0 -13 3t-4 14v28q0 15 15 15h296q11 0 14.5 -4.5t3.5 -11.5v-20q0 -13 -9 -26l-239 -359v-1h242q15 0 15 -14v-32zM345 668q0 -6 -6 -12l-111 -100q-8 -7 -19 -7h-14
q-10 0 -20 8l-108 98q-6 6 -6 11q0 3 5 10l12 13q7 7 13 7q7 0 17 -8l94 -73l102 79q7 5 12 5t11 -6l13 -13q5 -5 5 -12z" />
    <glyph glyph-name="longs" unicode="&#x17f;" horiz-adv-x="298" 
d="M92 502q0 27 1 46.5t3 33.5q9 66 48.5 102.5t109.5 36.5q23 0 49 -5t45 -13q11 -5 11.5 -10t-1.5 -10l-10 -33q-2 -8 -8 -9.5t-13 0.5q-12 5 -29 8.5t-34 3.5q-51 0 -69 -32t-18 -91v-509q0 -21 -20 -21h-45q-20 0 -20 21v402h-57q-15 0 -15 15v30q0 15 15 15h57v19z" />
    <glyph glyph-name="florin" unicode="&#x192;" 
d="M573 674q0 -5 -2 -11l-12 -32q-3 -9 -11 -9q-2 0 -8 2q-31 13 -64 13q-57 0 -86 -50q-8 -14 -14 -35.5t-12 -51.5l-24 -123h120q13 0 13 -8v-5l-4 -24q-2 -9 -5 -11.5t-11 -2.5h-123l-57 -296q-5 -27 -10 -47t-10 -34q-22 -66 -69 -102t-117 -36q-22 0 -44.5 4.5
t-40.5 12.5q-9 4 -9 13q0 3 2 9l12 33q3 9 11 9q2 0 8 -2q31 -13 63 -13q59 0 88 53q14 27 26 88l59 308h-64q-12 0 -12 7v2l5 29q2 8 4.5 10.5t10.5 2.5h67l20 108q5 27 10 46t10 33q22 66 69 103t117 37q22 0 45 -4.5t41 -12.5q8 -4 8 -13z" />
    <glyph glyph-name="Aringacute" unicode="&#x1fa;" horiz-adv-x="608" 
d="M522 0q-13 0 -18 3.5t-9 14.5l-66 186h-259l-69 -187q-4 -10 -8 -13.5t-15 -3.5h-59q-11 0 -11 6.5t2 13.5l251 655q5 14 18 14h53q13 0 18 -12l247 -656q3 -8 1.5 -14.5t-14.5 -6.5h-62zM405 273l-80 229l-14.5 43t-8.5 28h-1l-9.5 -28.5l-15.5 -44.5l-82 -227h211z
M384 785q0 -33 -23.5 -56.5t-56.5 -23.5t-57 23.5t-24 56.5t24 56.5t57 23.5t56.5 -23.5t23.5 -56.5zM334 785q0 13 -8.5 21.5t-21.5 8.5t-22 -8.5t-9 -21.5t9 -21.5t22 -8.5t21.5 8.5t8.5 21.5zM405 950q0 -9 -10 -13l-151 -75q-8 -3 -12 -3q-8 0 -14 9l-12 18q-4 5 -4 10
q0 8 9 13l140 90q9 6 14 6q8 0 15 -10l21 -33q4 -5 4 -12z" />
    <glyph glyph-name="aringacute" unicode="&#x1fb;" horiz-adv-x="538" 
d="M509 13q0 -13 -15 -13h-42q-33 0 -49 22t-16 52h-2q-9 -17 -25 -32t-36 -26.5t-43 -18.5t-46 -7q-52 0 -89.5 20t-62 54t-36 78t-11.5 91q0 63 17 111.5t46.5 81.5t68 50.5t81.5 17.5q38 0 74.5 -15.5t59.5 -45.5l1 33q0 17 19 17h45q18 0 18 -19v-350q0 -17 1 -28.5
t4 -16.5q5 -9 17 -9h7q7 0 10.5 -2.5t3.5 -10.5v-34zM381 354q-18 34 -51.5 53t-69.5 19q-58 0 -96.5 -48.5t-38.5 -138.5q0 -83 34.5 -130.5t88.5 -47.5q24 0 45 8.5t38.5 23t30 32.5t19.5 37v192zM349 598q0 -33 -23.5 -56.5t-56.5 -23.5t-57 23.5t-24 56.5t24 56.5
t57 23.5t56.5 -23.5t23.5 -56.5zM370 770q0 -9 -10 -13l-151 -75q-8 -3 -12 -3q-8 0 -14 9l-12 18q-4 5 -4 10q0 8 9 13l140 90q9 6 14 6q8 0 15 -10l21 -33q4 -5 4 -12zM299 598q0 13 -8.5 21.5t-21.5 8.5t-22 -8.5t-9 -21.5t9 -21.5t22 -8.5t21.5 8.5t8.5 21.5z" />
    <glyph glyph-name="AEacute" unicode="&#x1fc;" horiz-adv-x="880" 
d="M836 18q0 -18 -20 -18h-330q-13 0 -25.5 3t-12.5 18v184h-224l-121 -188q-5 -8 -8.5 -12.5t-14.5 -4.5h-60q-10 0 -10 9q0 6 3 11l419 652q11 17 30 17h356q17 0 17 -14v-3l-5 -40q-2 -11 -8 -13.5t-19 -2.5h-264v-219h236q21 0 21 -18v-36q0 -11 -4.5 -14.5t-15.5 -3.5
h-237v-252h277q20 0 20 -17v-38zM448 274v292l-185 -292h185zM742 848q0 -9 -10 -13l-151 -75q-8 -3 -12 -3q-8 0 -14 9l-12 18q-4 5 -4 10q0 8 9 13l140 90q9 6 14 6q8 0 15 -10l21 -33q4 -5 4 -12z" />
    <glyph glyph-name="aeacute" unicode="&#x1fd;" horiz-adv-x="768" 
d="M730 256q0 -17 -4 -21.5t-18 -4.5h-310q2 -47 21.5 -83t51.5 -56q20 -13 45 -18.5t54 -5.5h17q25 2 52 6t45 12q2 1 6 1q8 0 11 -10l7 -32q2 -8 2 -11q0 -5 -3 -7.5t-9 -5.5q-16 -8 -35.5 -13.5t-40 -9t-40.5 -5.5t-37 -2q-50 0 -96.5 17t-78.5 58q-28 -31 -74.5 -53.5
t-112.5 -22.5q-30 0 -57 9t-47.5 27t-33 44.5t-12.5 61.5q0 36 16 63.5t39 46.5q42 34 96.5 45.5t109.5 11.5h27v30q0 43 -15 67q-23 36 -79 36q-27 0 -61.5 -8.5t-72.5 -28.5q-5 -3 -8 -3q-7 0 -10 8l-11 30q-2 6 -2 7q0 8 11 14q42 24 85 34t77 10q45 0 83 -16t61 -58h2
q26 34 67 54t94 20q54 0 93 -22t62 -60q17 -28 25 -62.5t8 -62.5v-31zM651 288v14q0 25 -7 48.5t-21 40.5t-35 27.5t-50 10.5q-31 0 -55.5 -11.5t-41.5 -31t-27.5 -45t-13.5 -53.5h251zM341 114q-11 26 -16.5 56t-5.5 62v9q-8 0 -23.5 -1t-20.5 -1q-24 -2 -51.5 -7t-50 -16
t-37.5 -30.5t-15 -49.5q0 -42 26 -61.5t58 -19.5q21 0 41.5 6t38.5 14.5t32.5 19t23.5 19.5zM526 646q0 -9 -10 -13l-151 -75q-8 -3 -12 -3q-8 0 -14 9l-12 18q-4 5 -4 10q0 8 9 13l140 90q9 6 14 6q8 0 15 -10l21 -33q4 -5 4 -12z" />
    <glyph glyph-name="Oslashacute" unicode="&#x1fe;" horiz-adv-x="680" 
d="M631 349q0 -85 -22.5 -152t-61.5 -113t-92.5 -70t-116.5 -24q-94 0 -158 45l-40 -61q-11 -17 -18 -17q-2 0 -5 2t-7 4l-21 13q-12 7 -12 14q0 5 4 10l52 79q-80 92 -80 263q0 81 21.5 147.5t60.5 113t93 72t119 25.5q94 0 160 -49l45 67l9 12t7 4q5 0 8 -2l25 -17
q12 -8 12 -14q0 -5 -3 -9l-56 -86q77 -94 77 -257zM460 580q-47 47 -116 47q-43 0 -78.5 -21t-60.5 -58.5t-39 -89t-14 -113.5q0 -56 9.5 -101.5t29.5 -79.5zM533 346q0 108 -35 178l-270 -418q46 -43 113 -43q42 0 77.5 20t61 57t39.5 89t14 117zM493 847q0 -9 -10 -13
l-151 -75q-8 -3 -12 -3q-8 0 -14 9l-12 18q-4 5 -4 10q0 8 9 13l140 90q9 6 14 6q8 0 15 -10l21 -33q4 -5 4 -12z" />
    <glyph glyph-name="oslashacute" unicode="&#x1ff;" horiz-adv-x="534" 
d="M495 242q0 -53 -15 -99t-44.5 -80t-72.5 -53.5t-99 -19.5q-30 0 -55 5t-47 15l-21 -33q-8 -13 -15 -13q-4 0 -8 3l-30 18q-12 7 -12 14q0 5 4 10l26 41q-34 35 -50 84t-16 109q0 53 15 99t44 79.5t72 53t99 19.5q28 0 52 -5t45 -13l17 28q10 16 18 16q5 0 13 -4l23 -12
q13 -7 13 -15q0 -6 -6 -15l-21 -34q36 -34 53.5 -84.5t17.5 -113.5zM407 241q0 34 -6.5 66.5t-21.5 58.5l-179 -294q14 -8 29.5 -12t35.5 -4q39 0 66.5 16t44 42t24 59t7.5 68zM329 415q-25 13 -60 13q-41 0 -68 -16t-43 -42.5t-23 -59t-7 -65.5q0 -32 5.5 -63t18.5 -57z
M404 646q0 -9 -10 -13l-151 -75q-8 -3 -12 -3q-8 0 -14 9l-12 18q-4 5 -4 10q0 8 9 13l140 90q9 6 14 6q8 0 15 -10l21 -33q4 -5 4 -12z" />
    <glyph glyph-name="Scommaaccent" unicode="&#x218;" horiz-adv-x="508" 
d="M235 69q25 0 50.5 6t45 19.5t32 34.5t12.5 51q0 42 -25.5 68t-62.5 46l-127 68q-50 27 -80 67.5t-30 94.5q0 43 18.5 76t48.5 55.5t68 34t77 11.5q45 0 82.5 -6.5t76.5 -23.5q16 -6 16 -17q0 -3 -2 -9l-15 -41q-4 -11 -14 -11q-6 0 -12 3q-30 13 -63.5 21t-63.5 8
q-21 0 -42.5 -5t-39 -16.5t-28.5 -29t-11 -42.5q0 -39 23 -62.5t55 -40.5l107 -57q29 -16 54 -33.5t43 -39.5t28.5 -49.5t10.5 -62.5q0 -49 -19 -86t-51 -61.5t-74 -37t-88 -12.5q-41 0 -83.5 7t-84.5 21q-18 6 -13 25l13 45q6 18 26 10q34 -13 70.5 -21t71.5 -8zM284 -94
q0 -35 -19 -68.5t-46 -53.5q-7 -4 -12 -4t-9 6l-6 6l-2 4t-1 4t5 7q11 11 19.5 24.5t8.5 28.5q0 8 -4 14.5t-9.5 13.5t-9.5 14t-4 16q0 19 12 30.5t31 11.5q21 0 33.5 -17t12.5 -37z" />
    <glyph glyph-name="scommaaccent" unicode="&#x219;" horiz-adv-x="391" 
d="M362 139q0 -35 -13.5 -62.5t-38 -46.5t-58 -29.5t-73.5 -10.5q-38 0 -75 10.5t-62 21.5q-14 6 -9 19l13 36q5 14 17 9q29 -12 61 -21t58 -9q44 0 70.5 20t26.5 55q0 29 -20 46.5t-55 31.5l-67 26q-45 17 -74 47.5t-29 78.5q0 33 14 58t37 41.5t53.5 25t63.5 8.5
q32 0 64 -6t66 -22q9 -5 9 -10q0 -2 -2 -8l-11 -35q-3 -10 -11 -10q-2 0 -8 2q-20 9 -50.5 16.5t-54.5 7.5q-40 0 -61 -18t-21 -44t15 -40t47 -28l78 -33q42 -17 71 -48t29 -79zM231 -94q0 -35 -19 -68.5t-46 -53.5q-7 -4 -12 -4t-9 6l-6 6l-2 4t-1 4t5 7q11 11 19.5 24.5
t8.5 28.5q0 8 -4 14.5t-9.5 13.5t-9.5 14t-4 16q0 19 12 30.5t31 11.5q21 0 33.5 -17t12.5 -37z" />
    <glyph glyph-name="uni021A" unicode="&#x21a;" 
d="M319 20q0 -20 -18 -20h-57q-18 0 -18 20v596h-193q-16 0 -16 16v42q0 9 3.5 12t11.5 3h489q18 0 16 -16l-6 -41q-2 -11 -8 -13.5t-17 -2.5h-187v-596zM313 -94q0 -35 -19 -68.5t-46 -53.5q-7 -4 -12 -4t-9 6l-6 6l-2 4t-1 4t5 7q11 11 19.5 24.5t8.5 28.5q0 8 -4 14.5
t-9.5 13.5t-9.5 14t-4 16q0 19 12 30.5t31 11.5q21 0 33.5 -17t12.5 -37z" />
    <glyph glyph-name="uni021B" unicode="&#x21b;" horiz-adv-x="349" 
d="M190 77q18 -20 55 -20q17 0 34 4t29 8q5 2 10.5 0t7.5 -9l8 -32q3 -13 -13 -20q-17 -7 -42 -12.5t-51 -5.5q-32 0 -62 9t-47 28q-22 24 -26.5 55.5t-4.5 78.5v262h-55q-10 0 -12.5 2.5t-2.5 12.5v31q0 14 13 14h57v114q0 11 3.5 14.5t13.5 5.5l49 7h4q15 0 15 -18v-123
h118q7 0 10.5 -2.5t3.5 -10.5v-34q0 -13 -15 -13h-117v-270q0 -25 3 -44t14 -32zM235 -94q0 -35 -19 -68.5t-46 -53.5q-7 -4 -12 -4t-9 6l-6 6l-2 4t-1 4t5 7q11 11 19.5 24.5t8.5 28.5q0 8 -4 14.5t-9.5 13.5t-9.5 14t-4 16q0 19 12 30.5t31 11.5q21 0 33.5 -17t12.5 -37z
" />
    <glyph glyph-name="circumflex" unicode="&#x2c6;" horiz-adv-x="325" 
d="M307 582q0 -7 -5 -12l-13 -13q-6 -6 -11 -6t-12 5l-102 79l-94 -73q-10 -8 -17 -8q-6 0 -13 7l-12 13q-5 7 -5 10q0 5 6 11l108 98q10 8 20 8h14q11 0 19 -7l111 -100q6 -6 6 -12z" />
    <glyph glyph-name="caron" unicode="&#x2c7;" horiz-adv-x="325" 
d="M309 668q0 -6 -6 -12l-111 -100q-8 -7 -19 -7h-14q-10 0 -20 8l-108 98q-6 6 -6 11q0 3 5 10l12 13q7 7 13 7q7 0 17 -8l94 -73l102 79q7 5 12 5t11 -6l13 -13q5 -5 5 -12z" />
    <glyph glyph-name="breve" unicode="&#x2d8;" horiz-adv-x="325" 
d="M293 688q0 -7 -1 -10q-4 -25 -19.5 -44.5t-36.5 -31.5q-15 -8 -33.5 -13t-38.5 -5t-38.5 5t-33.5 13q-21 12 -36.5 31.5t-19.5 44.5q-1 3 -1 10q0 8 4 10.5t12 2.5h25q11 0 14.5 -3t8.5 -12q9 -19 27 -31.5t38 -12.5t38 12.5t27 31.5q5 9 8.5 12t14.5 3h25q8 0 12 -2.5
t4 -10.5z" />
    <glyph glyph-name="dotaccent" unicode="&#x2d9;" horiz-adv-x="325" 
d="M222 643q0 -26 -19 -41t-39 -15q-10 0 -20.5 4t-19.5 11t-14.5 17t-5.5 23q0 26 19 41t41 15q21 0 39.5 -14.5t18.5 -40.5z" />
    <glyph glyph-name="ring" unicode="&#x2da;" horiz-adv-x="325" 
d="M243 621q0 -33 -23.5 -56.5t-56.5 -23.5t-57 23.5t-24 56.5t24 56.5t57 23.5t56.5 -23.5t23.5 -56.5zM193 621q0 13 -8.5 21.5t-21.5 8.5t-22 -8.5t-9 -21.5t9 -21.5t22 -8.5t21.5 8.5t8.5 21.5z" />
    <glyph glyph-name="ogonek" unicode="&#x2db;" horiz-adv-x="325" 
d="M266 -171q0 -5 -2 -9t-10 -6q-16 -6 -38.5 -10.5t-42.5 -4.5q-51 0 -76 22.5t-25 54.5q0 22 7.5 40t21.5 33q14 16 32.5 28t38.5 23h59q-48 -35 -69 -59.5t-21 -49.5q0 -23 14.5 -32t37.5 -9q10 0 26.5 2.5t27.5 6.5q1 0 2 0.5t2 0.5q8 0 9 -7l5 -18q1 -2 1 -6z" />
    <glyph glyph-name="tilde" unicode="&#x2dc;" horiz-adv-x="325" 
d="M325 656q0 -8 -8 -14q-23 -17 -49 -30.5t-55 -13.5q-15 0 -28 6t-26 13.5t-25.5 14t-25.5 6.5t-29.5 -6.5t-35.5 -17.5q-11 -6 -16 -6q-8 0 -12 10l-9 23q-2 4 -3 6.5t-1 4.5q0 7 14 16q20 13 44 22.5t47 9.5q15 0 30.5 -6t29.5 -13l27 -13t24 -6t28.5 8.5t33.5 18.5
q9 5 15 5q8 0 14 -9l11 -17q5 -8 5 -12z" />
    <glyph glyph-name="hungarumlaut" unicode="&#x2dd;" horiz-adv-x="325" 
d="M390 648q0 -9 -10 -13l-152 -74q-4 -2 -6.5 -3t-4.5 -1q-8 0 -14 9l-10 15q-4 5 -4 10q0 8 9 13l140 91q7 5 13 5q8 0 15 -10l20 -30q4 -5 4 -12zM167 648q0 -9 -10 -13l-151 -74q-10 -4 -12 -4q-8 0 -14 9l-10 15q-4 5 -4 10q0 8 9 13l140 91q7 5 13 5q8 0 15 -10
l20 -30q4 -5 4 -12z" />
    <glyph glyph-name="commaaccent" unicode="&#x326;" horiz-adv-x="297" 
d="M193 -94q0 -35 -19 -68.5t-46 -53.5q-7 -4 -12 -4t-9 6l-6 6l-2 4t-1 4t5 7q11 11 19.5 24.5t8.5 28.5q0 8 -4 14.5t-9.5 13.5t-9.5 14t-4 16q0 19 12 30.5t31 11.5q21 0 33.5 -17t12.5 -37z" />
    <glyph glyph-name="Omega" unicode="&#x3a9;" horiz-adv-x="701" 
d="M295 69q9 -3 12 -5.5t3 -10.5v-36q0 -8 -3 -12.5t-12 -4.5h-233q-17 0 -17 17v36q0 16 17 16h101q-48 41 -75 109.5t-27 165.5q0 82 21.5 147t60.5 110.5t93 70t119 24.5q68 0 121.5 -25t90 -70.5t55.5 -109.5t19 -142q0 -100 -30.5 -169.5t-81.5 -110.5h110q15 0 15 -16
v-36q0 -17 -15 -17h-236q-15 0 -15 17v36q0 8 3 11t12 5q36 7 63 31t44.5 60.5t26.5 84t9 101.5q0 137 -52 204.5t-143 67.5q-43 0 -79 -18.5t-62.5 -53t-41.5 -85t-15 -114.5q0 -56 8.5 -103t26 -83t44 -59.5t63.5 -32.5z" />
    <glyph glyph-name="Omega" unicode="&#x2126;" horiz-adv-x="701" 
d="M295 69q9 -3 12 -5.5t3 -10.5v-36q0 -8 -3 -12.5t-12 -4.5h-233q-17 0 -17 17v36q0 16 17 16h101q-48 41 -75 109.5t-27 165.5q0 82 21.5 147t60.5 110.5t93 70t119 24.5q68 0 121.5 -25t90 -70.5t55.5 -109.5t19 -142q0 -100 -30.5 -169.5t-81.5 -110.5h110q15 0 15 -16
v-36q0 -17 -15 -17h-236q-15 0 -15 17v36q0 8 3 11t12 5q36 7 63 31t44.5 60.5t26.5 84t9 101.5q0 137 -52 204.5t-143 67.5q-43 0 -79 -18.5t-62.5 -53t-41.5 -85t-15 -114.5q0 -56 8.5 -103t26 -83t44 -59.5t63.5 -32.5z" />
    <glyph glyph-name="pi" unicode="&#x3c0;" horiz-adv-x="623" 
d="M204 18q0 -18 -16 -18h-53q-16 0 -16 17v403h-72q-11 0 -14 3.5t-3 14.5v32q0 14 14 14h509q14 0 14 -12v-37q0 -15 -14 -15h-98v-277q0 -16 1 -29.5t4.5 -23.5t12 -16t23.5 -6q12 0 25 4.5t24 11.5q6 4 10.5 4t8.5 -8l14 -30q3 -8 1 -12t-7 -8q-17 -15 -43 -24.5
t-52 -9.5q-35 0 -56.5 11.5t-32.5 32t-14.5 48.5t-3.5 62v270h-166v-402v0z" />
    <glyph glyph-name="Wgrave" unicode="&#x1e80;" horiz-adv-x="894" 
d="M876 677q0 -3 -2 -9l-192 -647q-6 -21 -26 -21h-47q-10 0 -16 4.5t-10 17.5l-136 518h-1l-137 -518q-4 -13 -10 -17.5t-17 -4.5h-46q-11 0 -16 4t-10 19l-189 641q-2 8 -2 12q0 13 15 13h62q14 0 20.5 -4.5t9.5 -16.5l140 -526h1l135 527q3 13 9.5 16.5t18.5 3.5h43
q19 0 24 -19l138 -528h2l142 526q4 13 10.5 17t17.5 4h54q15 0 15 -12zM325 849q0 7 4 12l21 33q7 10 15 10q5 0 14 -6l140 -90q9 -5 9 -13q0 -5 -4 -10l-12 -18q-6 -9 -14 -9q-5 0 -12 3l-151 75q-10 4 -10 13z" />
    <glyph glyph-name="wgrave" unicode="&#x1e81;" horiz-adv-x="691" 
d="M662 483q8 0 10.5 -6.5t0.5 -13.5l-134 -445q-6 -18 -24 -18h-51q-20 0 -24 18l-96 334h-1l-94 -335q-5 -17 -25 -17h-50q-19 0 -24 18l-133 445q-2 8 0.5 14t13.5 6h53q21 0 24 -14l95 -365h2l104 364q4 15 20 15h41q7 0 11.5 -2t6.5 -10l106 -368h2l94 363q5 17 24 17
h48zM222 649q0 7 4 12l21 33q7 10 15 10q5 0 14 -6l140 -90q9 -5 9 -13q0 -5 -4 -10l-12 -18q-6 -9 -14 -9q-5 0 -12 3l-151 75q-10 4 -10 13z" />
    <glyph glyph-name="Wacute" unicode="&#x1e82;" horiz-adv-x="894" 
d="M876 677q0 -3 -2 -9l-192 -647q-6 -21 -26 -21h-47q-10 0 -16 4.5t-10 17.5l-136 518h-1l-137 -518q-4 -13 -10 -17.5t-17 -4.5h-46q-11 0 -16 4t-10 19l-189 641q-2 8 -2 12q0 13 15 13h62q14 0 20.5 -4.5t9.5 -16.5l140 -526h1l135 527q3 13 9.5 16.5t18.5 3.5h43
q19 0 24 -19l138 -528h2l142 526q4 13 10.5 17t17.5 4h54q15 0 15 -12zM577 849q0 -9 -10 -13l-151 -75q-8 -3 -12 -3q-8 0 -14 9l-12 18q-4 5 -4 10q0 8 9 13l140 90q9 6 14 6q8 0 15 -10l21 -33q4 -5 4 -12z" />
    <glyph glyph-name="wacute" unicode="&#x1e83;" horiz-adv-x="691" 
d="M662 483q8 0 10.5 -6.5t0.5 -13.5l-134 -445q-6 -18 -24 -18h-51q-20 0 -24 18l-96 334h-1l-94 -335q-5 -17 -25 -17h-50q-19 0 -24 18l-133 445q-2 8 0.5 14t13.5 6h53q21 0 24 -14l95 -365h2l104 364q4 15 20 15h41q7 0 11.5 -2t6.5 -10l106 -368h2l94 363q5 17 24 17
h48zM487 646q0 -9 -10 -13l-151 -75q-8 -3 -12 -3q-8 0 -14 9l-12 18q-4 5 -4 10q0 8 9 13l140 90q9 6 14 6q8 0 15 -10l21 -33q4 -5 4 -12z" />
    <glyph glyph-name="Wdieresis" unicode="&#x1e84;" horiz-adv-x="894" 
d="M876 677q0 -3 -2 -9l-192 -647q-6 -21 -26 -21h-47q-10 0 -16 4.5t-10 17.5l-136 518h-1l-137 -518q-4 -13 -10 -17.5t-17 -4.5h-46q-11 0 -16 4t-10 19l-189 641q-2 8 -2 12q0 13 15 13h62q14 0 20.5 -4.5t9.5 -16.5l140 -526h1l135 527q3 13 9.5 16.5t18.5 3.5h43
q19 0 24 -19l138 -528h2l142 526q4 13 10.5 17t17.5 4h54q15 0 15 -12zM586 816q0 -23 -16 -35.5t-34 -12.5t-35.5 12.5t-17.5 35.5q0 24 16.5 36.5t36.5 12.5t35 -13t15 -36zM410 816q0 -23 -16.5 -35.5t-34.5 -12.5t-35 12.5t-17 35.5q0 24 16 36.5t36 12.5t35.5 -13
t15.5 -36z" />
    <glyph glyph-name="wdieresis" unicode="&#x1e85;" horiz-adv-x="691" 
d="M662 483q8 0 10.5 -6.5t0.5 -13.5l-134 -445q-6 -18 -24 -18h-51q-20 0 -24 18l-96 334h-1l-94 -335q-5 -17 -25 -17h-50q-19 0 -24 18l-133 445q-2 8 0.5 14t13.5 6h53q21 0 24 -14l95 -365h2l104 364q4 15 20 15h41q7 0 11.5 -2t6.5 -10l106 -368h2l94 363q5 17 24 17
h48zM484 629q0 -23 -16 -35.5t-34 -12.5t-35.5 12.5t-17.5 35.5q0 24 16.5 36.5t36.5 12.5t35 -13t15 -36zM308 629q0 -23 -16.5 -35.5t-34.5 -12.5t-35 12.5t-17 35.5q0 24 16 36.5t36 12.5t35.5 -13t15.5 -36z" />
    <glyph glyph-name="Ygrave" unicode="&#x1ef2;" 
d="M533 679q0 -6 -4 -13l-202 -394v-254q0 -18 -17 -18h-59q-17 0 -17 19v251l-214 399q-3 6 -3 10q0 10 15 10h56q25 0 33 -17l164 -324h1l158 321q6 12 11.5 16t19.5 4h42q16 0 16 -10zM174 849q0 7 4 12l21 33q7 10 15 10q5 0 14 -6l140 -90q9 -5 9 -13q0 -5 -4 -10
l-12 -18q-6 -9 -14 -9q-5 0 -12 3l-151 75q-10 4 -10 13z" />
    <glyph glyph-name="ygrave" unicode="&#x1ef3;" horiz-adv-x="485" 
d="M109 483q15 0 19 -13l130 -374l126 372q5 15 21 15h55q13 0 13 -10q0 -3 -2 -9l-195 -523q-17 -44 -35 -74.5t-42 -49.5t-54.5 -27.5t-70.5 -8.5q-25 0 -45 4q-11 2 -11 15v5l5 38q1 14 15 14h4q8 -1 17.5 -2t17.5 -1q42 0 67.5 17.5t41.5 56.5l26 64l-179 474
q-2 6 0 11.5t10 5.5h66zM148 649q0 7 4 12l21 33q7 10 15 10q5 0 14 -6l140 -90q9 -5 9 -13q0 -5 -4 -10l-12 -18q-6 -9 -14 -9q-5 0 -12 3l-151 75q-10 4 -10 13z" />
    <glyph glyph-name="endash" unicode="&#x2013;" horiz-adv-x="500" 
d="M500 245q0 -12 -4 -17t-16 -5h-458q-14 0 -18 4.5t-4 14.5v41q0 11 4 14.5t15 3.5h459q14 0 18 -4t4 -16v-36z" />
    <glyph glyph-name="emdash" unicode="&#x2014;" horiz-adv-x="1000" 
d="M1000 245q0 -12 -4 -17t-16 -5h-958q-14 0 -18 4.5t-4 14.5v41q0 11 4 14.5t15 3.5h959q14 0 18 -4t4 -16v-36z" />
    <glyph glyph-name="quoteleft" unicode="&#x2018;" horiz-adv-x="325" 
d="M216 679q0 -3 -6 -9q-14 -14 -24.5 -31t-10.5 -35q0 -10 5.5 -18.5t11.5 -16.5t11.5 -17t5.5 -20q0 -23 -15.5 -38t-38.5 -15q-26 0 -42 21t-16 46q0 45 24 86.5t59 65.5q9 6 14 6t11 -7l7 -9q4 -6 4 -9z" />
    <glyph glyph-name="quoteright" unicode="&#x2019;" horiz-adv-x="325" 
d="M225 636q0 -45 -23.5 -86t-58.5 -65q-9 -6 -14 -6q-6 0 -12 7l-7 8q-4 6 -4 9q0 4 6 10q14 14 24.5 30.5t10.5 34.5q0 10 -5.5 18.5l-11.5 17t-11.5 17.5t-5.5 20q0 23 15.5 38t38.5 15q26 0 42 -21.5t16 -46.5z" />
    <glyph glyph-name="quotesinglbase" unicode="&#x201a;" horiz-adv-x="325" 
d="M225 18q0 -45 -23.5 -86.5t-58.5 -65.5q-9 -6 -14 -6q-6 0 -12 7l-7 8q-4 6 -4 9q0 4 6 10q14 14 24.5 31t10.5 35q0 10 -5.5 18.5t-11.5 16.5t-11.5 17t-5.5 20q0 23 15.5 38t38.5 15q26 0 42 -21t16 -46z" />
    <glyph glyph-name="quotedblleft" unicode="&#x201c;" horiz-adv-x="362" 
d="M326 679q0 -4 -5 -9q-14 -14 -24.5 -31t-10.5 -35q0 -10 5.5 -18.5t11.5 -16.5t11.5 -17t5.5 -20q0 -23 -16 -38t-39 -15q-26 0 -41.5 21t-15.5 46q0 45 23.5 86.5t58.5 65.5q9 6 14 6q6 0 12 -7l7 -9q3 -5 3 -9zM150 679q0 -4 -5 -9q-14 -14 -24.5 -31t-10.5 -35
q0 -10 5.5 -18.5t11.5 -16.5t11.5 -17t5.5 -20q0 -23 -16 -38t-39 -15q-26 0 -41.5 21t-15.5 46q0 45 23.5 86.5t58.5 65.5q9 6 14 6q6 0 12 -7l7 -9q3 -5 3 -9z" />
    <glyph glyph-name="quotedblright" unicode="&#x201d;" horiz-adv-x="362" 
d="M332 633q0 -45 -24 -86.5t-59 -65.5q-9 -6 -14 -6t-11 7l-7 8q-4 6 -4 9q0 4 6 10q14 14 24.5 31t10.5 35q0 10 -5.5 18.5t-11.5 16.5t-11.5 17t-5.5 20q0 23 15.5 38t38.5 15q26 0 42 -21t16 -46zM156 633q0 -45 -24 -86.5t-59 -65.5q-9 -6 -14 -6t-11 7l-7 8q-4 6 -4 9
q0 4 6 10q14 14 24.5 31t10.5 35q0 10 -5.5 18.5t-11.5 16.5t-11.5 17t-5.5 20q0 23 15.5 38t38.5 15q26 0 42 -21t16 -46z" />
    <glyph glyph-name="quotedblbase" unicode="&#x201e;" horiz-adv-x="362" 
d="M332 18q0 -45 -24 -86.5t-59 -65.5q-9 -6 -14 -6t-11 7l-7 8q-4 6 -4 9q0 4 6 10q14 14 24.5 31t10.5 35q0 10 -5.5 18.5t-11.5 16.5t-11.5 17t-5.5 20q0 23 15.5 38t38.5 15q26 0 42 -21t16 -46zM156 18q0 -45 -24 -86.5t-59 -65.5q-9 -6 -14 -6t-11 7l-7 8q-4 6 -4 9
q0 4 6 10q14 14 24.5 31t10.5 35q0 10 -5.5 18.5t-11.5 16.5t-11.5 17t-5.5 20q0 23 15.5 38t38.5 15q26 0 42 -21t16 -46z" />
    <glyph glyph-name="dagger" unicode="&#x2020;" horiz-adv-x="514" 
d="M462 391q0 -9 -4 -11.5t-12 -2.5h-1l-148 2l-4 -360q0 -19 -17 -19h-39q-16 0 -16 19l-4 360l-146 -2h-1q-17 0 -17 14v42q0 9 3 12.5t12 3.5l149 -1l-3 224v1q0 8 3 12t13 4h52q11 0 14 -3.5t3 -11.5v-1l-2 -225l149 1q10 0 13 -4t3 -12v-42z" />
    <glyph glyph-name="daggerdbl" unicode="&#x2021;" horiz-adv-x="514" 
d="M462 448q0 -9 -3.5 -11.5t-11.5 -2.5h-1l-149 2l-2 -122l133 1h1q9 0 12.5 -3t3.5 -13v-42q0 -9 -4.5 -11.5t-12.5 -2.5h-2l-131 2l-2 -226q0 -19 -17 -19h-39q-16 0 -16 19l-2 226l-130 -2h-2q-8 0 -12 2.5t-4 11.5v42q0 16 15 16l132 -1l-1 122l-145 -2h-4q-7 0 -11 2
t-4 11v42q0 17 14 17h1l149 -2l-3 168v1q0 16 15 16h53q9 0 13 -3t4 -12l-2 -170l149 2h1q9 0 12 -4.5t3 -12.5v-41z" />
    <glyph glyph-name="bullet" unicode="&#x2022;" horiz-adv-x="510" 
d="M421 267q0 -33 -13 -61.5t-35.5 -50t-53 -34t-65.5 -12.5t-65.5 12.5t-53.5 34t-36.5 50t-13.5 61.5t13.5 61.5t36.5 50t53.5 34t65.5 12.5t65.5 -12.5t53 -34t35.5 -50t13 -61.5z" />
    <glyph glyph-name="ellipsis" unicode="&#x2026;" horiz-adv-x="1000" 
d="M876 44q0 -26 -18.5 -41.5t-39.5 -15.5t-41 14.5t-20 41.5t19 41.5t42 14.5t40.5 -14t17.5 -41zM559 44q0 -26 -19 -41.5t-40 -15.5t-40.5 14.5t-19.5 41.5t18.5 41.5t41.5 14.5t41 -14t18 -41zM242 44q0 -26 -19 -41.5t-40 -15.5t-40.5 14.5t-19.5 41.5t18.5 41.5
t41.5 14.5t41 -14t18 -41z" />
    <glyph glyph-name="perthousand" unicode="&#x2030;" horiz-adv-x="1000" 
d="M955 145q0 -30 -7.5 -58t-23 -49.5t-40 -34.5t-57.5 -13q-34 0 -58.5 12.5t-40.5 33.5t-23.5 49t-7.5 59q0 30 8 58.5t24.5 50.5t41 35t58.5 13t58 -13t39 -34.5t22 -50t7 -58.5zM317 545q0 -30 -7.5 -58t-23 -49.5t-40 -34.5t-57.5 -13q-34 0 -58.5 12.5t-40.5 33.5
t-23.5 49t-7.5 59q0 30 8 58.5t24.5 50.5t41 35t58.5 13t58 -13t39 -34.5t22 -50t7 -58.5zM619 666q0 -5 -4 -12l-472 -659q-6 -8 -11 -8q-6 0 -17 8l-27 20q-7 4 -7 12t5 14l468 655q6 8 13 8q4 0 16 -7l27 -17q9 -6 9 -14zM640 145q0 -30 -7.5 -58t-23 -49.5t-40 -34.5
t-57.5 -13q-34 0 -58.5 12.5t-40.5 33.5t-23.5 49t-7.5 59q0 30 8 58.5t24.5 50.5t41 35t58.5 13t58 -13t39 -34.5t22 -50t7 -58.5zM889 144q0 15 -2 33.5t-9 35t-19 27.5t-32 11t-32.5 -10.5t-19 -26.5t-9 -34.5t-2.5 -33.5q0 -17 1.5 -36t8 -35t19 -26.5t35.5 -10.5
q19 0 31 11t18.5 27.5t9 34.5t2.5 33zM251 544q0 15 -2 33.5t-9 35t-19 27.5t-32 11t-32.5 -10.5t-19 -26.5t-9 -34.5t-2.5 -33.5q0 -17 1.5 -36t8 -35t19 -26.5t35.5 -10.5q19 0 31 11t18.5 27.5t9 34.5t2.5 33zM574 144q0 15 -2 33.5t-9 35t-19 27.5t-32 11t-32.5 -10.5
t-19 -26.5t-9 -34.5t-2.5 -33.5q0 -17 1.5 -36t8 -35t19 -26.5t35.5 -10.5q19 0 31 11t18.5 27.5t9 34.5t2.5 33z" />
    <glyph glyph-name="guilsinglleft" unicode="&#x2039;" horiz-adv-x="288" 
d="M222 369q0 -4 -3 -8l-84 -132l83 -136q2 -3 2 -9t-9 -12l-23 -14q-6 -3 -9 -3q-5 0 -13 10l-112 149q-5 6 -5 14q0 7 6 15l111 145q5 8 13 8q5 0 8 -2l27 -15q8 -5 8 -10z" />
    <glyph glyph-name="guilsinglright" unicode="&#x203a;" horiz-adv-x="288" 
d="M239 225q0 -9 -6 -16l-111 -144q-6 -9 -13 -9q-5 0 -8 2l-27 16q-7 5 -7 11q0 3 2 7l84 133l-82 135q-3 4 -3 8q0 7 9 13l23 13q3 2 5 3t4 1q4 0 6.5 -3l6.5 -8l112 -149q5 -6 5 -13z" />
    <glyph glyph-name="fraction" unicode="&#x2044;" horiz-adv-x="160" 
d="M330 709q0 -8 -6 -17l-429 -703q-6 -9 -11 -13t-16 -4h-51q-13 0 -13 12q0 3 3 9l432 705q8 12 14 16.5t20 4.5h42q15 0 15 -10z" />
    <glyph glyph-name="fraction" unicode="&#x2215;" horiz-adv-x="160" 
d="M330 709q0 -8 -6 -17l-429 -703q-6 -9 -11 -13t-16 -4h-51q-13 0 -13 12q0 3 3 9l432 705q8 12 14 16.5t20 4.5h42q15 0 15 -10z" />
    <glyph glyph-name="Euro" unicode="&#x20ac;" 
d="M569 642q0 -5 -3 -12l-16 -37q-4 -10 -12 -10q-5 0 -9 3q-35 20 -67 30t-72 10q-48 0 -89 -20t-70 -56q-25 -31 -39.5 -68.5t-19.5 -79.5h203q18 0 18 -11q0 -1 -0.5 -2t-0.5 -3l-6 -25q-2 -11 -4.5 -13t-13.5 -2h-199q0 -25 3 -47h183q17 0 17 -11q0 -4 -1 -6l-6 -23
q-3 -11 -5 -13.5t-13 -2.5h-165q10 -38 27.5 -71t43 -57t59.5 -37.5t78 -13.5q37 0 69 10t67 27q3 2 9 2q9 0 13 -11l13 -31q3 -6 3 -11q0 -11 -14 -17q-23 -11 -43 -19t-40.5 -13.5t-42 -8t-47.5 -2.5q-65 0 -115 19t-87 52.5t-60.5 80t-34.5 101.5h-74q-11 0 -14 3.5
t-3 14.5v20q0 11 3.5 14.5t14.5 3.5h65q-1 11 -1.5 22t-0.5 22v3h-50q-11 0 -13.5 3t-2.5 14v22q0 11 3.5 14t14.5 3h52q8 62 32 116.5t63.5 95t93 64t121.5 23.5q50 0 90.5 -11t82.5 -34q6 -4 9 -6.5t3 -7.5z" />
    <glyph glyph-name="litre" unicode="&#x2113;" horiz-adv-x="466" 
d="M196 316q60 53 90 106t30 119q0 48 -17 69.5t-40 21.5q-30 0 -47 -30q-8 -14 -12 -35.5t-4 -56.5v-194zM196 196q0 -72 19 -103.5t59 -31.5q27 0 54 16t53 54q9 13 24 3l24 -17q13 -8 4 -22q-29 -48 -73 -76.5t-98 -28.5q-76 0 -113.5 51.5t-37.5 152.5l-51 -30
q-11 -7 -19 6l-15 26q-7 12 7 20l78 48v241q0 54 11 90.5t32 60.5q39 45 109 45q65 0 101.5 -43.5t36.5 -111.5q0 -95 -54 -170.5t-151 -145.5v-34z" />
    <glyph glyph-name="numero" unicode="&#x2116;" horiz-adv-x="1003" 
d="M613 18q0 -11 -4.5 -14.5t-12.5 -3.5h-47q-16 0 -27 17l-352 513h-2v-511q0 -11 -4.5 -15t-13.5 -4h-50q-11 0 -15.5 3.5t-4.5 14.5v654q0 11 5 14.5t14 3.5h47q14 0 24 -13l353 -514h2v510q0 17 17 17h56q10 0 12.5 -5t2.5 -13v-654zM936 253q0 -30 -8 -57.5
t-24.5 -48.5t-42 -33.5t-60.5 -12.5t-60.5 12t-42 33t-24.5 49t-8 59q0 30 8.5 57.5t25 48.5t42 34t59.5 13q35 0 60.5 -12.5t42 -34t24.5 -49.5t8 -58zM874 254q0 19 -3.5 38t-12.5 34t-23 24.5t-35 9.5t-35 -9.5t-22.5 -25t-12 -34t-3.5 -36.5q0 -20 3.5 -39t12 -34.5
t22.5 -25t36 -9.5t36 9.5t22 25t11.5 34.5t3.5 38zM932 18q0 -11 -3.5 -15t-14.5 -4h-223q-11 0 -14.5 4.5t-3.5 14.5v18q0 9 3.5 13t14.5 4h224q17 0 17 -17v-18z" />
    <glyph glyph-name="trademark" unicode="&#x2122;" horiz-adv-x="637" 
d="M566 419q0 -11 -10 -11h-28q-12 0 -12 13l-3 174l-71 -180q-2 -7 -10 -7h-17q-7 0 -11 8l-78 180l-2 -178q0 -10 -11 -10h-27q-9 0 -9 10v1l7 259q0 11 10 11h25q11 0 14 -8l91 -208l86 208q3 8 11 8h26q10 0 10 -10l9 -259v-1zM271 658q-1 -6 -4 -7.5t-8 -1.5h-69v-230
q0 -11 -11 -11h-29q-11 0 -11 11v230h-70q-10 0 -10 9v21q0 10 9 10h196q10 0 10 -7v-3z" />
    <glyph glyph-name="estimated" unicode="&#x212e;" horiz-adv-x="867" 
d="M190 336q-5 0 -5 -5v-193q0 -7 2.5 -12.5t6.5 -10.5q45 -47 107 -75t134 -28q77 0 142 31.5t110 84.5h58q-54 -62 -134.5 -99.5t-176.5 -37.5q-81 0 -152.5 27.5t-125.5 75.5t-85 112t-31 138t31 138.5t85 112.5t125.5 75.5t152.5 27.5t152.5 -27.5t125 -75.5
t84.5 -112.5t31 -138.5v-8h-637zM682 555q0 13 -10 23q-45 45 -106 72t-131 27q-72 0 -133.5 -27.5t-106.5 -74.5q-10 -10 -10 -25v-190q0 -5 5 -5h487q5 0 5 5v195z" />
    <glyph glyph-name="partialdiff" unicode="&#x2202;" horiz-adv-x="543" 
d="M52 212q0 52 16 93t43.5 69.5t64 43.5t77.5 15q32 0 68 -11.5t70 -45.5q-1 52 -10.5 99.5t-29.5 83.5t-52 57t-77 21q-28 0 -49.5 -6t-47.5 -20q-7 -5 -12 -1.5t-8 9.5l-16 39q-6 14 10 23q32 17 61 24.5t66 7.5q54 0 94 -17.5t69 -47t47 -68.5t29 -82t15 -88t4 -86
q0 -74 -12.5 -136t-39.5 -106t-69.5 -68.5t-102.5 -24.5q-49 0 -87.5 16.5t-65.5 45.5t-41 70t-14 91zM140 210q0 -27 7 -53t22 -47t38 -33.5t55 -12.5q42 0 68 20.5t40.5 53t19.5 74t5 83.5q-29 34 -60 49.5t-69 15.5q-32 0 -55.5 -13t-39.5 -34t-23.5 -48t-7.5 -55z" />
    <glyph glyph-name="Delta" unicode="&#x2206;" horiz-adv-x="580" 
d="M71 0q-15 0 -23 12l-18 28q-5 7 -4.5 13t3.5 14l221 629q3 8 6.5 10t11.5 2h37q15 0 20 -12l227 -630q5 -14 -2 -26l-18 -29q-4 -7 -9 -9t-13 -2h-439zM106 73h349l-174 526z" />
    <glyph glyph-name="product" unicode="&#x220f;" horiz-adv-x="640" 
d="M426 616h-220v-767q0 -11 -3 -13.5t-12 -2.5h-62q-9 0 -11.5 2.5t-2.5 12.5v768h-69q-16 0 -16 17v43q0 14 16 14h549q16 0 15 -12l-4 -47q-2 -9 -7.5 -12t-15.5 -3h-66v-767q0 -11 -3 -13.5t-11 -2.5h-62q-10 0 -12.5 2.5t-2.5 13.5v767z" />
    <glyph glyph-name="summation" unicode="&#x2211;" horiz-adv-x="605" 
d="M45 -167q-15 0 -15 14v36q0 8 3 13.5t7 9.5l315 362l-317 348q-5 5 -6.5 9.5t-1.5 11.5v39q0 14 16 14h509q16 0 16 -12v-47q-1 -9 -7 -12t-16 -3h-392l264 -290q10 -10 12 -16.5t2 -11.5v-26q0 -10 -1.5 -17.5t-11.5 -18.5l-284 -329h422q16 0 16 -16v-44q0 -14 -19 -14
h-511z" />
    <glyph glyph-name="minus" unicode="&#x2212;" horiz-adv-x="510" 
d="M422 247q0 -12 -4 -17t-16 -5h-285q-14 0 -18 4.5t-4 14.5v37q0 11 4.5 14.5t15.5 3.5h285q14 0 18 -4t4 -16v-32z" />
    <glyph glyph-name="radical" unicode="&#x221a;" horiz-adv-x="573" 
d="M10 468q0 16 17 16h117q14 0 19 -15l115 -359l195 583q3 9 7.5 12t14.5 3h45q9 0 11.5 -5t-0.5 -13l-240 -678q-3 -8 -6.5 -10t-11.5 -2h-37q-15 0 -20 11l-146 403h-63q-17 0 -17 17v37z" />
    <glyph glyph-name="infinity" unicode="&#x221e;" horiz-adv-x="826" 
d="M41 325q0 72 46.5 115t124.5 43q57 0 106 -29.5t95 -76.5q20 22 42 41t46 33t51 22t58 8q76 0 123.5 -39.5t47.5 -114.5q0 -39 -14 -68t-37 -48.5t-54.5 -29t-65.5 -9.5q-54 0 -99.5 25.5t-98.5 77.5q-40 -43 -90.5 -74t-112.5 -31q-35 0 -65.5 10t-53.5 29.5t-36 48.5
t-13 67zM604 245q42 0 69 23.5t27 58.5q0 43 -28.5 63t-68.5 20q-45 0 -80 -25t-64 -57q22 -22 40.5 -38t35 -26t33 -14.5t35.5 -4.5h1zM219 245q43 0 80.5 24.5t66.5 58.5l-34 32.5t-35.5 27t-39 18t-44.5 6.5q-42 0 -66 -23t-24 -62q0 -40 27 -61t68 -21h1z" />
    <glyph glyph-name="integral" unicode="&#x222b;" horiz-adv-x="370" 
d="M197 496q4 -51 12 -103.5t17.5 -104l18 -101t13.5 -94.5q3 -23 3 -45q0 -42 -11 -77.5t-33.5 -60.5t-57.5 -39t-83 -14q-12 0 -25.5 2l-27.5 4q-9 2 -11.5 6t-1.5 12l7 38q1 15 17 10q11 -2 21.5 -3t21.5 -1q28 0 47 10t30 27t16 39.5t5 46.5q0 8 -0.5 17t-1.5 17
q-4 42 -13 92.5l-18.5 103.5t-18 106.5t-11.5 100.5q-1 9 -1 18v17q0 45 9.5 81.5t31.5 63t57 41t85 14.5q12 0 25.5 -1.5t27.5 -3.5q16 -3 13 -19l-7 -38q-1 -13 -17 -10q-11 2 -21.5 3.5t-21.5 1.5q-29 0 -47.5 -10.5t-29.5 -27.5t-15.5 -40t-4.5 -48v-15.5t1 -15.5z" />
    <glyph glyph-name="approxequal" unicode="&#x2248;" horiz-adv-x="505" 
d="M227 145q-19 15 -34.5 26t-32.5 11q-20 0 -32.5 -16.5t-23.5 -52.5q-7 -17 -22 -5l-26 18q-6 6 -7 11.5t2 14.5q14 57 41 85.5t62 28.5q22 0 44 -11t45 -30l34 -27q19 -16 34.5 -24t34.5 -8q50 0 79 69q10 15 21 4l25 -21q10 -9 4 -26q-20 -53 -56 -79.5t-75 -26.5
q-44 0 -86 33zM229 361q-19 16 -34.5 24t-34.5 8q-50 0 -79 -69q-8 -14 -21 -4l-25 21q-10 9 -4 26q20 53 56 79.5t75 26.5q45 0 87 -35l32 -26q18 -15 33 -25.5t32 -10.5q20 0 33 16.5t23 53.5q2 8 8 10t13 -4l27 -20q10 -9 5 -25q-14 -57 -40.5 -85.5t-62.5 -28.5
q-22 0 -43.5 11t-45.5 30z" />
    <glyph glyph-name="notequal" unicode="&#x2260;" horiz-adv-x="505" 
d="M143 145h-77q-15 0 -15 17v37q0 8 3 12t12 4h119l63 112h-182q-15 0 -15 18v36q0 8 3 12t12 4h223l51 87q9 17 24 7l15 -9q15 -8 7 -23l-35 -62h86q17 0 17 -16v-36q0 -18 -17 -18h-128l-63 -112h191q17 0 17 -16v-37q0 -17 -17 -17h-233l-52 -89q-5 -9 -10.5 -9.5
t-13.5 3.5l-15 9q-8 5 -9.5 10t3.5 13z" />
    <glyph glyph-name="lessequal" unicode="&#x2264;" horiz-adv-x="505" 
d="M416 203q0 -5 -3 -9l-27 -43q-6 -9 -12 -9q-7 0 -13 5l-266 187q-5 4 -7.5 7.5t-2.5 11.5v19q0 8 3.5 12t8.5 7l271 185q5 5 11 5t10 -7l23 -39q4 -5 4 -10q0 -6 -8 -12l-216 -149l215 -148q9 -6 9 -13zM420 17q0 -17 -17 -17h-308q-16 0 -16 17v37q0 16 16 16h308
q17 0 17 -16v-37z" />
    <glyph glyph-name="greaterequal" unicode="&#x2265;" horiz-adv-x="505" 
d="M89 203q0 6 10 13l215 148l-216 149q-8 6 -8 12q0 5 4 10l23 39q4 7 10 7t11 -5l271 -185q5 -3 8.5 -7t3.5 -12v-19q0 -8 -2.5 -11.5t-7.5 -7.5l-266 -187q-6 -5 -13 -5q-6 0 -12 9l-27 43q-4 6 -4 9zM86 54q0 16 17 16h308q9 0 12 -4t3 -12v-37q0 -8 -3 -12.5t-12 -4.5
h-308q-17 0 -17 17v37z" />
    <glyph glyph-name="lozenge" unicode="&#x25ca;" horiz-adv-x="487" 
d="M117 336l128 -253l127 256l-127 254zM45 296l-6 16t-3 16v13q0 8 3 17t6 17l166 313q4 8 8 10t12 2h31q15 0 20 -12l159 -306l6.5 -17t3.5 -17v-13q0 -8 -3 -16l-6 -16l-166 -313q-4 -8 -8 -10t-12 -2h-31q-15 0 -20 11z" />
    <glyph glyph-name="apple" unicode="&#xf8ff;" horiz-adv-x="591" 
d="M230 202v65h196v66h-196v195h261v-65h-196v-65h196v-196h-261zM165 594v-529h73v-65h-138v659h391v-65h-326z" />
    <glyph glyph-name="published" horiz-adv-x="833" 
d="M778 347q0 -75 -28.5 -140t-77 -114t-114.5 -77t-141 -28q-76 0 -142 28t-114.5 77t-76.5 114.5t-28 139.5q0 75 28 140t76.5 113t114.5 76t142 28q75 0 141 -28t115 -76t77 -113t28 -140zM712 346q0 61 -23 115t-62.5 94.5t-93.5 63.5t-116 23t-116 -23t-94 -63.5
t-62.5 -94.5t-22.5 -115q0 -62 22.5 -115.5t62.5 -94t94 -63.5t116 -23t116 23t93.5 63.5t62.5 94t23 115.5zM389 181q0 -6 -1.5 -9.5t-8.5 -3.5h-34q-7 0 -8.5 3t-1.5 10v327q0 8 2 10.5t10 2.5h74q27 0 51 -5t41.5 -17.5t27.5 -32.5t10 -50q0 -26 -10 -46t-26.5 -33.5
t-38 -20.5t-45.5 -8h-42v-127zM496 415q0 35 -20.5 48.5t-58.5 13.5h-28v-126h35q32 0 52 16t20 48z" />
    </font>
</defs>
</svg>
